<svg width="120" height="120" viewBox="0 0 120 120" fill="none" xmlns="http://www.w3.org/2000/svg">
<mask id="mask0" style="mask-type:alpha" maskUnits="userSpaceOnUse" x="0" y="0" width="120" height="120">
<rect width="120" height="120" fill="#C4C4C4"/>
</mask>
<g mask="url(#mask0)">
<path d="M120.999 22.5276C108.199 22.5276 95.5242 25.0482 83.6983 29.9472C71.8724 34.8461 61.1272 42.0259 52.0761 51.0772C43.0249 60.1285 35.8453 70.8738 30.9467 82.6992C26.0483 94.5245 23.5271 107.2 23.5271 120L120.999 120L120.999 22.5276Z" fill="#5577F2"/>
<path d="M51.629 51.6291C63.3742 39.884 63.3742 20.8414 51.629 9.09623C39.8839 -2.6489 20.8413 -2.6489 9.09615 9.09623C-2.64898 20.8414 -2.64898 39.884 9.09615 51.6291C20.8413 63.3742 39.8839 63.3742 51.629 51.6291Z" fill="#FFCD59"/>
</g>
</svg>
