<svg width="120" height="120" viewBox="0 0 120 120" fill="none" xmlns="http://www.w3.org/2000/svg">
<mask id="mask0" style="mask-type:alpha" maskUnits="userSpaceOnUse" x="0" y="0" width="120" height="120">
<rect width="120" height="120" fill="#C4C4C4"/>
</mask>
<g mask="url(#mask0)">
<circle r="22.5" transform="matrix(0.969262 -0.24603 0.272173 0.962248 89.9323 29.1862)" fill="#FFCD59"/>
<path d="M115.698 45.947C118.783 56.8542 118.541 68.3433 115.002 78.9617C111.463 89.58 104.787 98.8506 95.8171 105.601C86.8474 112.352 75.9871 116.279 64.6097 116.886C53.2323 117.493 41.8487 114.753 31.8984 109.013C21.9482 103.272 13.8782 94.7889 8.70903 84.6354C3.53982 74.4819 1.50354 63.1143 2.85769 51.9702C4.21184 40.8261 8.8956 30.4059 16.3167 22.0275C23.7378 13.649 33.5629 7.68849 44.5495 4.89972L60.1481 60.0473L115.698 45.947Z" fill="#EE6C4D"/>
</g>
</svg>
