<svg width="120" height="120" viewBox="0 0 120 120" fill="none" xmlns="http://www.w3.org/2000/svg">
<mask id="mask0" style="mask-type:alpha" maskUnits="userSpaceOnUse" x="0" y="0" width="120" height="120">
<rect x="120" width="120" height="120" transform="rotate(90 120 0)" fill="#C4C4C4"/>
</mask>
<g mask="url(#mask0)">
<circle cx="81.1901" cy="25.0437" r="25" transform="rotate(7.48521 81.1901 25.0437)" fill="#5577F2"/>
<path d="M112 102.79C105.019 108.005 92.2819 115.741 83.8369 117.888C75.3918 120.035 66.6066 120.497 57.9828 119.249C49.3591 118 41.0656 115.066 33.576 110.612C26.0865 106.159 19.5474 100.274 14.3323 93.2929C9.11709 86.3122 5.32793 78.3726 3.18113 69.9276C1.03434 61.4825 0.571942 52.6973 1.82035 44.0735C3.06875 35.4498 6.00351 27.1563 10.4571 19.6668C14.9106 12.1772 20.7957 5.63814 27.7764 0.422968L112 102.79Z" fill="#EE6C4D"/>
</g>
</svg>
