<svg width="120" height="120" viewBox="0 0 120 120" fill="none" xmlns="http://www.w3.org/2000/svg">
<mask id="mask0_25414:44089" style="mask-type:alpha" maskUnits="userSpaceOnUse" x="0" y="0" width="120" height="120">
<rect width="120" height="120" fill="#C4C4C4"/>
</mask>
<g mask="url(#mask0_25414:44089)">
<path d="M120.999 22.5274C108.199 22.5274 95.5242 25.0481 83.6983 29.947C71.8724 34.846 61.1272 42.0258 52.0761 51.0771C43.0249 60.1284 35.8453 70.8737 30.9467 82.6991C26.0483 94.5244 23.5271 107.2 23.5271 120L120.999 120L120.999 22.5274Z" fill="#EE6C4D"/>
<path d="M51.6289 51.6292C63.374 39.8841 63.374 20.8415 51.6289 9.09636C39.8838 -2.64877 20.8412 -2.64877 9.09603 9.09636C-2.6491 20.8415 -2.6491 39.8841 9.09603 51.6292C20.8412 63.3744 39.8838 63.3744 51.6289 51.6292Z" fill="#FFCD59"/>
</g>
</svg>
