<svg width="171"
     height="171"
     viewBox="0 0 171 171"
     fill="none"
     xmlns="http://www.w3.org/2000/svg">
<circle r="20.436"
        transform="matrix(-0.866025 -0.5 -0.5 0.866025 77.3046 57.2368)"
        fill="#5577F2" />
<path d="M31.0189 53.7265C24.8839 64.3525 22.0748 76.5806 22.9467 88.8644C23.8187 101.148 28.3326 112.936 35.9175 122.737C43.5025 132.538 53.8179 139.912 65.5593 143.927C77.3007 147.942 89.9407 148.417 101.881 145.292C113.821 142.168 124.525 135.584 132.64 126.373C140.754 117.162 145.915 105.738 147.469 93.5451C149.022 81.3525 146.9 68.939 141.369 57.8744C135.838 46.8098 127.147 37.5911 116.396 31.3839L85.3774 85.1104L31.0189 53.7265Z"
      fill="#FFCD59" />
</svg>