<svg width="120" height="120" viewBox="0 0 120 120" fill="none" xmlns="http://www.w3.org/2000/svg">
<mask id="mask0_25419:44098" style="mask-type:alpha" maskUnits="userSpaceOnUse" x="0" y="0" width="120" height="120">
<rect width="120" height="120" fill="#C4C4C4"/>
</mask>
<g mask="url(#mask0_25419:44098)">
<circle cx="25.0437" cy="38.8099" r="25" transform="rotate(-82.5148 25.0437 38.8099)" fill="#EE6C4D"/>
<path d="M102.79 8.00003C108.005 14.9807 115.741 27.7181 117.888 36.1631C120.035 44.6082 120.497 53.3934 119.249 62.0172C118 70.6409 115.066 78.9344 110.612 86.4239C106.159 93.9135 100.274 100.453 93.2929 105.668C86.3122 110.883 78.3726 114.672 69.9276 116.819C61.4825 118.966 52.6973 119.428 44.0735 118.18C35.4498 116.931 27.1563 113.996 19.6668 109.543C12.1772 105.089 5.63813 99.2043 0.422964 92.2236L102.79 8.00003Z" fill="#FFCD59"/>
</g>
</svg>
