<svg width="25" height="24" viewBox="0 0 25 24" fill="none" xmlns="http://www.w3.org/2000/svg">
<path fill-rule="evenodd" clip-rule="evenodd" d="M2.86938 19.5231H1.89138V19.9103H2.78961V20.2372H1.89138V20.7129H2.91277V21.0401H1.51418V19.197H2.86938V19.5231V19.5231ZM4.1061 20.5389L4.29098 20.713C4.22667 20.746 4.15534 20.7628 4.08309 20.7622C3.87506 20.7622 3.58231 20.6341 3.58231 20.1183C3.58231 19.6025 3.87506 19.4744 4.08309 19.4744C4.29098 19.4744 4.58345 19.6025 4.58345 20.1183C4.58345 20.291 4.55011 20.4186 4.49886 20.5141L4.30379 20.332L4.1061 20.5389ZM4.97636 20.9646L4.77564 20.7757C4.8886 20.6317 4.96851 20.4214 4.96851 20.1184C4.96851 19.2537 4.3268 19.1487 4.08295 19.1487C3.83924 19.1487 3.19781 19.2537 3.19781 20.1184C3.19781 20.9837 3.83924 21.0884 4.08295 21.0884C4.19041 21.0884 4.38052 21.0683 4.55507 20.9647L4.77357 21.1733L4.97636 20.9646V20.9646ZM6.78053 20.3957C6.78053 20.8801 6.48751 21.0883 6.02296 21.0883C5.85379 21.0883 5.60223 21.0474 5.43801 20.8652C5.33799 20.7531 5.29942 20.6029 5.29446 20.4186V19.197H5.68709V20.3926C5.68709 20.6501 5.83588 20.7623 6.01525 20.7623C6.27989 20.7623 6.38735 20.6342 6.38735 20.4109V19.197H6.78067V20.3957H6.78053V20.3957ZM7.81171 19.613H7.81736L8.04536 20.3419H7.57503L7.81171 19.613ZM7.47225 20.6591H8.15268L8.27088 21.0402H8.68927L8.0404 19.197H7.59611L6.9391 21.0402H7.34455L7.47225 20.6591V20.6591ZM9.37452 20.7065H10.2907V21.0401H8.98905V19.197H9.37452V20.7065V20.7065ZM11.7504 20.2129V21.0401H11.3661V19.197H11.7504V19.895H12.4693V19.197H12.8538V21.0401H12.4693V20.2129H11.7504V20.2129ZM13.5875 20.1183C13.5875 19.6025 13.8805 19.4744 14.0877 19.4744C14.296 19.4744 14.5888 19.6025 14.5888 20.1183C14.5888 20.6341 14.296 20.7622 14.0877 20.7622C13.8805 20.7622 13.5875 20.6341 13.5875 20.1183ZM13.203 20.1183C13.203 20.9836 13.845 21.0883 14.0877 21.0883C14.3326 21.0883 14.9739 20.9836 14.9739 20.1183C14.9739 19.2535 14.3327 19.1486 14.0877 19.1486C13.8451 19.1486 13.203 19.2535 13.203 20.1183ZM16.8116 20.3957C16.8116 20.8801 16.5186 21.0883 16.0539 21.0883C15.8845 21.0883 15.6336 21.0474 15.4687 20.8652C15.3688 20.7531 15.3301 20.6029 15.3256 20.4186V19.197H15.7176V20.3926C15.7176 20.6501 15.867 20.7623 16.047 20.7623C16.3113 20.7623 16.4189 20.6342 16.4189 20.4109V19.197H16.8118V20.3957H16.8116ZM17.516 20.4723C17.5195 20.5748 17.5711 20.7702 17.907 20.7702C18.0889 20.7702 18.2921 20.7267 18.2921 20.531C18.2921 20.3879 18.1535 20.3489 17.9587 20.3029L17.7608 20.2566C17.4622 20.1874 17.1751 20.1216 17.1751 19.716C17.1751 19.5105 17.2862 19.1486 17.8839 19.1486C18.449 19.1486 18.6001 19.5178 18.6029 19.7437H18.2328C18.2229 19.6621 18.1919 19.4665 17.8556 19.4665C17.7097 19.4665 17.5352 19.5204 17.5352 19.6872C17.5352 19.8317 17.6532 19.8614 17.7294 19.8794L18.1791 19.9897C18.4307 20.0516 18.6613 20.1544 18.6613 20.4852C18.6613 21.0402 18.097 21.0884 17.9351 21.0884C17.2632 21.0884 17.1478 20.7008 17.1478 20.4725H17.516V20.4723V20.4723ZM19.3617 21.0401H18.9779V19.197H19.3617V21.0401V21.0401ZM20.8997 19.197H21.2586V21.0401H20.8741L20.1226 19.7254H20.1161V21.0401H19.7572V19.197H20.1626L20.8932 20.4805H20.8997V19.197ZM22.547 20.0466H23.3162V21.0401H23.0601L23.0217 20.8092C22.9243 20.921 22.7831 21.0882 22.4467 21.0882C22.0029 21.0882 21.6004 20.7701 21.6004 20.1235C21.6004 19.6209 21.8802 19.1457 22.5004 19.1484C23.0659 19.1484 23.2894 19.5149 23.3087 19.77H22.9242C22.9242 19.698 22.7929 19.4665 22.5213 19.4665C22.2461 19.4665 21.9923 19.6562 21.9923 20.1282C21.9923 20.6316 22.267 20.7622 22.5286 20.7622C22.6134 20.7622 22.8965 20.7294 22.9753 20.3568H22.547V20.0466V20.0466ZM1.81726 22.918C1.81726 22.4022 2.10974 22.2735 2.31735 22.2735C2.52524 22.2735 2.81758 22.4022 2.81758 22.918C2.81758 23.4335 2.52524 23.5627 2.31735 23.5627C2.10974 23.5627 1.81726 23.4335 1.81726 22.918ZM1.43235 22.918C1.43235 23.7824 2.07378 23.8891 2.31749 23.8891C2.56133 23.8891 3.20277 23.7826 3.20277 22.918C3.20277 22.0533 2.5612 21.9482 2.31749 21.9482C2.07378 21.9482 1.43235 22.0535 1.43235 22.918ZM4.2575 22.8561V22.3141H4.56293C4.8014 22.3141 4.90169 22.3892 4.90169 22.569C4.90169 22.6511 4.90169 22.8561 4.61404 22.8561H4.2575ZM4.2575 23.1749H4.69862C5.19417 23.1749 5.28619 22.7535 5.28619 22.5869C5.28619 22.2253 5.07114 21.9966 4.71405 21.9966H3.87272V23.8397H4.2575V23.1749ZM6.33087 22.8561V22.3141H6.63574C6.87449 22.3141 6.97465 22.3892 6.97465 22.569C6.97465 22.6511 6.97465 22.8561 6.68768 22.8561H6.33087V22.8561ZM6.33087 23.1749H6.77227C7.2674 23.1749 7.36011 22.7535 7.36011 22.5869C7.36011 22.2253 7.14479 21.9966 6.78797 21.9966H5.94581V23.8397H6.33087V23.1749V23.1749ZM8.32268 22.918C8.32268 22.4022 8.61447 22.2735 8.82318 22.2735C9.03011 22.2735 9.32327 22.4022 9.32327 22.918C9.32327 23.4335 9.03024 23.5627 8.82318 23.5627C8.61447 23.5627 8.32268 23.4335 8.32268 22.918ZM7.93763 22.918C7.93763 23.7824 8.57892 23.8891 8.82318 23.8891C9.06634 23.8891 9.70777 23.7826 9.70777 22.918C9.70777 22.0533 9.06634 21.9482 8.82318 21.9482C8.57892 21.9482 7.93763 22.0535 7.93763 22.918ZM10.7556 22.8076V22.3141H11.2349C11.4608 22.3141 11.5041 22.4586 11.5041 22.556C11.5041 22.7384 11.407 22.8076 11.2067 22.8076H10.7556V22.8076ZM10.3773 23.8399H10.7556V23.1185H11.1527C11.4378 23.1185 11.4535 23.2157 11.4535 23.4672C11.4535 23.6566 11.468 23.7516 11.4938 23.8399H11.9201V23.7901C11.838 23.7597 11.838 23.6927 11.838 23.4242C11.838 23.0793 11.7559 23.0233 11.6047 22.9564C11.7868 22.8954 11.889 22.7204 11.889 22.518C11.889 22.3585 11.7997 21.9969 11.3094 21.9969H10.3772V23.8399H10.3773V23.8399ZM13.3233 23.8399H12.9385V22.3228H12.3819V21.9967H13.8805V22.3228H13.3233V23.8399ZM15.9463 23.1949C15.9463 23.6798 15.6539 23.8891 15.1889 23.8891C15.0204 23.8891 14.7689 23.8462 14.6042 23.6644C14.5041 23.5519 14.4656 23.4029 14.4611 23.2183V21.9967H14.8532V23.1922C14.8532 23.4489 15.0022 23.5627 15.1817 23.5627C15.446 23.5627 15.5536 23.4335 15.5536 23.2104V21.9966H15.9465V23.1949H15.9463ZM17.8091 21.9967H18.169V23.8399H17.7833L17.0312 22.5252H17.0271V23.8399H16.6671V21.9967H17.0726L17.8045 23.2796H17.8091V21.9967V21.9967ZM19.255 23.8399H18.8689V21.9967H19.255V23.8399V23.8399ZM20.7578 23.8399H20.373V22.3228H19.8171V21.9967H21.3151V22.3228H20.7578V23.8399ZM22.7703 23.8399H22.3847V23.144L21.7489 21.9967H22.2028L22.5851 22.7977L22.9505 21.9967H23.3861L22.7703 23.1486V23.8399V23.8399ZM12.4073 0L0 6.11086V8.98133H1.38867V17.5919H23.3325V8.98133H25V6.11086L12.4073 0ZM20.6477 14.9986H4.07386V7.12936L12.4073 2.87048L20.6479 7.12936V14.9986H20.6477V14.9986Z" fill="white"/>
</svg>
