<svg width="95"
     height="23"
     viewBox="0 0 95 23"
     fill="none"
     xmlns="http://www.w3.org/2000/svg">
<path d="M11.603 2.97217C11.8137 2.80437 11.9327 2.55151 11.9259 2.28027C11.919 2.01592 11.7953 1.77227 11.5824 1.61826C9.90386 0.395363 6.46899 -1.14934 2.32195 2.25958C-0.549606 4.61572 -0.794627 9.67509 1.79298 13.0863C2.32653 13.7897 3.15548 14.6356 4.25464 15.6011C4.53172 15.8447 4.91413 15.8999 5.25075 15.7459C5.59195 15.5919 5.80262 15.2632 5.80262 14.8885V9.01307C5.80262 8.12119 6.19649 7.29597 6.88117 6.74888L11.603 2.97217Z"
      fill="#FFCD59" />
<path d="M23.6784 2.25992C21.7961 0.712919 20.0626 0.186523 18.5719 0.186523C16.7766 0.186523 15.3362 0.949681 14.418 1.61859C14.205 1.7749 14.0791 2.01626 14.0745 2.28061C14.0676 2.55185 14.1867 2.80241 14.3974 2.97251L19.1192 6.74922C19.8039 7.29631 20.1977 8.12153 20.1977 9.01341V14.8911C20.1977 15.2635 20.4084 15.5922 20.7496 15.7485C21.0862 15.9025 21.4686 15.8474 21.7457 15.6037C22.8449 14.6383 23.6738 13.7923 24.2074 13.089C26.795 9.67543 26.55 4.61606 23.6784 2.25992Z"
      fill="#5577F2" />
<path d="M13.6325 4.59553C13.447 4.44612 13.2226 4.37256 13.0005 4.37256C12.7784 4.37256 12.554 4.44612 12.3685 4.59553L7.95812 8.12399C7.69707 8.33316 7.53906 8.66647 7.53906 9.01357V14.5074C7.53906 15.1211 8.01079 15.6199 8.58784 15.6199H17.4109C17.9902 15.6199 18.4597 15.1211 18.4597 14.5074V9.01357C18.4597 8.66647 18.304 8.33316 18.0406 8.12399L13.6325 4.59553Z"
      fill="#EE6C4D" />
<path d="M19.0998 17.6354C19.0518 17.509 18.9304 17.3757 18.7312 17.3757H12.9995H7.26785C7.06862 17.3757 6.94726 17.509 6.89917 17.6354C6.85108 17.7596 6.85337 17.9411 6.99763 18.0791C8.59829 19.61 11.2844 21.4903 12.2186 21.9799C12.4682 22.1109 12.7362 22.1891 12.9995 22.196C13.2628 22.1868 13.5308 22.1086 13.7804 21.9799C14.7147 21.4903 17.403 19.61 19.0014 18.0791C19.1456 17.9411 19.1456 17.7596 19.0998 17.6354Z"
      fill="#6ECB63" />
<path d="M37.0219 22.2412H40.6614V9.98519H44.1764V6.6879H40.6614V5.66138C40.6614 4.23048 41.5324 3.45282 42.7144 3.45282C43.2743 3.45282 43.8342 3.63946 44.1764 3.85721V0.404385C43.6476 0.186638 42.9944 0.0933201 42.2167 0.0933201C38.7639 0.0933201 37.0219 2.27078 37.0219 5.91024V6.6879H35V9.98519H37.0219V22.2412Z"
      fill="white" />
<path d="M53.0204 22.6144C56.4421 22.6144 59.055 20.8725 60.206 18.2906L57.1575 16.953C56.2244 18.5395 55.1356 19.3171 53.3315 19.3171C50.8429 19.3171 49.0699 17.8551 48.9454 15.5533H60.6104C60.6726 15.18 60.7037 14.5578 60.7037 14.1535C60.7037 9.61191 57.8108 6.31462 53.0515 6.31462C48.4788 6.31462 45.3371 9.92298 45.3371 14.4645C45.3371 19.1305 48.2611 22.6144 53.0204 22.6144ZM48.9454 12.8159C49.101 10.9806 50.874 9.61191 53.0826 9.61191C55.2289 9.61191 56.9087 10.9184 57.0331 12.8159H48.9454Z"
      fill="white" />
<path d="M64.3811 22.2412H68.0205V0H64.3811V22.2412Z"
      fill="white" />
<path d="M72.7594 4.26159H76.7721V0.466597H72.7594V4.26159ZM72.946 22.2412H76.5855V6.6879H72.946V22.2412Z"
      fill="white" />
<path d="M79.181 22.2412H83.2248L86.6776 16.8286L90.1304 22.2412H94.2054L88.6995 14.0601L93.7388 6.6879H89.695L86.6776 11.3228L83.6603 6.6879H79.6476L84.6246 14.0601L79.181 22.2412Z"
      fill="white" />
</svg>