<svg width="27"
     height="24"
     viewBox="0 0 27 24"
     fill="none"
     xmlns="http://www.w3.org/2000/svg">
<path d="M11.9857 3.59654C12.2033 3.42321 12.3263 3.16201 12.3192 2.88182C12.3121 2.60875 12.1844 2.35706 11.9644 2.19797C10.2305 0.934738 6.68237 -0.66092 2.39854 2.86045C-0.567735 5.2943 -0.820838 10.5206 1.85212 14.0443C2.40327 14.7709 3.25956 15.6447 4.39498 16.642C4.6812 16.8937 5.07623 16.9507 5.42395 16.7916C5.7764 16.6325 5.99402 16.2929 5.99402 15.9059V9.83671C5.99402 8.9154 6.40088 8.06296 7.10815 7.49783L11.9857 3.59654Z"
      fill="#FFCD59" />
<path d="M24.4591 2.86103C22.5147 1.263 20.724 0.719238 19.1841 0.719238C17.3296 0.719238 15.8417 1.50757 14.8932 2.19855C14.6732 2.36001 14.5431 2.60933 14.5384 2.8824C14.5313 3.16259 14.6543 3.42141 14.8719 3.59712L19.7495 7.49841C20.4567 8.06354 20.8636 8.91598 20.8636 9.83728V15.9089C20.8636 16.2935 21.0812 16.6331 21.4337 16.7945C21.7814 16.9536 22.1764 16.8966 22.4626 16.6449C23.5981 15.6477 24.4543 14.7739 25.0055 14.0473C27.6785 10.5211 27.4253 5.29488 24.4591 2.86103Z"
      fill="#5577F2" />
<path d="M14.0825 5.27305C13.8909 5.11871 13.6591 5.04272 13.4297 5.04272C13.2002 5.04272 12.9684 5.11871 12.7768 5.27305L8.22096 8.91789C7.9513 9.13397 7.78809 9.47827 7.78809 9.83682V15.5119C7.78809 16.1458 8.27537 16.6611 8.87146 16.6611H17.9855C18.584 16.6611 19.0689 16.1458 19.0689 15.5119V9.83682C19.0689 9.47827 18.9081 9.13397 18.636 8.91789L14.0825 5.27305Z"
      fill="#EE6C4D" />
<path d="M19.7298 18.7437C19.6801 18.6131 19.5547 18.4753 19.3489 18.4753H13.4282H7.50749C7.3017 18.4753 7.17633 18.6131 7.12666 18.7437C7.07698 18.8719 7.07935 19.0595 7.22837 19.2019C8.88182 20.7833 11.6565 22.7257 12.6216 23.2314C12.8794 23.3668 13.1562 23.4475 13.4282 23.4546C13.7002 23.4452 13.977 23.3644 14.2348 23.2314C15.1999 22.7257 17.977 20.7833 19.6281 19.2019C19.7771 19.0595 19.7771 18.8719 19.7298 18.7437Z"
      fill="#6ECB63" />
</svg>