<svg width="40" height="40" viewBox="0 0 40 40" fill="none" xmlns="http://www.w3.org/2000/svg">
<path d="M17.8508 7.28638C18.1749 7.02822 18.3581 6.63921 18.3475 6.22191C18.337 5.81523 18.1467 5.44036 17.8191 5.20342C15.2368 3.32204 9.95232 0.945565 3.57224 6.19009C-0.845551 9.81492 -1.22251 17.5986 2.75844 22.8467C3.57929 23.9288 4.8546 25.2302 6.54562 26.7155C6.9719 27.0904 7.56023 27.1752 8.07811 26.9383C8.60303 26.7014 8.92714 26.1957 8.92714 25.6192V16.5801C8.92714 15.208 9.53309 13.9384 10.5865 13.0967L17.8508 7.28638Z" fill="#FFBD24"/>
<path d="M36.4276 6.18986C33.5317 3.80984 30.8648 3 28.5714 3C25.8094 3 23.5934 4.17409 22.1807 5.20319C21.8531 5.44367 21.6593 5.815 21.6523 6.22168C21.6417 6.63898 21.8249 7.02445 22.149 7.28615L29.4134 13.0965C30.4667 13.9382 31.0727 15.2077 31.0727 16.5799V25.6225C31.0727 26.1954 31.3968 26.7011 31.9217 26.9416C32.4396 27.1785 33.0279 27.0937 33.4542 26.7188C35.1452 25.2335 36.4205 23.9321 37.2414 22.85C41.2223 17.5984 40.8454 9.81469 36.4276 6.18986Z" fill="#4C88F8"/>
<path d="M20.9713 9.78639C20.6859 9.55653 20.3407 9.44336 19.9989 9.44336C19.6572 9.44336 19.312 9.55653 19.0266 9.78639L12.2414 15.2148C11.8398 15.5366 11.5967 16.0494 11.5967 16.5834V25.0355C11.5967 25.9797 12.3224 26.7471 13.2102 26.7471H26.7842C27.6755 26.7471 28.3977 25.9797 28.3977 25.0355V16.5834C28.3977 16.0494 28.1581 15.5366 27.753 15.2148L20.9713 9.78639Z" fill="#F0695A"/>
<path d="M29.3848 29.841C29.3108 29.6465 29.1241 29.4414 28.8176 29.4414H19.9996H11.1817C10.8752 29.4414 10.6885 29.6465 10.6145 29.841C10.5405 30.032 10.544 30.3114 10.766 30.5236C13.2285 32.8788 17.361 35.7716 18.7983 36.5249C19.1823 36.7264 19.5945 36.8467 19.9996 36.8573C20.4048 36.8431 20.817 36.7229 21.201 36.5249C22.6383 35.7716 26.7743 32.8788 29.2333 30.5236C29.4553 30.3114 29.4553 30.032 29.3848 29.841Z" fill="#39C2AA"/>
</svg>
