<svg width="85" height="16" viewBox="0 0 85 16" fill="none" xmlns="http://www.w3.org/2000/svg">
<path d="M11.1722 10.1481L11.1886 10.1312L16.0345 6.51863H10.0262L8.17619 0.677734L6.32621 6.51863H0.317871L5.16384 10.1312L5.18021 10.1481L3.33023 15.9721L8.17619 12.3764L13.0222 15.9721L11.1722 10.1481Z" fill="#E5712B"/>
<path d="M28.1985 10.1481L28.2149 10.1312L33.0609 6.51863H27.0525L25.2026 0.677734L23.3526 6.51863H17.3442L22.1902 10.1312L22.2066 10.1481L20.3566 15.9721L25.2026 12.3764L30.0485 15.9721L28.1985 10.1481Z" fill="#E5712B"/>
<path d="M45.2249 10.1481L45.2413 10.1312L50.0873 6.51863H44.0789L42.2289 0.677734L40.3789 6.51863H34.3706L39.2166 10.1312L39.2329 10.1481L37.383 15.9721L42.2289 12.3764L47.0749 15.9721L45.2249 10.1481Z" fill="#E5712B"/>
<path d="M62.2513 10.1481L62.2676 10.1312L67.1136 6.51863H61.1053L59.2553 0.677734L57.4053 6.51863H51.397L56.2429 10.1312L56.2593 10.1481L54.4093 15.9721L59.2553 12.3764L64.1012 15.9721L62.2513 10.1481Z" fill="#E5712B"/>
<path d="M79.2776 10.1481L79.294 10.1312L84.14 6.51863H78.1316L76.2816 0.677734L74.4317 6.51863H68.4233L73.2693 10.1312L73.2857 10.1481L71.4357 15.9721L76.2816 12.3764L81.1276 15.9721L79.2776 10.1481Z" fill="#E5712B"/>
</svg>
