<svg width="138" height="34" viewBox="0 0 138 34" fill="none" xmlns="http://www.w3.org/2000/svg">
<g clip-path="url(#clip0_26026_45988)">
<path d="M36.0356 11.9189H49.8958V14.4991H44.4385V29.0444H41.4472V14.4991H36.0127L36.0356 11.9189ZM49.3021 16.6456H51.8595V19.0431H51.9052C51.9965 18.7006 52.1563 18.3809 52.3847 18.0612C52.613 17.7416 52.887 17.4448 53.2296 17.1936C53.5492 16.9195 53.9145 16.7141 54.3256 16.5542C54.7137 16.3944 55.1248 16.303 55.5358 16.303C55.8555 16.303 56.0838 16.3259 56.198 16.3259C56.3121 16.3487 56.4492 16.3715 56.5633 16.3715V18.9974C56.3807 18.9518 56.1751 18.9289 55.9697 18.906C55.7641 18.8833 55.5814 18.8604 55.3759 18.8604C54.9193 18.8604 54.4854 18.9518 54.0744 19.1345C53.6634 19.3171 53.3209 19.5911 53.0013 19.9337C52.7043 20.299 52.4532 20.7328 52.2706 21.258C52.0879 21.7832 51.9965 22.3997 51.9965 23.0848V28.9759H49.2564L49.3021 16.6456ZM69.122 29.0444H66.4275V27.309H66.3819C66.0394 27.9484 65.5371 28.4279 64.8749 28.816C64.2127 29.2042 63.5277 29.3869 62.8426 29.3869C61.2214 29.3869 60.0341 28.9987 59.3034 28.1767C58.5727 27.3775 58.2074 26.1444 58.2074 24.5233V16.6456H60.9475V24.2493C60.9475 25.3453 61.1529 26.1217 61.5868 26.5555C61.9978 27.0122 62.5915 27.2405 63.345 27.2405C63.9159 27.2405 64.3954 27.1492 64.7836 26.9665C65.1717 26.7839 65.4914 26.5555 65.7197 26.2586C65.9709 25.9618 66.1307 25.5964 66.2449 25.1854C66.3591 24.7744 66.4048 24.3177 66.4048 23.8382V16.6456H69.1449V29.0444H69.122ZM73.7801 25.0713C73.8715 25.8705 74.1683 26.4185 74.6935 26.761C75.2187 27.0807 75.858 27.2405 76.5887 27.2405C76.8399 27.2405 77.1367 27.2177 77.4564 27.172C77.7761 27.1263 78.0957 27.0578 78.3698 26.9436C78.6666 26.8295 78.8949 26.6697 79.0776 26.4413C79.2603 26.213 79.3517 25.939 79.3288 25.5964C79.3059 25.254 79.1918 24.9571 78.9406 24.7288C78.6895 24.5004 78.3926 24.3406 78.0272 24.1808C77.6619 24.0438 77.2281 23.9296 76.7486 23.8382C76.269 23.7469 75.7895 23.6328 75.2872 23.5186C74.7849 23.4044 74.2825 23.2674 73.803 23.1075C73.3235 22.9477 72.9125 22.7422 72.5243 22.4453C72.1589 22.1714 71.8392 21.8288 71.6338 21.3951C71.4055 20.9612 71.2912 20.4588 71.2912 19.8194C71.2912 19.1345 71.4511 18.5864 71.7936 18.1297C72.1133 17.6731 72.5471 17.3077 73.0494 17.0337C73.5518 16.7597 74.1227 16.5542 74.7392 16.44C75.3556 16.3259 75.9494 16.2802 76.4974 16.2802C77.1367 16.2802 77.7533 16.3487 78.3242 16.4857C78.8949 16.6227 79.443 16.8282 79.8997 17.1478C80.3792 17.4448 80.7673 17.8558 81.0641 18.3353C81.3838 18.8148 81.5665 19.4084 81.6579 20.0935H78.8036C78.6666 19.4313 78.3698 18.9974 77.9131 18.7691C77.4336 18.5408 76.9084 18.4265 76.2919 18.4265C76.1092 18.4265 75.858 18.4494 75.6068 18.4723C75.3329 18.5179 75.1046 18.5636 74.8534 18.655C74.6249 18.7462 74.4195 18.8833 74.2596 19.0431C74.0998 19.203 74.0085 19.4313 74.0085 19.7053C74.0085 20.0478 74.1227 20.299 74.351 20.5045C74.5793 20.71 74.8761 20.8698 75.2644 21.0297C75.6297 21.1666 76.0636 21.2808 76.5431 21.3722C77.0226 21.4635 77.5249 21.5777 78.0272 21.6919C78.5296 21.806 79.0091 21.943 79.4886 22.1029C79.9681 22.2627 80.402 22.4682 80.7673 22.765C81.1327 23.039 81.4524 23.3816 81.6807 23.7926C81.9091 24.2036 82.0232 24.7288 82.0232 25.3225C82.0232 26.0532 81.8633 26.6697 81.5209 27.1948C81.1784 27.6972 80.7445 28.1311 80.2193 28.4507C79.6941 28.7704 79.0776 28.9987 78.4383 29.1586C77.7761 29.2955 77.1367 29.3869 76.4974 29.3869C75.721 29.3869 74.9903 29.2955 74.3281 29.1128C73.6659 28.9302 73.0723 28.6562 72.5928 28.3137C72.1133 27.9484 71.7251 27.5145 71.4511 26.9665C71.177 26.4413 71.0172 25.802 70.9944 25.0484H73.7573V25.0713H73.7801ZM82.7996 16.6456H84.8775V12.9007H87.6176V16.6227H90.0836V18.655H87.6176V25.2768C87.6176 25.5737 87.6404 25.802 87.6632 26.0303C87.686 26.2358 87.7545 26.4185 87.823 26.5555C87.9144 26.6925 88.0513 26.8066 88.2112 26.8751C88.3939 26.9436 88.6222 26.9893 88.9419 26.9893C89.1246 26.9893 89.3301 26.9893 89.5127 26.9665C89.6954 26.9437 89.9009 26.9209 90.0836 26.8751V28.9987C89.7868 29.0444 89.49 29.0672 89.1931 29.0901C88.8962 29.1357 88.6222 29.1357 88.3025 29.1357C87.5718 29.1357 87.0011 29.0672 86.5672 28.9302C86.1333 28.7932 85.7909 28.5877 85.5397 28.3365C85.2885 28.0626 85.1287 27.7429 85.0373 27.3546C84.946 26.9665 84.9003 26.487 84.8775 25.9846V18.6777H82.7996V16.5999V16.6456ZM92.0016 16.6456H94.5819V18.3353H94.6276C95.0158 17.6046 95.5409 17.1022 96.226 16.7825C96.9109 16.4629 97.6417 16.303 98.4637 16.303C99.4456 16.303 100.29 16.4629 101.021 16.8282C101.752 17.1707 102.345 17.6274 102.825 18.2439C103.305 18.8376 103.67 19.5455 103.898 20.3447C104.127 21.1439 104.264 22.0115 104.264 22.9021C104.264 23.7469 104.15 24.5461 103.944 25.3225C103.716 26.0988 103.395 26.8066 102.962 27.4004C102.528 27.994 101.98 28.4735 101.295 28.8389C100.61 29.2042 99.8337 29.3869 98.9203 29.3869C98.5322 29.3869 98.1212 29.3413 97.733 29.2728C97.3448 29.2042 96.9567 29.0901 96.5913 28.9302C96.226 28.7704 95.8834 28.5648 95.5866 28.3137C95.267 28.0626 95.0158 27.7657 94.8102 27.446H94.7646V33.634H92.0245V16.6456H92.0016ZM101.569 22.8563C101.569 22.3084 101.501 21.7604 101.341 21.2352C101.204 20.71 100.975 20.2533 100.679 19.8423C100.382 19.4313 100.016 19.1116 99.6054 18.8604C99.1715 18.6092 98.6692 18.4951 98.1212 18.4951C96.9794 18.4951 96.1118 18.8833 95.5181 19.6825C94.9473 20.4817 94.6504 21.5549 94.6504 22.8792C94.6504 23.5186 94.7189 24.0894 94.8787 24.6145C95.0385 25.1398 95.2441 25.5964 95.5638 25.9846C95.8606 26.3729 96.226 26.6697 96.6598 26.898C97.0937 27.1263 97.5732 27.2405 98.144 27.2405C98.7834 27.2405 99.2857 27.1036 99.7195 26.8524C100.153 26.6012 100.496 26.2586 100.793 25.8705C101.067 25.4595 101.272 25.0028 101.386 24.4776C101.501 23.9296 101.569 23.4044 101.569 22.8563ZM106.387 11.9189H109.127V14.4991H106.387V11.9189ZM106.387 16.6456H109.127V29.0444H106.387V16.6456ZM111.571 11.9189H114.31V29.0444H111.571V11.9189ZM122.667 29.3869C121.685 29.3869 120.795 29.2271 120.019 28.8845C119.243 28.5421 118.604 28.1082 118.056 27.5373C117.53 26.9665 117.119 26.2586 116.845 25.4595C116.571 24.6603 116.411 23.7697 116.411 22.8336C116.411 21.8973 116.548 21.0297 116.845 20.2305C117.119 19.4313 117.53 18.7462 118.056 18.1526C118.58 17.5817 119.243 17.1251 120.019 16.8054C120.795 16.4857 121.685 16.303 122.667 16.303C123.649 16.303 124.54 16.4629 125.316 16.8054C126.093 17.1251 126.732 17.5817 127.28 18.1526C127.805 18.7235 128.216 19.4313 128.491 20.2305C128.765 21.0297 128.924 21.8973 128.924 22.8336C128.924 23.7926 128.787 24.6603 128.491 25.4595C128.194 26.2586 127.805 26.9436 127.28 27.5373C126.755 28.1082 126.093 28.5648 125.316 28.8845C124.54 29.2042 123.673 29.3869 122.667 29.3869ZM122.667 27.2177C123.262 27.2177 123.81 27.0807 124.244 26.8295C124.7 26.5783 125.042 26.2358 125.339 25.8248C125.637 25.4138 125.842 24.9342 125.979 24.432C126.116 23.9067 126.184 23.3816 126.184 22.8336C126.184 22.3083 126.116 21.7832 125.979 21.258C125.842 20.7328 125.637 20.2761 125.339 19.8652C125.042 19.4541 124.677 19.1345 124.244 18.8833C123.786 18.6321 123.262 18.4951 122.667 18.4951C122.074 18.4951 121.526 18.6321 121.092 18.8833C120.636 19.1345 120.293 19.4769 119.996 19.8652C119.699 20.2761 119.494 20.7328 119.357 21.258C119.22 21.7832 119.151 22.3083 119.151 22.8336C119.151 23.3816 119.22 23.9067 119.357 24.432C119.494 24.9571 119.699 25.4138 119.996 25.8248C120.293 26.2358 120.658 26.5783 121.092 26.8295C121.548 27.1036 122.074 27.2177 122.667 27.2177ZM129.746 16.6456H131.825V12.9007H134.564V16.6227H137.031V18.655H134.564V25.2768C134.564 25.5737 134.587 25.802 134.609 26.0303C134.633 26.2358 134.701 26.4185 134.77 26.5555C134.861 26.6925 134.998 26.8066 135.158 26.8751C135.341 26.9436 135.569 26.9893 135.888 26.9893C136.072 26.9893 136.277 26.9893 136.46 26.9665C136.642 26.9437 136.847 26.9209 137.031 26.8751V28.9987C136.733 29.0444 136.436 29.0672 136.139 29.0901C135.843 29.1357 135.569 29.1357 135.249 29.1357C134.519 29.1357 133.948 29.0672 133.514 28.9302C133.08 28.7932 132.737 28.5877 132.486 28.3365C132.235 28.0626 132.075 27.7429 131.984 27.3546C131.893 26.9665 131.847 26.487 131.825 25.9846V18.6777H129.746V16.5999V16.6456Z" fill="black"/>
<path d="M32.8389 11.9194H20.3029L16.4441 0L12.5623 11.9194L0.0263672 11.8965L10.1647 19.2719L6.28288 31.1912L16.4212 23.8159L26.5595 31.1912L22.7006 19.2719L32.8389 11.9194Z" fill="#00B67A"/>
<path d="M23.5666 21.9662L22.6989 19.2717L16.4424 23.8158L23.5666 21.9662Z" fill="#005128"/>
</g>
<defs>
<clipPath id="clip0_26026_45988">
<rect width="137.03" height="34" fill="white"/>
</clipPath>
</defs>
</svg>
