<svg width="52" height="52" viewBox="0 0 52 52" fill="none" xmlns="http://www.w3.org/2000/svg">
<g clip-path="url(#clip0)">
<path d="M20.8272 21.3516C19.8947 21.3516 19.1362 22.1101 19.1362 23.0425C19.1362 23.9749 19.8948 24.7334 20.8272 24.7334C21.7595 24.7334 22.518 23.9749 22.518 23.0425C22.518 22.1101 21.7595 21.3516 20.8272 21.3516ZM20.8272 23.6761C20.4778 23.6761 20.1936 23.3918 20.1936 23.0425C20.1936 22.6931 20.4778 22.4089 20.8272 22.4089C21.1765 22.4089 21.4607 22.6931 21.4607 23.0425C21.4607 23.3918 21.1765 23.6761 20.8272 23.6761Z" fill="#6A7FA4"/>
<path d="M39.8896 30.5907C39.8896 30.4871 39.8603 30.3839 39.8002 30.2949L37.0359 26.1995V16.7326H37.4203C37.5952 16.7326 37.7586 16.6461 37.8572 16.5016C37.9556 16.3571 37.9763 16.1733 37.9124 16.0105L36.7906 13.1556C36.711 12.9534 36.5159 12.8203 36.2985 12.8203H25.7193C25.5019 12.8203 25.3067 12.9534 25.2272 13.1557L24.1054 16.0105C24.0415 16.1733 24.0622 16.3571 24.1606 16.5016C24.2591 16.6461 24.4226 16.7326 24.5975 16.7326H24.9819V18.5463L21.8171 16.0212C21.2347 15.5566 20.4212 15.5565 19.8387 16.0212L13.0212 21.4606C12.9036 21.5544 12.8315 21.694 12.8231 21.8442C12.8147 21.9945 12.8707 22.1412 12.9771 22.2477L14.378 23.6486V28.9903C14.378 29.2823 14.6147 29.519 14.9067 29.519C15.1986 29.519 15.4354 29.2823 15.4354 28.9903V23.5925L20.8279 19.29L26.2205 23.5925V38.8314H23.4713V32.3815C23.4713 32.0895 23.2346 31.8528 22.9426 31.8528H18.7132C18.4212 31.8528 18.1845 32.0895 18.1845 32.3815V38.8314H15.4354V33.7484C15.4354 33.4564 15.1986 33.2197 14.9067 33.2197C14.6147 33.2197 14.378 33.4564 14.378 33.7484V39.3601C14.378 39.6521 14.6147 39.8888 14.9067 39.8888H39.3621C39.654 39.8888 39.8907 39.6521 39.8907 39.3601V30.5907H39.8896ZM28.8327 21.8443C28.8243 21.694 28.7523 21.5544 28.6346 21.4606L28.154 21.0772V19.8138H29.4228V21.9285H28.83C28.8329 21.9006 28.8343 21.8726 28.8327 21.8443ZM27.2778 26.8899H36.2262L38.3674 30.062H27.2778V26.8899ZM26.0796 13.8777H35.9382L36.6445 15.6752H25.3733L26.0796 13.8777ZM26.0393 16.7326H35.9785V25.8259H27.2778V23.6486L27.9405 22.9859H29.9515C30.2435 22.9859 30.4802 22.7492 30.4802 22.4572V19.2851C30.4802 18.9931 30.2435 18.7564 29.9515 18.7564H27.6253C27.3334 18.7564 27.0966 18.9931 27.0966 19.2851V20.2335L26.0393 19.3899V16.7326ZM20.8279 18.0849C20.7113 18.0849 20.5947 18.1234 20.4982 18.2003L14.8954 22.6706L14.143 21.9182L20.4982 16.8478C20.6923 16.6928 20.9635 16.6929 21.1577 16.8478L27.5129 21.9183L26.7605 22.6707L21.1577 18.2004C21.0612 18.1234 20.9445 18.0849 20.8279 18.0849ZM19.2419 38.8314V32.9102H22.414V38.8314H19.2419ZM27.2778 38.8314V31.1194H38.8334V38.8314H27.2778Z" fill="#6A7FA4"/>
<path d="M16.4922 26.3451V29.7286C16.4922 30.0206 16.7289 30.2573 17.0209 30.2573H19.5585C19.8505 30.2573 20.0872 30.0206 20.0872 29.7286V26.3451C20.0872 26.0531 19.8505 25.8164 19.5585 25.8164H17.0209C16.7289 25.8164 16.4922 26.0531 16.4922 26.3451ZM17.5496 26.8738H19.0299V29.2H17.5496V26.8738Z" fill="#6A7FA4"/>
<path d="M21.4619 26.3451V29.7286C21.4619 30.0206 21.6987 30.2573 21.9906 30.2573H24.5283C24.8202 30.2573 25.0569 30.0206 25.0569 29.7286V26.3451C25.0569 26.0531 24.8202 25.8164 24.5283 25.8164H21.9906C21.6986 25.8164 21.4619 26.0531 21.4619 26.3451ZM22.5193 26.8738H23.9996V29.2H22.5193V26.8738Z" fill="#6A7FA4"/>
<path d="M31.8383 32.5938H29.3007C29.0087 32.5938 28.772 32.8304 28.772 33.1224V36.506C28.772 36.798 29.0087 37.0347 29.3007 37.0347H31.8383C32.1303 37.0347 32.367 36.798 32.367 36.506V33.1224C32.367 32.8304 32.1303 32.5938 31.8383 32.5938ZM31.3096 35.9773H29.8293V33.6511H31.3096V35.9773Z" fill="#6A7FA4"/>
<path d="M36.8081 32.5938H34.2704C33.9784 32.5938 33.7417 32.8304 33.7417 33.1224V36.506C33.7417 36.798 33.9784 37.0347 34.2704 37.0347H36.8081C37.1 37.0347 37.3367 36.798 37.3367 36.506V33.1224C37.3367 32.8304 37.1 32.5938 36.8081 32.5938ZM36.2794 35.9773H34.7991V33.6511H36.2794V35.9773Z" fill="#6A7FA4"/>
<path d="M32.0658 22.9873H34.392C34.6839 22.9873 34.9207 22.7506 34.9207 22.4586V19.2865C34.9207 18.9945 34.6839 18.7578 34.392 18.7578H32.0658C31.7739 18.7578 31.5371 18.9945 31.5371 19.2865V22.4586C31.5371 22.7506 31.7739 22.9873 32.0658 22.9873ZM32.5945 19.8152H33.8633V21.9299H32.5945V19.8152Z" fill="#6A7FA4"/>
<path d="M14.9061 31.8972C15.1981 31.8972 15.4348 31.6605 15.4348 31.3685C15.4348 31.0765 15.1981 30.8398 14.9061 30.8398C14.6141 30.8398 14.3774 31.0765 14.3774 31.3685C14.3774 31.6605 14.6141 31.8972 14.9061 31.8972Z" fill="#6A7FA4"/>
</g>
<defs>
<clipPath id="clip0">
<rect width="27.0685" height="27.0685" fill="white" transform="translate(12.8218 12.8203)"/>
</clipPath>
</defs>
</svg>
