<svg width="30" height="30" viewBox="0 0 30 30" fill="none" xmlns="http://www.w3.org/2000/svg">
<circle cx="15" cy="15" r="14.5" stroke="#E5712B"/>
<g clip-path="url(#clip0)">
<path d="M19.749 8.82261C19.5978 7.97211 19.4023 7.19688 19.4004 7.18915C19.378 7.10069 19.3092 7.0314 19.221 7.00822C19.1326 6.98501 19.0388 7.01178 18.9759 7.07785C18.9034 7.15399 17.1966 8.95147 16.8465 9.6749C16.5222 10.3451 16.6933 11.1287 17.2144 11.6091L17.0516 12.271C17.0512 12.2724 17.0506 12.2738 17.0501 12.2753L16.3217 14.8009H14.2839L13.455 10.2641C13.4547 10.2625 13.4542 10.261 13.4539 10.2594C13.4529 10.2545 13.4517 10.2495 13.4504 10.2446C13.4495 10.2411 13.4485 10.2376 13.4474 10.2341C13.4461 10.23 13.4447 10.226 13.4432 10.2221C13.4417 10.2178 13.4399 10.2135 13.4382 10.2094C13.4368 10.2063 13.4354 10.2033 13.4339 10.2002C13.4316 10.1954 13.4291 10.1907 13.4265 10.1861C13.4258 10.1848 13.4252 10.1834 13.4245 10.1821L12.0085 7.77505C11.9552 7.6844 11.851 7.63663 11.7475 7.65562C11.6441 7.67454 11.5634 7.75602 11.5456 7.85965L11.0722 10.6119C11.072 10.6135 11.0719 10.6152 11.0716 10.6168C11.0709 10.6217 11.0703 10.6266 11.0699 10.6316C11.0696 10.6354 11.0693 10.6391 11.0691 10.6428C11.0689 10.647 11.0688 10.6511 11.0689 10.6553C11.0689 10.6599 11.069 10.6646 11.0693 10.6692C11.0695 10.6725 11.0697 10.6757 11.0701 10.679C11.0706 10.6844 11.0713 10.6898 11.0721 10.6951C11.0724 10.6966 11.0724 10.698 11.0727 10.6994L11.8221 14.801H11.4588C11.3204 14.801 11.2082 14.9132 11.2082 15.0516V17.0369C11.2082 17.1753 11.3204 17.2875 11.4588 17.2875C11.5972 17.2875 11.7093 17.1753 11.7093 17.0369V15.3021H12.1212C12.1215 15.3021 12.1219 15.3022 12.1223 15.3022C12.1226 15.3022 12.123 15.3021 12.1233 15.3021H16.5093C16.5096 15.3021 16.5099 15.3022 16.5102 15.3022C16.5105 15.3022 16.5107 15.3021 16.511 15.3021H17.8319C17.8325 15.3021 17.8331 15.3021 17.8336 15.3021H18.3349V16.1535H12.6616C12.5232 16.1535 12.411 16.2657 12.411 16.4041C12.411 16.5425 12.5232 16.6547 12.6616 16.6547H18.3349V22.5468C18.3349 23.0718 17.9078 23.4989 17.3828 23.4989H12.6615C12.1365 23.4989 11.7094 23.0718 11.7094 22.5468V18.1779C11.7094 18.0395 11.5972 17.9273 11.4588 17.9273C11.3204 17.9273 11.2082 18.0395 11.2082 18.1779V22.5468C11.2082 23.3481 11.8602 24 12.6615 24H17.3828C18.1841 24 18.8361 23.3481 18.8361 22.5468V15.0515C18.8361 14.9131 18.7239 14.8009 18.5855 14.8009H18.1395L18.578 12.6562L18.7407 11.995C18.786 11.9834 18.8311 11.9698 18.8758 11.9543C19.2924 11.8094 19.6278 11.5109 19.8199 11.1138C19.9255 10.8956 20.0331 10.4206 19.749 8.82261ZM11.9235 8.61887L12.2343 9.14717L11.8196 9.2229L11.9235 8.61887ZM11.7292 9.74888L12.5049 9.60716L12.8107 10.1271L11.6269 10.3434L11.7292 9.74888ZM12.3316 14.801L11.6108 10.8558L13.0071 10.6007L13.7745 14.801H12.3316V14.801ZM17.628 14.801H16.8432L17.4649 12.6457L17.889 12.75L18.0398 12.7871L17.628 14.801ZM18.15 12.2982L17.5947 12.1615L17.6587 11.9013C17.8365 11.981 18.0236 12.0281 18.213 12.042L18.15 12.2982ZM19.3688 10.8955C19.2349 11.1721 19.0014 11.38 18.7112 11.481C18.6411 11.5054 18.5697 11.5227 18.4978 11.5332C18.4963 11.5334 18.4948 11.5337 18.4933 11.5339C18.2691 11.5659 18.0405 11.5308 17.8321 11.43C17.7655 11.3978 17.7031 11.3597 17.645 11.3165C17.6449 11.3165 17.6448 11.3164 17.6448 11.3164C17.4616 11.1802 17.3232 10.9927 17.2466 10.7723C17.1457 10.4821 17.1638 10.1699 17.2976 9.89331C17.5141 9.44576 18.4375 8.39738 19.0227 7.7619C19.2991 8.96854 19.5502 10.5207 19.3688 10.8955Z" fill="#E5712B"/>
<path d="M17.422 17.457C17.2836 17.457 17.1714 17.5692 17.1714 17.7076V19.172C17.1714 19.4759 16.9241 19.7231 16.6202 19.7231C16.3163 19.7231 16.0691 19.4759 16.0691 19.172V18.2661C16.0691 17.8199 15.7061 17.457 15.26 17.457C14.814 17.457 14.451 17.82 14.451 18.2661V20.2597C14.451 20.5881 14.1838 20.8553 13.8553 20.8553C13.5269 20.8553 13.2597 20.5881 13.2597 20.2597V18.8415C13.2597 18.7031 13.1475 18.5909 13.0091 18.5909C12.8707 18.5909 12.7585 18.7031 12.7585 18.8415V20.2597C12.7585 20.8644 13.2505 21.3564 13.8553 21.3564C14.4601 21.3564 14.9521 20.8644 14.9521 20.2597V18.2661C14.9521 18.0963 15.0902 17.9582 15.26 17.9582C15.4298 17.9582 15.5679 18.0963 15.5679 18.2661V19.172C15.5679 19.7522 16.04 20.2243 16.6202 20.2243C17.2005 20.2243 17.6725 19.7522 17.6725 19.172V17.7076C17.6725 17.5692 17.5603 17.457 17.422 17.457Z" fill="#E5712B"/>
</g>
<defs>
<clipPath id="clip0">
<rect width="17" height="17" fill="white" transform="translate(7 7)"/>
</clipPath>
</defs>
</svg>
