<svg width="73" height="73" viewBox="0 0 73 73" fill="none" xmlns="http://www.w3.org/2000/svg">
<path d="M54.0117 41.5666C53.8802 41.4349 53.6976 41.3594 53.5116 41.3594C53.3256 41.3594 53.143 41.435 53.0115 41.5666C52.8799 41.6983 52.8042 41.8807 52.8042 42.0668C52.8042 42.2528 52.8798 42.4353 53.0115 42.5668C53.143 42.6984 53.3256 42.7742 53.5116 42.7742C53.6976 42.7742 53.8802 42.6985 54.0117 42.5668C54.1433 42.4353 54.219 42.2528 54.219 42.0668C54.219 41.8807 54.1433 41.6981 54.0117 41.5666Z" fill="#6A7FA4"/>
<path d="M53.5115 44.2616C53.1209 44.2616 52.8041 44.5784 52.8041 44.969V49.8479C52.8041 51.0181 51.8521 51.9701 50.6819 51.9701H21.537C20.4144 51.9701 19.4932 51.0938 19.42 49.9894H28.776C29.1667 49.9894 29.4834 49.6726 29.4834 49.282C29.4834 48.8914 29.1667 48.5746 28.776 48.5746H19.4148V37.0919C20.052 37.5982 20.8572 37.9018 21.7325 37.9018H24.1155V39.0612C24.1155 40.6604 25.4167 41.9615 27.0159 41.9615H27.2212C28.8204 41.9615 30.1215 40.6604 30.1215 39.0612V37.9018H42.0973V39.0612C42.0973 40.6604 43.3984 41.9615 44.9977 41.9615H45.2029C46.8022 41.9615 48.1033 40.6604 48.1033 39.0612V37.9018H50.4864C51.3616 37.9018 52.1668 37.5982 52.804 37.0919V39.3156C52.804 39.7063 53.1208 40.023 53.5114 40.023C53.9021 40.023 54.2188 39.7063 54.2188 39.3156V29.8992C54.2189 27.9488 52.6322 26.3621 50.6819 26.3621H44.1847V23.6776C44.1847 21.6497 42.535 20 40.5072 20H31.7118C29.6839 20 28.0342 21.6497 28.0342 23.6776V26.3621H21.537C19.5867 26.3621 18 27.9488 18 29.8992V49.8478C18 51.7982 19.5867 53.3848 21.537 53.3848H50.6819C52.6322 53.3848 54.2189 51.7982 54.2189 49.8478V44.969C54.2189 44.5784 53.9021 44.2616 53.5115 44.2616ZM28.7068 39.0611C28.7068 39.8802 28.0403 40.5467 27.2212 40.5467H27.016C26.1969 40.5467 25.5304 39.8802 25.5304 39.0611V36.478H28.7068V39.0611ZM46.6886 39.0611C46.6886 39.8802 46.0221 40.5467 45.203 40.5467H44.9977C44.1786 40.5467 43.5122 39.8802 43.5122 39.0611V36.478H46.6886V39.0611ZM29.449 23.6776C29.449 22.4299 30.4641 21.4148 31.7118 21.4148H40.5072C41.7549 21.4148 42.7699 22.4299 42.7699 23.6776V26.3621H41.3551V23.537C41.3551 23.1464 41.0383 22.8296 40.6477 22.8296H31.5712C31.1806 22.8296 30.8638 23.1464 30.8638 23.537V26.3622H29.449V23.6776ZM39.9404 24.2444V26.3622H32.2786V24.2444H39.9404ZM19.4148 29.8992C19.4148 28.729 20.3668 27.777 21.537 27.777H50.6819C51.8521 27.777 52.8041 28.729 52.8041 29.8992V34.1693C52.8041 35.4472 51.7644 36.487 50.4865 36.487H48.1034V35.9828C48.1034 35.4757 47.6908 35.0632 47.1837 35.0632H43.017C42.5099 35.0632 42.0974 35.4757 42.0974 35.9828V36.487H30.1216V35.9828C30.1216 35.4757 29.709 35.0632 29.202 35.0632H25.0352C24.5281 35.0632 24.1155 35.4757 24.1155 35.9828V36.487H21.7325C20.4545 36.487 19.4148 35.4473 19.4148 34.1694V29.8992Z" fill="#6A7FA4"/>
<path d="M31.5698 48.5742H31.5585C31.1678 48.5742 30.8511 48.891 30.8511 49.2816C30.8511 49.6722 31.1678 49.989 31.5585 49.989H31.5698C31.9604 49.989 32.2772 49.6722 32.2772 49.2816C32.2772 48.8909 31.9604 48.5742 31.5698 48.5742Z" fill="#6A7FA4"/>
</svg>
