<svg width="24" height="24" viewBox="0 0 24 24" fill="none" xmlns="http://www.w3.org/2000/svg">
<rect x="4.80176" y="19.1997" width="2.39909" height="4.8002" fill="#4F5F7A"/>
<rect x="16.7964" y="19.1997" width="2.39909" height="4.8002" fill="#4F5F7A"/>
<path d="M1 10.5991H23V10.847C23 15.5705 19.1709 19.3996 14.4474 19.3996H9.55259C4.82912 19.3996 1 15.5705 1 10.847V10.5991Z" stroke="#4F5F7A" stroke-width="2"/>
<rect x="3.59961" y="4.79932" width="2.39909" height="4.80027" fill="#4F5F7A"/>
<rect x="10.8018" y="4.79932" width="2.39909" height="1.202" fill="#4F5F7A"/>
<path d="M13.1986 4.80024C13.1986 4.16986 13.0745 3.54566 12.8333 2.96327C12.592 2.38087 12.2385 1.8517 11.7927 1.40596C11.347 0.960214 10.8179 0.606631 10.2355 0.365396C9.65315 0.124162 9.02898 -2.75546e-08 8.39863 0C7.76829 2.75546e-08 7.14411 0.124162 6.56175 0.365396C5.97939 0.606631 5.45024 0.960214 5.00452 1.40596C4.5588 1.8517 4.20523 2.38088 3.96401 2.96327C3.72279 3.54566 3.59863 4.16986 3.59863 4.80024L6.00156 4.80024C6.00156 4.48544 6.06356 4.17371 6.18403 3.88287C6.30449 3.59203 6.48106 3.32777 6.70365 3.10517C6.92623 2.88257 7.19049 2.70599 7.48131 2.58552C7.77214 2.46505 8.08384 2.40305 8.39863 2.40305C8.71342 2.40305 9.02512 2.46505 9.31595 2.58552C9.60678 2.70599 9.87103 2.88257 10.0936 3.10517C10.3162 3.32777 10.4928 3.59203 10.6132 3.88287C10.7337 4.17371 10.7957 4.48543 10.7957 4.80024H13.1986Z" fill="#4F5F7A"/>
</svg>
