<svg width="50" height="50" viewBox="0 0 50 50" fill="none" xmlns="http://www.w3.org/2000/svg">
<g clip-path="url(#clip0)">
<path d="M37.3218 33.4755C37.0731 33.371 36.7869 33.4876 36.6824 33.7362C35.9963 35.3669 34.41 36.4205 32.641 36.4205C30.5186 36.4205 28.744 34.9038 28.3434 32.8974C28.3438 32.8897 28.3446 32.8821 28.3446 32.8743C28.3446 32.6592 28.3164 32.4506 28.2639 32.2518C28.2605 32.181 28.2586 32.1097 28.2586 32.0381C28.2586 30.2051 29.39 28.6316 30.9909 27.9785L32.171 32.1704C32.2317 32.3858 32.4275 32.5265 32.6408 32.5265C32.6846 32.5265 32.7291 32.5206 32.7734 32.5081C33.0329 32.435 33.1841 32.1653 33.111 31.9058L31.9309 27.7135C32.1621 27.6757 32.3993 27.6557 32.641 27.6557C34.3847 27.6557 35.9622 28.6886 36.6597 30.2871C36.7676 30.5343 37.0553 30.6472 37.3025 30.5393C37.5497 30.4315 37.6626 30.1437 37.5548 29.8965C36.7019 27.9421 34.7731 26.6792 32.641 26.6792C32.3077 26.6792 31.9815 26.71 31.6649 26.7686L31.623 26.6199C31.4818 26.1181 31.3763 25.6075 31.3068 25.0922C31.3068 25.092 31.3068 25.0918 31.3068 25.0916C31.2665 24.7932 31.2381 24.4933 31.2222 24.1925C31.2667 24.4164 31.4642 24.5852 31.7012 24.5852H32.3683C33.292 24.5852 34.0434 23.8337 34.0434 22.9101C34.0434 21.9865 33.292 21.235 32.3683 21.235H30.9036L27.1589 17.9166C27.3531 17.973 27.5582 18.0039 27.7704 18.0039C28.982 18.0039 29.9676 17.0182 29.9676 15.8066C29.9676 14.5951 28.982 13.6094 27.7704 13.6094C26.5588 13.6094 25.5731 14.5951 25.5731 15.8066C25.5731 16.2195 25.6877 16.6059 25.8865 16.9362C25.5372 16.7771 25.155 16.6927 24.7595 16.6927C24.0326 16.6927 23.3493 16.9758 22.8353 17.4898L18.8371 21.4879C18.8361 21.489 18.8352 21.4902 18.8342 21.4913C18.8213 21.5044 18.8091 21.5183 18.7976 21.533C18.7963 21.5347 18.7949 21.5363 18.7936 21.538C18.7931 21.5386 18.7926 21.5391 18.7921 21.5398C18.5383 21.8774 18.3933 22.2819 18.3626 22.7181H17.403C17.1333 22.7181 16.9147 22.9368 16.9147 23.2064V23.8039C16.9147 24.8206 17.7418 25.6478 18.7586 25.6478H19.3375L19.0871 26.729C18.8489 26.6965 18.6058 26.6793 18.3589 26.6793C15.404 26.6791 13 29.0832 13 32.0381C13 33.8471 13.9012 35.4496 15.2782 36.4204H13.4883C13.2186 36.4204 13 36.6391 13 36.9087C13 37.1783 13.2186 37.397 13.4883 37.397H18.3589C21.0083 37.397 23.2145 35.4642 23.6425 32.9347C23.6723 33.1758 23.8775 33.3625 24.1266 33.3625H27.4479C27.7678 34.6164 28.5311 35.6948 29.5603 36.4204H26.4603C26.1906 36.4204 25.972 36.6391 25.972 36.9087C25.972 37.1783 26.1906 37.397 26.4603 37.397H32.6411C34.8041 37.397 36.7437 36.1087 37.5826 34.1149C37.6871 33.8664 37.5704 33.5801 37.3218 33.4755ZM31.2067 22.2115H32.3683C32.7534 22.2115 33.0668 22.5248 33.0668 22.91C33.0668 23.2951 32.7535 23.6085 32.3683 23.6085H31.7011C31.4485 23.6085 31.2407 23.8004 31.2154 24.0463C31.2096 23.8991 31.2067 23.7518 31.2067 23.6043V22.2115ZM30.2774 24.6711H25.3837C25.3054 24.5778 25.2234 24.4871 25.1365 24.4002L23.5976 22.8613L25.625 20.8339L30.2441 24.1798C30.2519 24.3438 30.263 24.5077 30.2774 24.6711ZM29.5569 25.6476L26.5649 28.358L26.2798 26.5864C26.2792 26.583 26.2786 26.5796 26.278 26.5762C26.219 26.2535 26.1226 25.9426 25.9922 25.6476H29.5569ZM27.7704 14.5858C28.4435 14.5858 28.9911 15.1334 28.9911 15.8065C28.9911 16.4796 28.4435 17.0272 27.7704 17.0272C27.0973 17.0272 26.5497 16.4796 26.5497 15.8065C26.5497 15.1334 27.0972 14.5858 27.7704 14.5858ZM23.5258 18.1803C23.8554 17.8507 24.2935 17.6692 24.7595 17.6692C25.2256 17.6692 25.6637 17.8507 25.9934 18.1803L30.2301 21.943V22.9638L25.8607 19.7988C25.7747 19.7366 25.6743 19.706 25.5744 19.706C25.4486 19.706 25.3235 19.7544 25.229 19.849L22.763 22.3151L21.1334 21.8652L20.1206 21.5855L23.5258 18.1803ZM18.7586 24.6711C18.2804 24.6711 17.8913 24.282 17.8913 23.8038V23.6946H18.4773C18.5859 24.0544 18.7627 24.3876 18.9912 24.6711H18.7586ZM18.3589 36.4204C15.9425 36.4204 13.9766 34.4546 13.9766 32.0381C13.9766 29.6216 15.9425 27.6557 18.3589 27.6557C18.5303 27.6557 18.6994 27.6659 18.8657 27.6852L17.8832 31.9279C17.8496 32.073 17.8841 32.2254 17.9767 32.342C18.0693 32.4585 18.21 32.5264 18.3589 32.5264H22.7139C22.4703 34.7138 20.6103 36.4204 18.3589 36.4204ZM18.9732 31.5498L19.8171 27.9054C21.3714 28.4555 22.5256 29.8589 22.7139 31.5498H18.9732ZM20.0386 26.949L20.3384 25.6544L22.6786 27.0058L23.4471 30.3558C22.9152 28.7509 21.6438 27.4802 20.0386 26.949ZM23.5829 26.5801C23.5526 26.4479 23.4686 26.3343 23.3512 26.2664L20.1901 24.4411C19.7868 24.2082 19.4721 23.7491 19.3688 23.2429C19.3067 22.9387 19.3252 22.6507 19.4194 22.405L20.8413 22.7976L22.653 23.2977L24.446 25.0908C24.8993 25.544 25.2002 26.1166 25.3165 26.7469L25.9097 30.433C25.9075 30.433 25.9054 30.4329 25.9032 30.4329H24.4667V30.4328L23.5829 26.5801ZM24.6149 32.386V31.4094H25.9032C26.5398 31.4094 27.0828 31.8175 27.2844 32.386H24.6149ZM27.3947 30.9434C27.2531 30.8338 27.0995 30.7394 26.9358 30.6627L26.75 29.5079L30.494 26.1164C30.5486 26.3742 30.6115 26.6303 30.683 26.8844L30.725 27.0336C29.0445 27.6792 27.7689 29.1478 27.3947 30.9434Z" fill="#6A7FA4"/>
<path d="M37.5118 31.5469C37.2421 31.5469 37.0235 31.7655 37.0235 32.0352L37.0234 32.0581C37.0227 32.3277 37.2406 32.547 37.5103 32.5478C37.5108 32.5478 37.5113 32.5478 37.5118 32.5478C37.7808 32.5478 37.9992 32.3301 38 32.0609L38.0001 32.0352C38 31.7655 37.7814 31.5469 37.5118 31.5469Z" fill="#6A7FA4"/>
<path d="M24.8843 36.5571C24.7935 36.4658 24.668 36.4141 24.5391 36.4141C24.4106 36.4141 24.2847 36.4658 24.1938 36.5571C24.103 36.6479 24.0508 36.7735 24.0508 36.9023C24.0508 37.0308 24.103 37.1567 24.1938 37.2476C24.2847 37.3383 24.4106 37.3906 24.5391 37.3906C24.6675 37.3906 24.7935 37.3384 24.8843 37.2476C24.9756 37.1567 25.0273 37.0308 25.0273 36.9023C25.0273 36.7734 24.9756 36.6479 24.8843 36.5571Z" fill="#6A7FA4"/>
</g>
<defs>
<clipPath id="clip0">
<rect width="25" height="25" fill="white" transform="translate(13 13)"/>
</clipPath>
</defs>
</svg>
