<svg width="73" height="73" viewBox="0 0 73 73" fill="none" xmlns="http://www.w3.org/2000/svg">
<path d="M57.8717 37.3751C57.5618 36.747 50.9303 25.8158 50.7622 25.5428C49.5243 23.5339 47.3786 22.3346 45.0223 22.3346C44.6862 22.3346 44.356 22.36 44.0329 22.4078C44.0326 22.4072 44.0317 22.4059 44.0315 22.4055C43.4605 21.4802 42.4722 20.9277 41.3879 20.9277C39.6759 20.9277 38.283 22.3206 38.283 24.0327V29.4578H34.2741V24.0327C34.2741 22.3207 32.8813 20.9277 31.1692 20.9277C30.0868 20.9277 29.1004 21.4782 28.5244 22.4078C28.2013 22.36 27.871 22.3346 27.5348 22.3346C25.1785 22.3346 23.0327 23.534 21.7948 25.543C21.7777 25.5707 21.7257 25.6551 20.4779 27.747C20.2634 28.1066 20.3811 28.572 20.7406 28.7865C21.1002 29.0009 21.5657 28.8835 21.7802 28.5238C22.8069 26.8026 23.057 26.3853 23.0859 26.3383C24.0456 24.7808 25.7088 23.8509 27.5348 23.8509C30.4148 23.8509 32.7577 26.1939 32.7577 29.0738V29.0743V36.5458C30.9411 33.5833 27.6728 31.6027 23.9503 31.6027C22.2692 31.6027 20.6808 32.0069 19.2768 32.7227C19.6374 32.1177 20.0183 31.4786 20.4006 30.8376C20.615 30.4779 20.4973 30.0125 20.1376 29.7981C19.7779 29.5837 19.3126 29.7013 19.0981 30.061C17.4871 32.7628 14.9516 36.8168 14.6313 37.4861C13.9875 38.8317 13.6265 40.3377 13.6265 41.9266C13.6265 47.6192 18.2578 52.2505 23.9503 52.2505C29.6429 52.2505 34.2741 47.6192 34.2741 41.9266V39.9121H38.283V41.9266C38.283 47.6192 42.9143 52.2505 48.6068 52.2505C54.2993 52.2505 58.9306 47.6192 58.9306 41.9266C58.9307 40.2939 58.5496 38.7488 57.8717 37.3751ZM32.7577 24.8206C32.0573 23.9621 31.15 23.2791 30.1123 22.8479C30.3994 22.5905 30.7715 22.4441 31.1693 22.4441C32.0452 22.4441 32.7577 23.1567 32.7577 24.0326V24.8206ZM23.9503 50.734C19.0938 50.734 15.1428 46.783 15.1428 41.9266C15.1428 37.0701 19.0938 33.1191 23.9503 33.1191C28.8068 33.1191 32.7577 37.0701 32.7577 41.9266C32.7577 46.783 28.8067 50.734 23.9503 50.734ZM34.274 35.4844V30.9741H38.2829V35.4844H34.274ZM38.283 38.3958H34.2741V37.0009H38.283V38.3958ZM39.7993 24.0327C39.7993 23.1568 40.5119 22.4442 41.3878 22.4442C41.7868 22.4442 42.1602 22.5915 42.4457 22.8477C41.4077 23.2789 40.5 23.962 39.7993 24.8207V24.0327ZM39.7993 29.0743V29.0738C39.7993 26.1938 42.1423 23.8509 45.0222 23.8509C46.8484 23.8509 48.5115 24.7809 49.4712 26.3383C49.5621 26.486 51.4571 29.6639 53.2803 32.7227C51.8762 32.0068 50.2878 31.6026 48.6067 31.6026C44.8842 31.6026 41.6159 33.5833 39.7993 36.5457V29.0743H39.7993ZM48.6068 50.734C43.7504 50.734 39.7994 46.783 39.7994 41.9265C39.7994 37.07 43.7505 33.119 48.6068 33.119C53.4633 33.119 57.4143 37.07 57.4143 41.9265C57.4143 46.783 53.4632 50.734 48.6068 50.734Z" fill="#6A7FA4"/>
<path d="M55.2539 39.536C55.1121 39.142 54.678 38.9374 54.2839 39.079C53.8899 39.2207 53.6853 39.655 53.8269 40.049C54.0427 40.6492 54.1521 41.2805 54.1521 41.9252C54.1521 44.9829 51.6646 47.4706 48.6067 47.4706C45.5489 47.4706 43.0613 44.9829 43.0613 41.9252C43.0613 38.8674 45.5489 36.3797 48.6067 36.3797C50.1413 36.3797 51.6213 37.0244 52.6674 38.1485C52.9526 38.455 53.4323 38.4722 53.739 38.1869C54.0455 37.9017 54.0628 37.422 53.7775 37.1153C52.4457 35.6842 50.561 34.8633 48.6067 34.8633C44.7128 34.8633 41.5449 38.0311 41.5449 41.9251C41.5449 45.819 44.7128 48.9869 48.6067 48.9869C52.5007 48.9869 55.6685 45.819 55.6685 41.9251C55.6686 41.1052 55.529 40.3013 55.2539 39.536Z" fill="#6A7FA4"/>
<path d="M23.9509 34.8633C20.057 34.8633 16.8892 38.0311 16.8892 41.9251C16.8892 45.819 20.057 48.9869 23.9509 48.9869C27.8449 48.9869 31.0127 45.819 31.0127 41.9251C31.0127 38.0311 27.8448 34.8633 23.9509 34.8633ZM23.9509 47.4704C20.8932 47.4704 18.4055 44.9828 18.4055 41.925C18.4055 38.8672 20.8931 36.3796 23.9509 36.3796C27.0088 36.3796 29.4964 38.8671 29.4964 41.925C29.4964 44.9828 27.0086 47.4704 23.9509 47.4704Z" fill="#6A7FA4"/>
</svg>
