<svg width="50" height="50" viewBox="0 0 50 50" fill="none" xmlns="http://www.w3.org/2000/svg">
<path d="M37.1864 16.7652H36.6876C36.6734 15.976 36.0274 15.3383 35.235 15.3383H34.0277V13.4534C34.0277 12.6521 33.3756 12 32.5743 12H16.4324C15.6309 12 14.9789 12.6521 14.9789 13.4534V15.3383H13.7717C12.9793 15.3383 12.3333 15.976 12.3191 16.7652H11.8203C11.368 16.7652 11 17.1332 11 17.5855V21.811C11 22.2633 11.368 22.6313 11.8203 22.6313H13.6093C14.0616 22.6313 14.4296 22.2633 14.4296 21.811V17.5855C14.4296 17.1332 14.0616 16.7652 13.6093 16.7652H13.1126C13.1266 16.4133 13.4165 16.131 13.7717 16.131H14.9789V30.8366C14.9789 31.0556 15.1563 31.233 15.3754 31.233C15.5942 31.233 15.7718 31.0556 15.7718 30.8366V27.5677C15.97 27.6695 16.1946 27.7272 16.4324 27.7272H32.5743C32.8121 27.7272 33.0367 27.6695 33.2349 27.5677V33.9672C33.2349 34.3315 32.9386 34.6278 32.5743 34.6278H16.4324C16.0681 34.6278 15.7718 34.3315 15.7718 33.9672V32.6687C15.7718 32.4499 15.5942 32.2723 15.3754 32.2723C15.1563 32.2723 14.9789 32.4499 14.9789 32.6687V33.9672C14.9789 34.7685 15.6309 35.4205 16.4324 35.4205H16.8447V36.3419C16.8447 36.9538 17.3425 37.4519 17.9546 37.4519H19.7365C20.3484 37.4519 20.8463 36.9538 20.8463 36.3419V35.4205H28.1604V36.3419C28.1604 36.9538 28.6582 37.4519 29.2702 37.4519H31.052C31.6642 37.4519 32.162 36.9538 32.162 36.3419V35.4205H32.5743C33.3758 35.4205 34.0277 34.7685 34.0277 33.9672V16.131H35.235C35.5902 16.131 35.8801 16.4133 35.8943 16.7652H35.3975C34.9453 16.7652 34.5771 17.1332 34.5771 17.5855V21.811C34.5771 22.2633 34.9453 22.6313 35.3975 22.6313H37.1864C37.6387 22.6313 38.0067 22.2633 38.0067 21.811V17.5855C38.0067 17.1332 37.6387 16.7652 37.1864 16.7652ZM13.6093 17.5578C13.6246 17.5578 13.6368 17.5702 13.6368 17.5855V21.811C13.6368 21.8263 13.6244 21.8386 13.6093 21.8386H11.8203C11.805 21.8386 11.7927 21.8263 11.7927 21.811V17.5855C11.7927 17.5702 11.805 17.5578 11.8203 17.5578H13.6093ZM20.0536 36.3419C20.0536 36.5166 19.9112 36.659 19.7365 36.659H17.9546C17.7797 36.659 17.6375 36.5166 17.6375 36.3419V35.4205H20.0534V36.3419H20.0536ZM31.3692 36.3419C31.3692 36.5166 31.227 36.659 31.052 36.659H29.2702C29.0955 36.659 28.9531 36.5166 28.9531 36.3419V35.4205H31.3692V36.3419ZM33.2349 16.7343H17.2275C17.0087 16.7343 16.8313 16.9117 16.8313 17.1307C16.8313 17.3495 17.0087 17.5271 17.2275 17.5271H33.2351V25.0358H30.6165C30.3974 25.0358 30.22 25.2132 30.22 25.4323C30.22 25.6513 30.3974 25.8287 30.6165 25.8287H33.2351V26.2739C33.2351 26.638 32.9388 26.9345 32.5745 26.9345H16.4324C16.0681 26.9345 15.7718 26.638 15.7718 26.2739V25.8287H28.7666C28.9856 25.8287 29.163 25.6513 29.163 25.4323C29.163 25.2132 28.9856 25.0358 28.7666 25.0358H24.868L28.6077 21.9097C28.7753 21.7696 28.7975 21.5201 28.6574 21.3524C28.5173 21.1848 28.2678 21.1624 28.1003 21.3027L23.6344 25.0358H21.9323L25.6718 21.9097C25.8395 21.7696 25.8618 21.5201 25.7217 21.3526C25.5816 21.1848 25.332 21.1624 25.1643 21.3027L20.6987 25.036H15.7718V15.4659H33.2349V16.7343ZM33.2349 14.673H15.7718V13.4534C15.7718 13.0892 16.0681 12.7929 16.4324 12.7929H32.5743C32.9386 12.7929 33.2349 13.0892 33.2349 13.4534V14.673ZM37.214 21.811C37.214 21.8263 37.2017 21.8386 37.1864 21.8386H35.3975C35.3823 21.8386 35.3699 21.8263 35.3699 21.811V17.5855C35.3699 17.5702 35.3823 17.5578 35.3975 17.5578H37.1864C37.2017 17.5578 37.214 17.5702 37.214 17.5855V21.811Z" fill="#6A7FA4"/>
<path d="M20.7906 31.9047C21.1548 31.9047 21.4511 31.6082 21.4511 31.2439V30.6097C21.4511 29.7501 20.7518 29.0508 19.892 29.0508H17.4609C17.0966 29.0508 16.8003 29.3471 16.8003 29.7114V30.3456C16.8003 31.2052 17.4996 31.9047 18.3594 31.9047H20.7906ZM17.5929 30.3456V29.8434H19.892C20.3146 29.8434 20.6583 30.1873 20.6583 30.6097V31.1118H18.3594C17.9368 31.1118 17.5929 30.768 17.5929 30.3456Z" fill="#6A7FA4"/>
<path d="M30.6474 31.9047C31.5072 31.9047 32.2065 31.2052 32.2065 30.3456V29.7114C32.2065 29.3471 31.9102 29.0508 31.5459 29.0508H29.1148C28.2552 29.0508 27.5557 29.7501 27.5557 30.6097V31.2439C27.5557 31.6082 27.852 31.9047 28.2162 31.9047H30.6474ZM28.3483 30.6097C28.3483 30.1871 28.6922 29.8434 29.1148 29.8434H31.4136V30.3456C31.4136 30.7682 31.07 31.1118 30.6474 31.1118H28.3483V30.6097Z" fill="#6A7FA4"/>
<path d="M26.2533 34.0337C26.5333 34.0337 26.761 33.806 26.761 33.526V32.4804C26.761 32.2003 26.5333 31.9727 26.2533 31.9727H22.7538C22.4738 31.9727 22.2461 32.2003 22.2461 32.4804V33.526C22.2461 33.806 22.4738 34.0337 22.7538 34.0337H26.2533ZM23.0387 32.7653H25.9683V33.2411H23.0387V32.7653Z" fill="#6A7FA4"/>
</svg>
