<svg width="73" height="73" viewBox="0 0 73 73" fill="none" xmlns="http://www.w3.org/2000/svg">
<path d="M53.7313 24.184H50.2673L47.5956 18.9521C47.4528 18.6723 47.165 18.4961 46.8507 18.4961H32.1165C31.8023 18.4961 31.5145 18.6723 31.3716 18.9521L28.7 24.184H25.2917V22.4274C25.2917 21.5511 24.5788 20.8382 23.7024 20.8382H21.1931C20.3167 20.8382 19.6038 21.5511 19.6038 22.4274V24.184H19.2692C16.9631 24.184 15.0869 26.0602 15.0869 28.3663V50.4488C15.0869 52.7549 16.9631 54.6311 19.2692 54.6311H53.7313C56.0374 54.6311 57.9136 52.7549 57.9136 50.4488V28.3663C57.9136 26.0602 56.0374 24.184 53.7313 24.184ZM32.6286 20.169H46.3386L48.3888 24.184H30.5784L32.6286 20.169ZM21.2767 22.5111H23.6188V24.184H21.2767V22.5111ZM56.2407 50.4488C56.2407 51.8325 55.115 52.9582 53.7313 52.9582H19.2692C17.8855 52.9582 16.7598 51.8325 16.7598 50.4488V28.3663C16.7598 26.9826 17.8855 25.8569 19.2692 25.8569H53.7313C55.115 25.8569 56.2407 26.9826 56.2407 28.3663V50.4488Z" fill="#6A7FA4"/>
<path d="M39.4835 27.8633C37.0761 27.8633 34.7691 28.5971 32.8119 29.9855C30.8983 31.3429 29.4593 33.2192 28.6506 35.4114C28.4906 35.8449 28.7124 36.3258 29.1458 36.4857C29.5791 36.6457 30.0602 36.4238 30.2201 35.9904C31.6443 32.13 35.3669 29.5362 39.4835 29.5362C44.9259 29.5362 49.3537 33.964 49.3537 39.4064C49.3537 44.8488 44.9259 49.2766 39.4835 49.2766C35.3669 49.2766 31.6443 46.6828 30.2201 42.8224C30.0602 42.389 29.579 42.1671 29.1458 42.3272C28.7124 42.487 28.4906 42.968 28.6506 43.4014C29.4593 45.5936 30.8982 47.4699 32.8119 48.8274C34.7691 50.2157 37.0761 50.9495 39.4835 50.9495C45.8483 50.9495 51.0266 45.7713 51.0266 39.4064C51.0266 33.0415 45.8483 27.8633 39.4835 27.8633Z" fill="#6A7FA4"/>
<path d="M39.4838 47.2684C43.8193 47.2684 47.3465 43.7412 47.3465 39.4057C47.3465 35.0701 43.8193 31.543 39.4838 31.543C35.1483 31.543 31.6211 35.0701 31.6211 39.4057C31.6211 43.7412 35.1483 47.2684 39.4838 47.2684ZM39.4838 33.2159C42.8969 33.2159 45.6736 35.9926 45.6736 39.4057C45.6736 42.8188 42.8969 45.5955 39.4838 45.5955C36.0707 45.5955 33.294 42.8188 33.294 39.4057C33.294 35.9926 36.0707 33.2159 39.4838 33.2159Z" fill="#6A7FA4"/>
<path d="M39.4839 37.2667C40.6647 37.2667 41.6253 38.2273 41.6253 39.4081C41.6253 39.8701 41.9998 40.2445 42.4618 40.2445C42.9238 40.2445 43.2983 39.8701 43.2983 39.4081C43.2983 37.3049 41.5871 35.5938 39.4839 35.5938C39.0219 35.5938 38.6475 35.9682 38.6475 36.4302C38.6475 36.8922 39.0219 37.2667 39.4839 37.2667Z" fill="#6A7FA4"/>
<path d="M22.4476 28.8945C21.0619 28.8945 19.9346 30.0219 19.9346 31.4076C19.9346 32.7933 21.0619 33.9206 22.4476 33.9206C23.8333 33.9206 24.9607 32.7933 24.9607 31.4076C24.9607 30.0219 23.8333 28.8945 22.4476 28.8945ZM22.4476 32.2477C21.9844 32.2477 21.6075 31.8708 21.6075 31.4076C21.6075 30.9444 21.9844 30.5674 22.4476 30.5674C22.9109 30.5674 23.2878 30.9444 23.2878 31.4076C23.2878 31.8708 22.9109 32.2477 22.4476 32.2477Z" fill="#6A7FA4"/>
<path d="M28.7774 40.2432C29.2393 40.2432 29.6138 39.8687 29.6138 39.4068C29.6138 38.9448 29.2393 38.5703 28.7774 38.5703C28.3154 38.5703 27.9409 38.9448 27.9409 39.4068C27.9409 39.8687 28.3154 40.2432 28.7774 40.2432Z" fill="#6A7FA4"/>
</svg>
