<svg width="30" height="30" viewBox="0 0 30 30" fill="none" xmlns="http://www.w3.org/2000/svg">
<circle cx="15" cy="15" r="14.5" stroke="#FFCD59"/>
<path d="M15.8621 14.1353C15.7122 13.985 15.469 13.9852 15.3189 14.1353L15.3189 14.1353C15.169 14.2853 15.169 14.5287 15.3189 14.6786L15.3189 14.6787C15.4691 14.8287 15.7123 14.8288 15.8622 14.6786L15.8091 14.6256M15.8621 14.1353C16.0123 14.2853 16.0123 14.5288 15.8621 14.6787L15.8091 14.6256M15.8621 14.1353C15.8622 14.1353 15.8622 14.1354 15.8622 14.1354L15.8091 14.1883L15.8621 14.1353C15.8621 14.1353 15.8621 14.1353 15.8621 14.1353ZM15.8091 14.6256C15.6885 14.7464 15.4928 14.7464 15.3719 14.6256C15.2514 14.505 15.2514 14.309 15.3719 14.1883C15.4928 14.0674 15.6885 14.0674 15.8091 14.1883C15.93 14.309 15.93 14.505 15.8091 14.6256Z" fill="#FFCD59" stroke="#FFCD59" stroke-width="0.15"/>
<path d="M21.8806 10.2983C23.1206 8.92244 23.3238 7.08968 23.3321 7.00911C23.3418 6.91646 23.309 6.82441 23.2432 6.75858C23.1774 6.69274 23.0853 6.65988 22.9928 6.66967C22.9121 6.678 21.0796 6.88131 19.7037 8.12106C19.5404 7.61009 19.2583 7.14634 18.8705 6.75858C18.8126 6.70059 18.7339 6.66798 18.6519 6.66798C18.5699 6.6681 18.4911 6.70059 18.4332 6.7587L17.9961 7.19611C17.2139 7.97792 16.8701 9.06378 17.0403 10.1303C15.9127 9.8834 14.6978 10.1778 13.8806 10.9229C13.8791 10.9242 13.8777 10.9253 13.8762 10.9265C13.875 10.9277 13.8739 10.9289 13.8727 10.93C13.2598 11.4889 13.6654 11.1105 7.7248 20.3138C7.36458 20.8802 7.44454 21.6073 7.91916 22.082C8.39571 22.5584 9.12353 22.6358 9.68874 22.2759C18.7577 16.4899 18.3899 16.7251 18.4014 16.7169C18.9111 16.3549 19.2918 15.939 19.5325 15.4806C19.9413 14.7029 20.0574 13.8101 19.8717 12.9618C20.0503 12.9903 20.2294 13.0045 20.4075 13.0045C21.2932 13.0045 22.1548 12.6571 22.806 12.0061L23.2432 11.5685C23.364 11.4477 23.3639 11.252 23.2431 11.1312C22.8554 10.7437 22.3916 10.4618 21.8806 10.2983ZM22.6451 7.35725C22.5119 7.97393 22.1553 9.15848 21.2754 10.0383C20.7017 10.6121 19.957 11.0048 19.19 11.2491L20.6196 9.81974C20.7404 9.69906 20.7404 9.50324 20.6197 9.38257C20.4989 9.26177 20.3031 9.26177 20.1824 9.38244L18.7528 10.812C18.9988 10.0398 19.3949 9.29487 19.9635 8.72639C20.8405 7.84939 22.0277 7.49134 22.6451 7.35725ZM18.4334 7.63328L18.6401 7.42647C18.9261 7.78283 19.117 8.19983 19.2007 8.65137C18.6822 9.28846 18.3661 10.0011 18.1761 10.5854C18.0298 10.4962 17.8777 10.4173 17.7204 10.3494C17.4493 9.37991 17.7159 8.35046 18.4334 7.63328ZM18.9851 15.193C18.7909 15.5628 18.4761 15.9042 18.0496 16.2083L17.9127 16.2956L16.6842 15.0669C16.5635 14.9461 16.3677 14.9461 16.2469 15.0668C16.1262 15.1875 16.1262 15.3832 16.2469 15.504L17.3788 16.6362L14.7093 18.3393L13.6232 17.2532C13.5024 17.1325 13.3067 17.1324 13.1859 17.2532C13.0651 17.3739 13.0651 17.5697 13.1859 17.6905L14.1753 18.68L11.5057 20.3832L10.5624 19.4398C10.4416 19.3191 10.2459 19.3191 10.1251 19.4398C10.0044 19.5606 10.0044 19.7564 10.1251 19.8771L10.9717 20.7238L9.35643 21.7544C9.03607 21.9583 8.62499 21.9133 8.35657 21.6447C8.08828 21.3766 8.0431 20.9657 8.24616 20.6464L10.3034 17.432L10.9994 18.128C11.1202 18.2487 11.316 18.2487 11.4367 18.128C11.5575 18.0072 11.5575 17.8115 11.4367 17.6907L10.6446 16.8987L12.3511 14.2322L13.6234 15.5042C13.7441 15.6248 13.9399 15.6248 14.0606 15.504C14.1814 15.3834 14.1814 15.1875 14.0606 15.0668L12.6924 13.6989L13.8855 11.8347C13.9499 11.7494 14.0165 11.6687 14.0847 11.5932L15.3721 12.8805C15.4929 13.0013 15.6887 13.0013 15.8094 12.8805C15.9302 12.7599 15.9302 12.564 15.8094 12.4432L14.5455 11.1793C15.6304 10.4086 17.3306 10.4653 18.4332 11.5687C19.396 12.5314 19.6113 14.0017 18.9851 15.193ZM22.3687 11.5688C21.6514 12.2858 20.6221 12.5523 19.6527 12.2816C19.5847 12.124 19.5058 11.9718 19.4168 11.8257C20.0015 11.6356 20.7143 11.3195 21.3509 10.8013C21.8023 10.8853 22.2192 11.0762 22.5754 11.362L22.3687 11.5688Z" fill="#FFCD59"/>
</svg>
