<svg width="72" height="72" viewBox="0 0 72 72" fill="none" xmlns="http://www.w3.org/2000/svg">
<g clip-path="url(#clip0)">
<path d="M53.458 49.1045H51.9325V43.958C51.9325 43.6586 51.6899 43.416 51.3905 43.416C51.0911 43.416 50.8485 43.6586 50.8485 43.958V49.0962H47.5965V36.4583H50.8485V41.5965C50.8485 41.8959 51.0911 42.1384 51.3905 42.1384C51.6899 42.1384 51.9325 41.8959 51.9325 41.5965V35.9163C51.9325 35.6169 51.6899 35.3743 51.3905 35.3743H47.0546C46.7552 35.3743 46.5126 35.6169 46.5126 35.9163V49.1045H43.3408V34.4708C43.3408 34.1714 43.0982 33.9288 42.7988 33.9288H38.4629C38.1635 33.9288 37.9209 34.1714 37.9209 34.4708V49.1045H34.6689V39.0289C34.6689 38.7295 34.4263 38.4869 34.127 38.4869H29.791C29.4916 38.4869 29.249 38.7295 29.249 39.0289V49.1045H25.9971V37.5112C25.9971 37.2118 25.7545 36.9692 25.4551 36.9692H24.473C24.1736 36.9692 23.931 37.2118 23.931 37.5112C23.931 37.8106 24.1736 38.0532 24.473 38.0532H24.9131V49.1033H21.6611V38.0532H22.1106C22.41 38.0532 22.6526 37.8106 22.6526 37.5112C22.6526 37.2118 22.41 36.9692 22.1106 36.9692H21.1191C20.8197 36.9692 20.5771 37.2118 20.5771 37.5112V49.1045H18.084V21.3545C18.084 21.0551 17.8414 20.8125 17.542 20.8125C17.2426 20.8125 17 21.0551 17 21.3545V49.6465C17 49.9459 17.2426 50.1885 17.542 50.1885H53.458C53.7574 50.1885 54 49.9459 54 49.6465C54 49.3471 53.7574 49.1045 53.458 49.1045ZM39.0049 35.0128H42.2568V49.0965H39.0049V35.0128ZM30.333 39.5709H33.585V49.1043H30.333V39.5709Z" fill="#6A7FA4"/>
<path d="M23.2918 34.2912C24.3664 34.2912 25.2967 33.6627 25.7347 32.7539L29.2544 33.6392C29.2526 33.6794 29.2514 33.7197 29.2514 33.7604C29.2514 35.2547 30.467 36.4703 31.9613 36.4703C33.4556 36.4703 34.6713 35.2547 34.6713 33.7604C34.6713 33.3449 34.5771 32.9511 34.4093 32.5989L38.8337 29.2737C39.3242 29.7112 39.9555 29.9555 40.6309 29.9555C41.7755 29.9555 42.7671 29.2506 43.1602 28.2209L46.5152 28.7849C46.5651 30.2356 47.7601 31.4006 49.2228 31.4006C50.7171 31.4006 51.9327 30.1849 51.9327 28.6906C51.9327 27.1963 50.7171 25.9807 49.2228 25.9807C48.0721 25.9807 47.0873 26.702 46.6949 27.7158L43.338 27.1516C43.3077 26.2664 42.8529 25.4574 42.1064 24.9739C41.8552 24.8112 41.5196 24.883 41.3569 25.1342C41.1941 25.3856 41.2659 25.7211 41.5172 25.8838C41.9804 26.1837 42.257 26.6928 42.257 27.2456C42.257 27.3369 42.2494 27.4267 42.2341 27.5156V27.5157C42.2341 27.516 42.2341 27.5162 42.234 27.5164C42.1029 28.3016 41.4288 28.8716 40.631 28.8716C40.1159 28.8716 39.6428 28.6355 39.3324 28.2237C39.332 28.2231 39.3317 28.2225 39.3313 28.2219C39.3309 28.2214 39.3304 28.221 39.33 28.2204C39.1175 27.9373 39.005 27.6003 39.005 27.2456C39.005 26.6929 39.2816 26.1838 39.7448 25.8838C39.996 25.7211 40.0678 25.3855 39.9051 25.1342C39.7424 24.883 39.4067 24.8111 39.1555 24.9739C38.3826 25.4745 37.921 26.3238 37.921 27.2456C37.921 27.6536 38.0103 28.0476 38.1819 28.4077L33.7571 31.7332C33.2787 31.3089 32.6498 31.0505 31.9614 31.0505C30.8869 31.0505 29.9564 31.6791 29.5185 32.5879L25.9988 31.7026C26.0007 31.6623 26.002 31.6219 26.002 31.5813C26.002 30.0869 24.7863 28.8713 23.292 28.8713C21.7977 28.8713 20.582 30.0869 20.582 31.5813C20.582 33.0756 21.7976 34.2912 23.2918 34.2912ZM49.2228 27.0647C50.1193 27.0647 50.8488 27.7941 50.8488 28.6906C50.8488 29.5872 50.1193 30.3166 49.2228 30.3166C48.3263 30.3166 47.5968 29.5872 47.5968 28.6906C47.5968 27.7941 48.3262 27.0647 49.2228 27.0647ZM31.9613 32.1344C32.8579 32.1344 33.5873 32.8638 33.5873 33.7604C33.5873 34.6569 32.8579 35.3863 31.9613 35.3863C31.0648 35.3863 30.3354 34.6569 30.3354 33.7604C30.3354 33.6249 30.3523 33.4933 30.3836 33.3674C30.3839 33.3664 30.3844 33.3656 30.3846 33.3646C30.3854 33.3613 30.3857 33.3581 30.3865 33.3549C30.5672 32.6539 31.2048 32.1344 31.9613 32.1344ZM23.2918 29.9553C24.1884 29.9553 24.9178 30.6847 24.9178 31.5813C24.9178 31.7176 24.9008 31.8499 24.869 31.9765C24.8689 31.9768 24.8688 31.977 24.8688 31.9773C24.8686 31.9779 24.8685 31.9784 24.8684 31.979C24.6905 32.6839 24.0512 33.2072 23.2918 33.2072C22.3952 33.2072 21.6658 32.4778 21.6658 31.5813C21.6658 30.6847 22.3953 29.9553 23.2918 29.9553Z" fill="#6A7FA4"/>
</g>
<defs>
<clipPath id="clip0">
<rect width="37" height="37" fill="white" transform="translate(17 17)"/>
</clipPath>
</defs>
</svg>
