<svg width="16" height="16" viewBox="0 0 16 16" fill="none" xmlns="http://www.w3.org/2000/svg">
<path fill-rule="evenodd" clip-rule="evenodd" d="M8 16C12.4183 16 16 12.4183 16 8C16 3.58172 12.4183 0 8 0C3.58172 0 0 3.58172 0 8C0 12.4183 3.58172 16 8 16ZM12.2627 6.04052C12.6532 5.65 12.6532 5.01684 12.2627 4.62631C11.8722 4.23579 11.239 4.23579 10.8485 4.62631L6.66668 8.8081L5.15157 7.29298C4.76104 6.90246 4.12788 6.90246 3.73735 7.29298C3.34683 7.6835 3.34683 8.31667 3.73735 8.70719L5.95957 10.9294C6.14711 11.117 6.40146 11.2223 6.66668 11.2223C6.9319 11.2223 7.18625 11.117 7.37379 10.9294L12.2627 6.04052Z" fill="white" fill-opacity="0.75"/>
</svg>
