<svg width="32" height="32" viewBox="0 0 32 32" fill="none" xmlns="http://www.w3.org/2000/svg">
<path d="M18.83 15.9997L31.4136 3.41606C32.1955 2.63493 32.1955 1.36749 31.4136 0.586354C30.6318 -0.195451 29.3657 -0.195451 28.5839 0.586354L16.0003 13.17L3.41606 0.586354C2.63426 -0.195451 1.36816 -0.195451 0.586354 0.586354C-0.195451 1.36749 -0.195451 2.63493 0.586354 3.41606L13.1706 15.9997L0.586354 28.5833C-0.195451 29.3644 -0.195451 30.6318 0.586354 31.413C0.977257 31.8032 1.48957 31.9987 2.00121 31.9987C2.51285 31.9987 3.02516 31.8032 3.41606 31.4123L16.0003 18.8287L28.5839 31.4123C28.9748 31.8032 29.4871 31.9987 29.9988 31.9987C30.5104 31.9987 31.0227 31.8032 31.4136 31.4123C32.1955 30.6312 32.1955 29.3637 31.4136 28.5826L18.83 15.9997Z" fill="#C4C4C4"/>
</svg>
