<svg width="46" height="46" viewBox="0 0 46 46" fill="none" xmlns="http://www.w3.org/2000/svg">
<g clip-path="url(#clip0)">
<path d="M11.9758 34.8097C11.7798 34.8097 11.6201 34.6513 11.6201 34.4553V33.0755C11.6201 32.8795 11.7798 32.7211 11.9758 32.7211C12.1718 32.7211 12.3301 32.8796 12.3301 33.0755V34.0996H22.1619C22.0184 33.8688 21.9351 33.5963 21.9351 33.3064V22.0948C21.9351 21.68 22.1042 21.3043 22.3767 21.0318C22.6492 20.7593 23.025 20.5901 23.4384 20.5901H25.5203V13.9099C25.5203 13.7126 25.6786 13.5542 25.8745 13.5542C26.0705 13.5542 26.2303 13.7126 26.2303 13.9099V20.5901H32.2541C32.6689 20.5901 33.0448 20.7592 33.3172 21.0317C33.5897 21.3042 33.7588 21.68 33.7588 22.0947V33.3063C33.7588 33.7197 33.5897 34.0955 33.3172 34.368C33.0448 34.6405 32.6689 34.8096 32.2541 34.8096H11.9758V34.8097ZM23.6344 31.2769H25.523C25.7189 31.2769 25.8786 31.4353 25.8786 31.6312V33.0312C25.8786 33.2272 25.7189 33.3869 25.523 33.3869H23.6344C23.4384 33.3869 23.2787 33.2272 23.2787 33.0312V31.6312C23.2787 31.4353 23.4384 31.2769 23.6344 31.2769ZM25.1685 31.987H23.9888V32.6768H25.1686V31.987H25.1685ZM30.1697 31.2769H32.0595C32.2555 31.2769 32.4139 31.4353 32.4139 31.6312V33.0312C32.4139 33.2272 32.2555 33.3869 32.0595 33.3869H30.1697C29.9737 33.3869 29.8154 33.2272 29.8154 33.0312V31.6312C29.8153 31.4353 29.9737 31.2769 30.1697 31.2769ZM31.7038 31.987H30.5253V32.6768H31.7038V31.987ZM26.9027 31.2769H28.7912C28.9872 31.2769 29.1456 31.4353 29.1456 31.6312V33.0312C29.1456 33.2272 28.9872 33.3869 28.7912 33.3869H26.9027C26.7054 33.3869 26.547 33.2272 26.547 33.0312V31.6312C26.547 31.4353 26.7054 31.2769 26.9027 31.2769ZM28.4356 31.987H27.2571V32.6768H28.4356V31.987ZM23.6344 28.4985H25.523C25.7189 28.4985 25.8786 28.6569 25.8786 28.8529V30.2528C25.8786 30.4488 25.7189 30.6085 25.523 30.6085H23.6344C23.4384 30.6085 23.2787 30.4488 23.2787 30.2528V28.8529C23.2787 28.6569 23.4384 28.4985 23.6344 28.4985ZM25.1685 29.2086H23.9888V29.8971H25.1686V29.2086H25.1685ZM30.1697 28.4985H32.0595C32.2555 28.4985 32.4139 28.6569 32.4139 28.8529V30.2528C32.4139 30.4488 32.2555 30.6085 32.0595 30.6085H30.1697C29.9737 30.6085 29.8154 30.4488 29.8154 30.2528V28.8529C29.8153 28.6569 29.9737 28.4985 30.1697 28.4985ZM31.7038 29.2086H30.5253V29.8971H31.7038V29.2086ZM26.9027 28.4985H28.7912C28.9872 28.4985 29.1456 28.6569 29.1456 28.8529V30.2528C29.1456 30.4488 28.9872 30.6085 28.7912 30.6085H26.9027C26.7054 30.6085 26.547 30.4488 26.547 30.2528V28.8529C26.547 28.6569 26.7054 28.4985 26.9027 28.4985ZM28.4356 29.2086H27.2571V29.8971H28.4356V29.2086ZM23.6344 25.7201H25.523C25.7189 25.7201 25.8786 25.8785 25.8786 26.0744V27.4744C25.8786 27.6703 25.7189 27.8301 25.523 27.8301H23.6344C23.4384 27.8301 23.2787 27.6703 23.2787 27.4744V26.0744C23.2787 25.8785 23.4384 25.7201 23.6344 25.7201ZM25.1685 26.4301H23.9888V27.1187H25.1686V26.4301H25.1685ZM30.1697 25.7201H32.0595C32.2555 25.7201 32.4139 25.8785 32.4139 26.0744V27.4744C32.4139 27.6703 32.2555 27.8301 32.0595 27.8301H30.1697C29.9737 27.8301 29.8154 27.6703 29.8154 27.4744V26.0744C29.8153 25.8785 29.9737 25.7201 30.1697 25.7201ZM31.7038 26.4301H30.5253V27.1187H31.7038V26.4301ZM26.9027 25.7201H28.7912C28.9872 25.7201 29.1456 25.8785 29.1456 26.0744V27.4744C29.1456 27.6703 28.9872 27.8301 28.7912 27.8301H26.9027C26.7054 27.8301 26.547 27.6703 26.547 27.4744V26.0744C26.547 25.8785 26.7054 25.7201 26.9027 25.7201ZM28.4356 26.4301H27.2571V27.1187H28.4356V26.4301ZM27.0423 24.3403C27.2383 24.3403 27.398 24.5 27.398 24.696C27.398 24.892 27.2383 25.0504 27.0423 25.0504H23.6344C23.4384 25.0504 23.2787 24.892 23.2787 24.696V22.3377C23.2787 22.1418 23.4384 21.9834 23.6344 21.9834H32.0595C32.2555 21.9834 32.4139 22.1418 32.4139 22.3377V24.696C32.4139 24.892 32.2555 25.0504 32.0595 25.0504H28.6503C28.4543 25.0504 28.296 24.892 28.296 24.696C28.296 24.5 28.4543 24.3403 28.6503 24.3403H31.7038V22.6934H23.9888V24.3403H27.0423ZM17.7394 30.9252C17.5434 30.9252 17.3837 30.7655 17.3837 30.5695C17.3837 30.3736 17.5434 30.2152 17.7394 30.2152H20.6801C20.8775 30.2152 21.0359 30.3736 21.0359 30.5695C21.0359 30.7655 20.8775 30.9252 20.6801 30.9252H17.7394ZM17.7394 27.7079C17.5434 27.7079 17.3837 27.5482 17.3837 27.3522C17.3837 27.1563 17.5434 26.9979 17.7394 26.9979H20.6801C20.8775 26.9979 21.0359 27.1563 21.0359 27.3522C21.0359 27.5482 20.8775 27.7079 20.6801 27.7079H17.7394ZM17.7394 24.4906C17.5434 24.4906 17.3837 24.3309 17.3837 24.1349C17.3837 23.9389 17.5434 23.7806 17.7394 23.7806H20.6801C20.8775 23.7806 21.0359 23.939 21.0359 24.1349C21.0359 24.3309 20.8775 24.4906 20.6801 24.4906H17.7394ZM17.7394 21.2733C17.5434 21.2733 17.3837 21.1136 17.3837 20.9177C17.3837 20.7217 17.5434 20.5619 17.7394 20.5619H20.6801C20.8775 20.5619 21.0359 20.7217 21.0359 20.9177C21.0359 21.1136 20.8775 21.2733 20.6801 21.2733H17.7394ZM13.5033 30.8205C13.3651 30.6823 13.3651 30.4582 13.5033 30.3185C13.6416 30.1803 13.8671 30.1803 14.0053 30.3185L14.5127 30.8259L15.7784 29.5602C15.9166 29.422 16.1421 29.422 16.2804 29.5602C16.4186 29.6998 16.4186 29.924 16.2804 30.0622L14.7637 31.5789C14.6254 31.7185 14.3999 31.7185 14.2617 31.5789L13.5033 30.8205ZM13.5033 27.6033C13.3651 27.465 13.3651 27.2395 13.5033 27.1012C13.6416 26.963 13.8671 26.963 14.0053 27.1012L14.5127 27.6086L15.7784 26.3429C15.9166 26.2047 16.1421 26.2047 16.2804 26.3429C16.4186 26.4812 16.4186 26.7067 16.2804 26.8449L14.7637 28.3616C14.6254 28.5012 14.3999 28.5012 14.2617 28.3616L13.5033 27.6033ZM13.5033 24.3859C13.3651 24.2476 13.3651 24.0221 13.5033 23.8839C13.6416 23.7456 13.8671 23.7456 14.0053 23.8839L14.5127 24.3913L15.7784 23.1256C15.9166 22.9873 16.1421 22.9873 16.2804 23.1256C16.4186 23.2638 16.4186 23.4893 16.2804 23.6276L14.7637 25.1443C14.6254 25.2839 14.3999 25.2839 14.2617 25.1443L13.5033 24.3859ZM13.5033 21.1687C13.3651 21.0304 13.3651 20.8049 13.5033 20.6667C13.6416 20.5283 13.8671 20.5283 14.0053 20.6667L14.5127 21.174L15.7784 19.9082C15.9166 19.77 16.1421 19.77 16.2804 19.9082C16.4186 20.0465 16.4186 20.272 16.2804 20.4103L14.7637 21.927C14.6254 22.0652 14.3999 22.0652 14.2617 21.927L13.5033 21.1687ZM20.3822 12.6107C21.0828 12.6107 21.7177 12.8952 22.1767 13.3542C22.6357 13.8132 22.9203 14.4481 22.9203 15.1487C22.9203 15.8507 22.6357 16.4842 22.1767 16.9447C21.7177 17.4037 21.0828 17.6869 20.3822 17.6869C19.8399 17.6869 19.3366 17.5178 18.9245 17.2279C18.7527 17.3473 18.5648 17.4481 18.3635 17.5232C18.0843 17.6292 17.7823 17.6869 17.4682 17.6869C16.7676 17.6869 16.1327 17.4038 15.6737 16.9447C15.2133 16.4842 14.9301 15.8507 14.9301 15.1487C14.9301 14.4481 15.2133 13.8132 15.6737 13.3542C16.1327 12.8952 16.7676 12.6107 17.4682 12.6107C17.781 12.6107 18.0816 12.6684 18.3608 12.7744C18.5622 12.8496 18.7514 12.9502 18.9245 13.071C19.3366 12.7811 19.8399 12.6107 20.3822 12.6107ZM18.393 16.7259C18.0494 16.2936 17.844 15.7447 17.844 15.1487C17.844 14.5528 18.0494 14.0052 18.3944 13.5716C18.3045 13.5193 18.2105 13.4737 18.1112 13.4374C17.9126 13.3622 17.6964 13.3206 17.4683 13.3206C16.9636 13.3206 16.5059 13.526 16.1757 13.8562C15.8442 14.1877 15.6401 14.6441 15.6401 15.1487C15.6401 15.6534 15.8442 16.1111 16.1757 16.4413C16.5059 16.7729 16.9636 16.9769 17.4683 16.9769C17.6964 16.9769 17.9152 16.9366 18.1139 16.8601C18.2119 16.8239 18.3045 16.7796 18.393 16.7259ZM21.6748 13.8562C21.3445 13.526 20.8869 13.3207 20.3822 13.3207C19.8775 13.3207 19.4198 13.526 19.0896 13.8562C18.7594 14.1878 18.554 14.6441 18.554 15.1488C18.554 15.6535 18.7594 16.1111 19.0896 16.4414C19.4198 16.7729 19.8775 16.9769 20.3822 16.9769C20.8869 16.9769 21.3445 16.7729 21.6748 16.4414C22.0063 16.1111 22.2103 15.6535 22.2103 15.1488C22.2103 14.6441 22.0063 14.1877 21.6748 13.8562ZM23.4384 34.0996H32.2541C32.4729 34.0996 32.6702 34.011 32.8152 33.8661C32.9589 33.7224 33.0488 33.5238 33.0488 33.3064V22.0948C33.0488 21.876 32.9589 21.6774 32.8152 21.5337C32.6702 21.3901 32.4729 21.3001 32.2541 21.3001H23.4384C23.221 21.3001 23.0223 21.3901 22.8787 21.5337C22.7337 21.6773 22.6452 21.876 22.6452 22.0948V33.3064C22.6452 33.5238 22.7337 33.7224 22.8787 33.8661C23.0223 34.011 23.221 34.0996 23.4384 34.0996ZM12.3302 31.4675C12.3302 31.6635 12.1718 31.8218 11.9759 31.8218C11.7799 31.8218 11.6202 31.6634 11.6202 31.4675V10.9221C11.6202 10.7262 11.7799 10.5664 11.9758 10.5664H25.8745C26.0705 10.5664 26.2303 10.7262 26.2303 10.9221V12.3006C26.2303 12.4965 26.0705 12.6563 25.8745 12.6563C25.6786 12.6563 25.5203 12.4965 25.5203 12.3006V11.2764H12.3302V31.4675Z" fill="#6A7FA4"/>
</g>
<defs>
<clipPath id="clip0">
<rect width="24.2432" height="24.2432" fill="white" transform="translate(10.5674 10.5664)"/>
</clipPath>
</defs>
</svg>
