<svg width="73" height="73" viewBox="0 0 73 73" fill="none" xmlns="http://www.w3.org/2000/svg">
<g clip-path="url(#clip0)">
<path d="M38.5656 50.9877H38.3048C38.0424 49.5546 36.7853 48.4648 35.2776 48.4648H22.907C21.5844 48.4648 20.5084 49.5408 20.5084 50.8634V50.9877H20.2988C19.169 50.9877 18.25 51.9068 18.25 53.0365C18.25 54.1661 19.169 55.0853 20.2988 55.0853H38.5656C39.6952 55.0853 40.6143 54.1662 40.6143 53.0365C40.6143 51.9068 39.6953 50.9877 38.5656 50.9877ZM38.5656 53.927H20.2988C19.8077 53.927 19.4082 53.5275 19.4082 53.0365C19.4082 52.5455 19.8077 52.1459 20.2988 52.1459H23.2459C23.5658 52.1459 23.8251 51.8867 23.8251 51.5668C23.8251 51.247 23.5658 50.9876 23.2459 50.9876H21.6667V50.8633C21.6667 50.1794 22.2231 49.623 22.907 49.623H35.2776C36.1432 49.623 36.8766 50.1989 37.1155 50.9876H25.9404C25.6206 50.9876 25.3613 51.2469 25.3613 51.5668C25.3613 51.8866 25.6205 52.1459 25.9404 52.1459H38.5656C39.0566 52.1459 39.4561 52.5455 39.4561 53.0365C39.4561 53.5275 39.0566 53.927 38.5656 53.927Z" fill="#6A7FA4"/>
<path d="M56.9031 50.1931L54.5605 47.9816C54.3279 47.7619 53.9614 47.7726 53.7419 48.0051C53.5223 48.2377 53.5328 48.6042 53.7654 48.8238L56.108 51.0353C56.4404 51.3491 56.6271 51.7737 56.6337 52.2309C56.6403 52.688 56.4659 53.1178 56.1426 53.441C55.8193 53.7643 55.3891 53.9398 54.9325 53.9321C54.4753 53.9255 54.0507 53.7389 53.7369 53.4064L38.9227 37.7146L40.4161 36.2212L51.7945 46.9631C51.9064 47.0688 52.0493 47.1212 52.192 47.1212C52.3457 47.1212 52.4993 47.0603 52.6132 46.9396C52.8327 46.707 52.8222 46.3405 52.5896 46.1209L41.167 35.3373C41.5432 34.6031 41.4246 33.6787 40.8106 33.0646C40.1687 32.4228 39.1877 32.3221 38.4393 32.7621L37.4828 31.8591L38.4172 30.9247C38.4173 30.9246 38.4174 30.9245 38.4176 30.9243C38.4466 30.8954 38.4717 30.864 38.4932 30.831L39.9805 28.5613L40.1233 28.7041C40.4535 29.0343 40.8873 29.1994 41.3211 29.1994C41.7549 29.1994 42.1888 29.0342 42.519 28.7041L43.637 27.5861C44.2975 26.9256 44.2975 25.8509 43.637 25.1903L35.8452 17.3985C35.5253 17.0786 35.0999 16.9023 34.6473 16.9023C34.1948 16.9023 33.7694 17.0786 33.4494 17.3985L32.3314 18.5165C32.0115 18.8364 31.8352 19.2618 31.8352 19.7144C31.8352 20.1669 32.0115 20.5923 32.3314 20.9122L32.4742 21.055L30.2043 22.5424C30.1714 22.5639 30.1401 22.589 30.1111 22.618C30.111 22.6182 30.1109 22.6182 30.1107 22.6184L25.3198 27.4093C25.3197 27.4094 25.3196 27.4095 25.3195 27.4097C25.2904 27.4387 25.2652 27.4702 25.2436 27.5033L23.7565 29.7727L23.6137 29.6299C23.2937 29.3099 22.8683 29.1337 22.4158 29.1337C21.9633 29.1337 21.5379 29.3099 21.2178 29.6299L20.0998 30.7479C19.4394 31.4083 19.4394 32.4832 20.0998 33.1436L27.8917 40.9355C28.2117 41.2554 28.637 41.4317 29.0896 41.4317C29.5422 41.4317 29.9676 41.2554 30.2875 40.9355L31.4055 39.8175C31.7255 39.4975 31.9017 39.0721 31.9017 38.6196C31.9017 38.167 31.7255 37.7417 31.4055 37.4217L31.2627 37.2789L33.5331 35.7912C33.5659 35.7697 33.597 35.7447 33.6258 35.7159L34.5605 34.7812L35.4635 35.7376C35.0234 36.4861 35.1242 37.4671 35.766 38.1089C36.1468 38.4897 36.6468 38.68 37.147 38.68C37.4534 38.68 37.7596 38.6082 38.0386 38.4653L52.8944 54.2014C53.4249 54.7634 54.1427 55.079 54.9155 55.0901C54.9296 55.0903 54.9435 55.0904 54.9576 55.0904C55.7146 55.0904 56.4247 54.7964 56.9613 54.2599C57.5078 53.7134 57.8027 52.9868 57.7915 52.2141C57.7807 51.4415 57.465 50.7237 56.9031 50.1931ZM33.1504 19.3355L34.2684 18.2175C34.3696 18.1162 34.5041 18.0606 34.6473 18.0606C34.7904 18.0606 34.925 18.1163 35.0262 18.2175L42.8181 26.0093C42.9193 26.1105 42.9751 26.2451 42.9751 26.3882C42.9751 26.5313 42.9193 26.6659 42.8181 26.7671L41.7001 27.8851C41.4912 28.0941 41.1513 28.0941 40.9423 27.8851L40.2966 27.2395C40.2956 27.2384 40.2945 27.2373 40.2934 27.2362L33.7986 20.7414C33.798 20.7408 33.7974 20.7401 33.7968 20.7395L33.1504 20.0931C33.0491 19.9919 32.9934 19.8574 32.9934 19.7143C32.9935 19.5712 33.0492 19.4367 33.1504 19.3355ZM33.3109 21.8916L39.144 27.7247L37.914 29.6019L31.4338 23.1216L33.3109 21.8916ZM30.5866 38.9986L29.4686 40.1166C29.3675 40.2179 29.2329 40.2735 29.0898 40.2735C28.9467 40.2735 28.8121 40.2178 28.7109 40.1166L20.919 32.3247C20.71 32.1158 20.71 31.7758 20.919 31.5668L22.037 30.4488C22.1383 30.3477 22.2728 30.2919 22.4159 30.2919C22.5591 30.2919 22.6935 30.3477 22.7948 30.4488L23.4404 31.0945C23.4414 31.0955 23.4425 31.0966 23.4435 31.0976L30.5866 38.2406C30.7955 38.4497 30.7955 38.7896 30.5866 38.9986ZM30.4262 36.4425L24.5931 30.6093L25.8231 28.7322L32.3034 35.2125L30.4262 36.4425ZM33.2164 34.4876L26.548 27.8192L30.5206 23.8466L37.1891 30.515L33.2164 34.4876ZM35.38 33.962L36.6635 32.6785L37.5747 33.5387L36.2402 34.8731L35.38 33.962ZM37.7125 37.2868C37.7103 37.289 37.7078 37.2911 37.7056 37.2933C37.7056 37.2934 37.7056 37.2935 37.7055 37.2935C37.3953 37.5998 36.8939 37.5989 36.5852 37.2902C36.2753 36.9803 36.2753 36.4761 36.5852 36.1662L38.8676 33.8837C39.0225 33.7288 39.2261 33.6514 39.4296 33.6514C39.6331 33.6514 39.8367 33.7288 39.9916 33.8837C40.3003 34.1924 40.3013 34.6938 39.995 35.004C39.9949 35.0041 39.9948 35.0041 39.9947 35.0042C39.9927 35.0063 39.9904 35.0088 39.9882 35.0111L37.7125 37.2868Z" fill="#6A7FA4"/>
</g>
<defs>
<clipPath id="clip0">
<rect width="39.5417" height="39.5417" fill="white" transform="translate(18.25 16.2227)"/>
</clipPath>
</defs>
</svg>
