<svg width="73" height="73" viewBox="0 0 73 73" fill="none" xmlns="http://www.w3.org/2000/svg">
<path d="M52.0538 41.2462C51.7274 40.8958 51.3235 40.6015 50.8717 40.3684C51.3828 36.9708 49.5754 33.6276 46.3466 31.9319C47.0323 30.8686 47.2254 29.6715 46.8716 28.5299C46.4681 27.2277 45.4254 26.1708 44.1219 25.6905C44.1354 24.3287 43.4944 22.2649 40.5033 19.9347C38.3575 18.2626 37.1594 17.7941 36.3674 18.3169C36.0787 18.5075 35.6368 18.9885 35.9224 20.0696C36.0529 20.5569 36.058 21.0445 35.9364 21.4082C35.6181 22.3619 35.0725 23.0475 34.3976 23.5982C34.292 23.2592 34.1403 22.9329 33.9431 22.6266C33.3709 21.7387 32.4868 21.1269 31.4538 20.9038C30.7231 20.7461 29.9804 20.7973 29.2937 21.0429C29.0454 20.318 29.196 19.8171 29.557 19.2104C29.7831 18.8302 29.6583 18.3389 29.2782 18.1127C28.8982 17.8865 28.4068 18.0114 28.1807 18.3915C27.4737 19.5798 27.382 20.6574 27.9064 21.893C26.5473 23.1748 26.249 25.2871 27.2975 26.9117C27.5134 27.2466 27.7779 27.5431 28.079 27.7959C27.3028 28.8921 26.9009 30.4042 27.2437 32.6543C27.0416 32.7192 26.8499 32.7845 26.6702 32.8504C24.9869 33.4666 23.6761 34.4799 22.8794 35.7806C22.0702 37.1015 21.8432 38.6608 22.2102 40.3261C21.7247 40.5654 21.2914 40.8749 20.9451 41.2468C20.0706 42.1863 19.852 43.4063 20.3449 44.5937L24.649 54.9755C25.3146 56.578 26.3204 58.9998 28.9185 58.9998H31.9581C31.9692 58.9999 31.9803 58.9999 31.9916 58.9998H41.0062C41.0119 58.9998 41.0175 58.9999 41.0231 58.9999C41.0287 58.9999 41.0344 58.9999 41.0399 58.9998H44.0817C46.6798 58.9998 47.6857 56.578 48.3514 54.975L52.6555 44.5938C53.1481 43.4058 52.9287 42.1856 52.0538 41.2462ZM37.4554 21.9158C37.7137 21.1438 37.6284 20.3635 37.5215 19.87C37.8864 20.0433 38.5107 20.4123 39.5189 21.198C41.5414 22.7736 42.5785 24.3508 42.5182 25.759C42.4618 27.0749 41.434 28.0114 40.5815 28.5652C38.5891 29.8599 34.8395 30.7511 31.5313 31.5374C30.5724 31.7653 29.641 31.9867 28.7961 32.2087C28.5287 30.2396 28.9484 29.0852 29.7805 28.2474C29.9096 28.1441 30.0216 28.0187 30.1512 27.9142C30.2759 27.8136 30.4053 27.7189 30.5377 27.6289C30.8298 27.4304 31.1365 27.2543 31.4477 27.088C32.1332 26.7218 32.8416 26.4007 33.5295 26.0393C34.6091 25.4722 35.6491 24.7923 36.4195 23.8312C36.8771 23.2607 37.224 22.609 37.4554 21.9158ZM31.1161 22.4694C31.7307 22.6021 32.2566 22.966 32.5968 23.4939C32.8007 23.8106 32.9229 24.1627 32.9602 24.5288C32.5923 24.7269 32.2102 24.9145 31.8236 25.1045C30.9281 25.5443 29.9919 26.0041 29.1926 26.6386C28.978 26.4748 28.7919 26.2742 28.6434 26.0437C27.9401 24.954 28.2544 23.4952 29.3435 22.792C29.872 22.4513 30.5016 22.3368 31.1161 22.4694ZM27.2212 34.3543C28.3542 33.9388 30.0774 33.5293 31.9017 33.0956C35.3364 32.2793 39.2293 31.354 41.4542 29.9082C42.5927 29.1683 43.3825 28.2795 43.7932 27.2896C44.5256 27.6325 45.1125 28.2641 45.3417 29.0039C45.623 29.9115 45.3352 30.8339 44.5098 31.6707C44.5089 31.6715 44.508 31.6724 44.5071 31.6734C44.5063 31.6742 44.5056 31.6748 44.5048 31.6756C42.8294 33.3694 39.7456 34.7721 37.2671 35.8995C36.8969 36.0679 36.7089 36.5027 36.841 36.8876C36.9925 37.3285 37.5049 37.5508 37.9303 37.3573C40.3547 36.2545 43.3313 34.9002 45.2485 33.1771C47.6661 34.3127 49.6525 36.8201 49.3262 39.8472C48.4109 39.6783 47.44 39.7209 46.5698 40.0113C45.5805 40.3415 44.7969 40.9346 44.253 41.7462C43.4213 40.4742 41.9845 39.6321 40.3548 39.6321C38.753 39.6321 37.3374 40.4448 36.4991 41.6794C35.6613 40.4448 34.2464 39.6321 32.6453 39.6321C31.0156 39.6321 29.5787 40.4743 28.747 41.7462C28.2029 40.9345 27.4191 40.3412 26.4293 40.0111C25.5811 39.7282 24.6374 39.6808 23.7427 39.8349C23.0267 36.2086 26.1826 34.7345 27.2212 34.3543ZM28.9186 57.3984C27.626 57.3984 26.9648 56.3756 26.1283 54.3618L21.8243 43.9801C21.5715 43.3712 21.6701 42.8187 22.1175 42.3381C22.4329 41.9992 23.381 41.2761 24.7269 41.3446C25.1361 41.3654 25.545 41.4045 25.9229 41.5305C26.7587 41.8093 27.7958 42.5265 27.9945 44.3605C27.9963 44.3805 30.971 57.3984 30.971 57.3984H28.9186V57.3984ZM40.3844 57.3984H37.2999V54.8269C37.2999 54.3846 36.9413 54.0261 36.4991 54.0261C36.0569 54.0261 35.6983 54.3846 35.6983 54.8269V57.3984H32.6138L29.5938 44.2018C29.6391 42.5574 30.9907 41.2337 32.6454 41.2337C34.3287 41.2337 35.6983 42.6035 35.6983 44.2872V47.6571C35.6983 48.0994 36.0568 48.4579 36.499 48.4579C36.9412 48.4579 37.2998 48.0994 37.2998 47.6571V44.2871C37.2998 42.6034 38.6703 41.2336 40.3548 41.2336C42.0096 41.2336 43.3611 42.5574 43.4064 44.2018L40.3844 57.3984ZM51.1761 43.9804L46.8724 54.3613C46.0358 56.3756 45.3745 57.3984 44.0819 57.3984H42.0274C42.0274 57.3984 45.0042 44.3808 45.0061 44.3603C45.2048 42.5267 46.2414 41.8094 47.0769 41.5305C47.8845 41.2612 48.8122 41.2327 49.7468 41.6096C50.1945 41.7788 50.5906 42.025 50.8818 42.3377C51.3297 42.8186 51.4287 43.3713 51.1761 43.9804Z" fill="#6A7FA4"/>
<path d="M36.499 50.4414C36.0568 50.4414 35.6982 50.7999 35.6982 51.2422V51.2467C35.6982 51.6889 36.0568 52.0452 36.499 52.0452C36.9412 52.0452 37.2998 51.6845 37.2998 51.2422C37.2998 50.7999 36.9413 50.4414 36.499 50.4414Z" fill="#6A7FA4"/>
</svg>
