<svg width="52" height="52" viewBox="0 0 52 52" fill="none" xmlns="http://www.w3.org/2000/svg">
<path d="M40.6406 33.1264V16.9932C40.6406 16.0406 39.8656 15.2656 38.9131 15.2656H34.8066V14.6992C34.8066 13.7623 34.0444 13 33.1074 13C32.1705 13 31.4082 13.7623 31.4082 14.6992V15.2656H22.2324V14.6992C22.2324 13.7623 21.4702 13 20.5332 13C19.5963 13 18.834 13.7623 18.834 14.6992V15.2656H14.7275C13.775 15.2656 13 16.0406 13 16.9932V38.0068C13 38.9594 13.775 39.7344 14.7275 39.7344H22.4477C22.7605 39.7344 23.0141 39.4808 23.0141 39.168C23.0141 38.8551 22.7605 38.6016 22.4477 38.6016H14.7275C14.3996 38.6016 14.1328 38.3348 14.1328 38.0068V16.9932C14.1328 16.6652 14.3996 16.3984 14.7275 16.3984H18.834V16.9648C18.834 17.9018 19.5963 18.6641 20.5332 18.6641C21.4702 18.6641 22.2324 17.9018 22.2324 16.9648V16.3984H31.4082V16.9648C31.4082 17.9018 32.1705 18.6641 33.1074 18.6641C34.0444 18.6641 34.8066 17.9018 34.8066 16.9648V16.3984H38.9131C39.241 16.3984 39.5078 16.6652 39.5078 16.9932V19.7969H18.0977C17.7849 19.7969 17.5312 20.0505 17.5312 20.3633C17.5312 20.6761 17.7849 20.9297 18.0977 20.9297H39.5078V32.1693C39.0256 31.8651 38.4915 31.6363 37.9219 31.4992V23.082C37.9219 22.7692 37.6682 22.5156 37.3555 22.5156H16.2852C15.9724 22.5156 15.7188 22.7692 15.7188 23.082V36.4492C15.7188 36.762 15.9724 37.0156 16.2852 37.0156H31.3627C31.3979 37.5716 31.5186 38.1045 31.7121 38.6016H26.9789C26.6661 38.6016 26.4125 38.8551 26.4125 39.168C26.4125 39.4808 26.6661 39.7344 26.9789 39.7344H32.3203C33.2847 41.1036 34.8774 42 36.6758 42C39.6116 42 42 39.6116 42 36.6758C42 35.3133 41.4854 34.0691 40.6406 33.1264ZM21.0996 16.9648C21.0996 17.2772 20.8455 17.5312 20.5332 17.5312C20.2209 17.5312 19.9668 17.2772 19.9668 16.9648V14.6992C19.9668 14.3869 20.2209 14.1328 20.5332 14.1328C20.8455 14.1328 21.0996 14.3869 21.0996 14.6992V16.9648ZM33.6738 16.9648C33.6738 17.2772 33.4197 17.5312 33.1074 17.5312C32.7951 17.5312 32.541 17.2772 32.541 16.9648V14.6992C32.541 14.3869 32.7951 14.1328 33.1074 14.1328C33.4197 14.1328 33.6738 14.3869 33.6738 14.6992V16.9648ZM36.6758 31.3516C36.4125 31.3516 36.1536 31.3711 35.9004 31.4082H33.7078V28.123H36.7891V31.353C36.7514 31.3522 36.7137 31.3516 36.6758 31.3516ZM31.4106 35.8828H29.4938V32.541H32.575V33.2838C31.971 34.0127 31.5573 34.9047 31.4106 35.8828ZM16.8516 28.123H19.9328V31.4082H16.8516V28.123ZM21.0656 28.123H24.1469V31.4082H21.0656V28.123ZM29.4938 28.123H32.575V31.4082H29.4938V28.123ZM28.3609 31.4082H25.2797V28.123H28.3609V31.4082ZM29.4938 26.9902V23.6484H32.575V26.9902H29.4938ZM28.3609 26.9902H25.2797V23.6484H28.3609V26.9902ZM24.1469 26.9902H21.0656V23.6484H24.1469V26.9902ZM24.1469 32.541V35.8828H21.0656V32.541H24.1469ZM25.2797 32.541H28.3609V35.8828H25.2797V32.541ZM36.7891 26.9902H33.7078V23.6484H36.7891V26.9902ZM19.9328 23.6484V26.9902H16.8516V23.6484H19.9328ZM16.8516 32.541H19.9328V35.8828H16.8516V32.541ZM36.6758 40.8672C34.3646 40.8672 32.4844 38.9869 32.4844 36.6758C32.4844 34.3646 34.3646 32.4844 36.6758 32.4844C38.9869 32.4844 40.8672 34.3646 40.8672 36.6758C40.8672 38.9869 38.9869 40.8672 36.6758 40.8672Z" fill="#6A7FA4"/>
<path d="M38.3142 35.3026L36.5624 37.0545L35.7829 36.275C35.5617 36.0538 35.2032 36.0538 34.9818 36.275C34.7606 36.4961 34.7606 36.8548 34.9818 37.076L36.1618 38.256C36.2681 38.3622 36.4121 38.4219 36.5623 38.4219C36.7125 38.4219 36.8566 38.3622 36.9628 38.256L39.1152 36.1036C39.3363 35.8824 39.3363 35.5238 39.1152 35.3026C38.894 35.0814 38.5354 35.0814 38.3142 35.3026Z" fill="#6A7FA4"/>
<path d="M24.7134 38.6016C24.5644 38.6016 24.4183 38.6622 24.3129 38.7675C24.2076 38.8729 24.147 39.019 24.147 39.168C24.147 39.3169 24.2076 39.4631 24.3129 39.5684C24.4183 39.6738 24.5644 39.7344 24.7134 39.7344C24.8623 39.7344 25.0085 39.6738 25.1138 39.5684C25.2191 39.4631 25.2798 39.3169 25.2798 39.168C25.2798 39.019 25.2192 38.8729 25.1138 38.7675C25.0085 38.6622 24.8623 38.6016 24.7134 38.6016Z" fill="#6A7FA4"/>
<path d="M16.2324 20.7637C16.3378 20.6584 16.3984 20.5122 16.3984 20.3633C16.3984 20.2143 16.3378 20.0682 16.2324 19.9628C16.1271 19.8575 15.981 19.7969 15.832 19.7969C15.6824 19.7969 15.5369 19.8575 15.4316 19.9628C15.3262 20.0682 15.2656 20.2143 15.2656 20.3633C15.2656 20.5122 15.3262 20.6584 15.4316 20.7637C15.537 20.8691 15.6824 20.9297 15.832 20.9297C15.981 20.9297 16.1271 20.8691 16.2324 20.7637Z" fill="#6A7FA4"/>
</svg>
