<svg width="30" height="30" viewBox="0 0 30 30" fill="none" xmlns="http://www.w3.org/2000/svg">
<circle cx="15" cy="15" r="14.5" stroke="#F0695A"/>
<path d="M21.7262 12.6438H21.0997C20.943 11.8621 20.6399 11.1307 20.1964 10.4662C20.3756 10.2549 20.4839 9.98187 20.4839 9.68388V8.94773C20.4839 8.68556 20.2706 8.47231 20.0085 8.47231H18.5362C18.4158 8.47231 18.3061 8.51761 18.2223 8.59157C17.6296 8.23903 16.9885 7.99226 16.3124 7.85655V7.47542C16.3124 7.21325 16.0991 7 15.837 7H14.3646C14.1025 7 13.8892 7.21328 13.8892 7.47542V7.85655C13.213 7.99226 12.572 8.239 11.9793 8.59161C11.8955 8.51761 11.7858 8.47231 11.6654 8.47231H10.1931C9.93095 8.47231 9.7177 8.68559 9.7177 8.94773V9.68388C9.7177 9.98187 9.82604 10.2549 10.0052 10.4662C9.56194 11.1304 9.25887 11.8618 9.10204 12.6438H8.47542C8.21325 12.6438 8 12.8571 8 13.1193V13.8554C8 14.4862 8.48461 15.0056 9.101 15.0617C9.24914 15.8035 9.52931 16.5002 9.93551 17.1371C9.80464 17.2219 9.71767 17.369 9.71767 17.5361V18.2723C9.71767 18.9404 10.2612 19.4839 10.9292 19.4839C11.3034 19.4839 11.6384 19.3133 11.8608 19.046C11.9621 19.1083 12.0661 19.1677 12.1731 19.2235L10.7825 22.2138H9.21157C9.08453 22.2138 8.98152 22.3168 8.98152 22.4438C8.98152 22.5709 9.08453 22.6739 9.21157 22.6739H20.99C21.1171 22.6739 21.2201 22.5709 21.2201 22.4438C21.2201 22.3168 21.1171 22.2138 20.99 22.2138H19.4467L18.9216 21.0928C18.8677 20.9778 18.7307 20.9283 18.6157 20.9821C18.5006 21.036 18.451 21.1729 18.5049 21.288L18.9386 22.2137H18.6242L17.3628 19.4961C17.448 19.4627 17.5323 19.4272 17.6158 19.3899L18.1615 20.5547C18.2183 20.6758 18.3708 20.723 18.4864 20.6554C18.5876 20.5962 18.6278 20.4655 18.5782 20.3595L18.0288 19.1866C18.127 19.1336 18.2241 19.078 18.3197 19.0195C18.5417 19.3019 18.8861 19.4838 19.2724 19.4838C19.9405 19.4838 20.484 18.9403 20.484 18.2722V17.5361C20.484 17.3654 20.3933 17.216 20.2579 17.132C20.6683 16.4985 20.9511 15.8037 21.1002 15.0617C21.7168 15.0058 22.2017 14.4862 22.2017 13.8553V13.1193C22.2016 12.8571 21.9883 12.6438 21.7262 12.6438ZM20.6296 12.6439H20.2539V12.6438C19.9917 12.6438 19.7785 12.8571 19.7785 13.1193V13.61V13.6253H17.8451C17.7964 13.0386 17.5629 12.5035 17.2031 12.0785L18.5942 10.6874C18.7878 10.8186 19.0213 10.8955 19.2723 10.8955C19.4758 10.8955 19.6675 10.8448 19.8361 10.7558C20.2166 11.3352 20.4828 11.9687 20.6296 12.6439ZM16.003 14.4322C16.0701 14.3276 16.1195 14.2106 16.1471 14.0855H17.3832C17.3372 14.5456 17.1545 14.9661 16.8765 15.3058L16.003 14.4322ZM16.5512 15.6311C16.5063 15.6678 16.4598 15.7026 16.4122 15.7359L16.1974 15.2774L16.5512 15.6311ZM15.837 18.5331H15.3309V16.5997C15.3884 16.595 15.4455 16.5884 15.502 16.5801L16.731 19.2278C16.5933 19.2687 16.4537 19.3046 16.3124 19.3353V19.0085C16.3124 18.7463 16.0991 18.5331 15.837 18.5331ZM15.6776 12.9533C15.573 12.8862 15.456 12.8367 15.3309 12.8092V11.5731C15.791 11.6191 16.2115 11.8018 16.5512 12.0797L15.6776 12.9533ZM16.8765 12.4051C17.1544 12.7448 17.3371 13.1652 17.3831 13.6254H16.147C16.1195 13.5002 16.07 13.3833 16.0029 13.2786L16.8765 12.4051ZM15.7121 13.8554C15.7121 14.1925 15.4378 14.4667 15.1008 14.4667C14.7637 14.4667 14.4895 14.1925 14.4895 13.8554C14.4895 13.5184 14.7637 13.2441 15.1008 13.2441C15.4378 13.2441 15.7121 13.5184 15.7121 13.8554ZM14.8707 12.8092C14.7456 12.8367 14.6286 12.8862 14.524 12.9533L13.6504 12.0798C13.9901 11.8018 14.4105 11.6191 14.8707 11.5731V12.8092ZM14.1987 13.2786C14.1315 13.3833 14.0821 13.5002 14.0546 13.6254H12.8184C12.8645 13.1652 13.0472 12.7448 13.3251 12.4051L14.1987 13.2786ZM14.0546 14.0855C14.0821 14.2106 14.1315 14.3276 14.1987 14.4322L13.3251 15.3058C13.0472 14.9661 12.8645 14.5457 12.8184 14.0855H14.0546V14.0855ZM14.0119 15.2697L13.7937 15.7389C13.7446 15.7047 13.6967 15.6689 13.6505 15.6311L14.0119 15.2697ZM14.0026 16.3807C14.0823 16.4154 14.1638 16.4465 14.2471 16.4737L13.0385 19.0994C12.9517 19.0685 12.867 19.0357 12.784 19.0013L14.0026 16.3807ZM14.7043 16.5808C14.7593 16.5887 14.8148 16.5951 14.8708 16.5997V18.533H14.3647C14.1025 18.533 13.8893 18.7463 13.8893 19.0084V19.3359C13.749 19.3066 13.6132 19.2738 13.4813 19.2378L14.7043 16.5808ZM14.3493 19.7293H15.8523V19.7446C15.8523 20.159 15.5152 20.4961 15.1008 20.4961C14.6865 20.4961 14.3493 20.159 14.3493 19.7446V19.7293ZM14.3493 19.2692V19.0085C14.3493 19 14.3562 18.9931 14.3646 18.9931H15.837C15.8454 18.9931 15.8523 19 15.8523 19.0085V19.2692H14.3493ZM14.907 16.1405L15.1017 15.7175L15.2979 16.1403C15.2329 16.1458 15.1672 16.1493 15.1008 16.1493C15.0355 16.1493 14.9709 16.1459 14.907 16.1405ZM15.3095 15.0724C15.2718 14.9912 15.1903 14.9392 15.1008 14.9392C15.1007 14.9392 15.1006 14.9392 15.1004 14.9392C15.0107 14.9393 14.9293 14.9915 14.8918 15.073L14.4411 16.0522C14.3576 16.027 14.276 15.9974 14.1967 15.9633L14.7127 14.8537C14.8331 14.9007 14.964 14.9268 15.1008 14.9268C15.2383 14.9268 15.3696 14.9004 15.4905 14.8531L16.0096 15.9612C15.9299 15.9957 15.8479 16.0258 15.7638 16.0513L15.3095 15.0724ZM18.5208 8.94773C18.5208 8.93925 18.5277 8.93239 18.5362 8.93239H20.0085C20.0169 8.93239 20.0238 8.93925 20.0238 8.94773V9.20846H18.5208V8.94773V8.94773ZM18.5208 9.66854H20.0238V9.68388C20.0238 10.0982 19.6867 10.4354 19.2723 10.4354C18.8579 10.4354 18.5208 10.0982 18.5208 9.68388V9.66854ZM16.3069 8.32533C16.9285 8.46 17.5172 8.69695 18.0607 9.03139V9.68391C18.0607 9.93497 18.1375 10.1684 18.2688 10.3621L16.8777 11.7532C16.4527 11.3934 15.9176 11.1599 15.3309 11.1111V9.40099C15.8529 9.30021 16.2566 8.86342 16.3069 8.32533ZM14.3493 7.47542C14.3493 7.46694 14.3562 7.46008 14.3646 7.46008H15.837C15.8454 7.46008 15.8523 7.46694 15.8523 7.47542V7.73615H14.3493V7.47542ZM14.3493 8.19624H15.8523V8.21157C15.8523 8.62592 15.5152 8.96306 15.1008 8.96306C14.6865 8.96306 14.3493 8.62592 14.3493 8.21157V8.19624ZM12.1409 9.68388V9.03121C12.6844 8.69679 13.2731 8.46 13.8947 8.32533C13.9451 8.86342 14.3487 9.30021 14.8707 9.40102V11.1112C14.284 11.1599 13.7489 11.3934 13.3239 11.7532L11.9327 10.3621C12.064 10.1684 12.1409 9.93494 12.1409 9.68388ZM10.1778 8.94773C10.1778 8.93925 10.1846 8.93239 10.1931 8.93239H11.6654C11.6739 8.93239 11.6808 8.93925 11.6808 8.94773V9.20846H10.1778V8.94773ZM10.1778 9.66854H11.6808V9.68388C11.6808 10.0982 11.3436 10.4354 10.9293 10.4354C10.5149 10.4354 10.1778 10.0982 10.1778 9.68388V9.66854ZM10.3656 10.7559C10.5341 10.8449 10.7258 10.8955 10.9293 10.8955C11.1803 10.8955 11.4138 10.8187 11.6074 10.6874L12.9986 12.0785C12.6388 12.5035 12.4053 13.0386 12.3565 13.6254H10.4232V13.6101V13.1193C10.4232 12.8571 10.2099 12.6438 9.94776 12.6438H9.57183C9.71871 11.9684 9.98514 11.335 10.3656 10.7559ZM8.46008 13.1193C8.46008 13.1108 8.46694 13.1039 8.47542 13.1039H9.94773C9.95621 13.1039 9.96306 13.1108 9.96306 13.1193V13.38H8.46008V13.1193ZM8.46008 13.8554V13.8401H9.96306V13.8554C9.96306 14.2698 9.62592 14.6069 9.21157 14.6069C8.79723 14.6069 8.46008 14.2698 8.46008 13.8554ZM11.6808 18.2723C11.6808 18.6867 11.3436 19.0238 10.9293 19.0238C10.5149 19.0238 10.1778 18.6867 10.1778 18.2723V18.257H11.6808V18.2723ZM11.6808 17.7969H10.1778V17.5362C10.1778 17.5277 10.1846 17.5208 10.1931 17.5208H11.6654C11.6739 17.5208 11.6808 17.5277 11.6808 17.5362V17.7969ZM11.5702 17.0607H10.4367C10.0082 16.4387 9.7139 15.7514 9.56093 15.0155C9.98749 14.8868 10.3154 14.5288 10.401 14.0855H12.3565C12.4053 14.6723 12.6388 15.2073 12.9986 15.6324L11.5702 17.0607ZM12.0828 18.6425C12.1203 18.5258 12.1409 18.4014 12.1409 18.2723V17.5362C12.1409 17.4254 12.1025 17.3237 12.0388 17.2428L13.3239 15.9577C13.4106 16.031 13.5018 16.0992 13.5971 16.1615L12.3674 18.8057C12.2699 18.7542 12.175 18.6998 12.0828 18.6425ZM11.29 22.2138L12.5897 19.4191C12.6732 19.454 12.7586 19.4871 12.8455 19.5187L11.6049 22.2138H11.29ZM18.117 22.2138H12.1114L13.2864 19.6612C13.4797 19.7162 13.6811 19.7641 13.8908 19.8054C13.9225 20.4453 14.4531 20.9562 15.1008 20.9562C15.7485 20.9562 16.2792 20.4452 16.3108 19.8052C16.5197 19.7634 16.725 19.7113 16.9265 19.6491L18.117 22.2138ZM17.1687 19.078L15.9592 16.4723C16.0429 16.4447 16.1249 16.4133 16.2049 16.3781L17.4206 18.9733C17.3375 19.0102 17.2535 19.0451 17.1687 19.078ZM18.1087 18.6091C18.0182 18.6653 17.9264 18.7187 17.8333 18.7695L16.6099 16.1579C16.7032 16.0965 16.7927 16.0296 16.8777 15.9576L18.1628 17.2428C18.0991 17.3237 18.0607 17.4254 18.0607 17.5362V18.2723C18.0607 18.3892 18.0777 18.5021 18.1087 18.6091ZM20.0238 18.2723C20.0238 18.6867 19.6867 19.0238 19.2723 19.0238C18.8579 19.0238 18.5208 18.6867 18.5208 18.2723V18.257H20.0238V18.2723ZM20.0238 17.7969H18.5208V17.5362C18.5208 17.5277 18.5277 17.5208 18.5362 17.5208H20.0085C20.0169 17.5208 20.0238 17.5277 20.0238 17.5362V17.7969V17.7969ZM19.7513 17.0607H18.6315L17.2031 15.6323C17.5629 15.2073 17.7964 14.6723 17.8452 14.0855H19.8007C19.8862 14.5287 20.214 14.8866 20.6405 15.0154C20.4859 15.7539 20.187 16.4411 19.7513 17.0607ZM21.7415 13.8554C21.7415 14.2698 21.4044 14.6069 20.99 14.6069C20.5756 14.6069 20.2385 14.2698 20.2385 13.8554V13.8401H21.7415V13.8554ZM21.7415 13.38H20.2385V13.1193C20.2385 13.1108 20.2454 13.1039 20.2539 13.1039H21.7262C21.7346 13.1039 21.7415 13.1108 21.7415 13.1193V13.38V13.38Z" fill="#F0695A"/>
</svg>
