<svg width="20"
     height="20"
     viewBox="0 0 20 20"
     fill="none"
     xmlns="http://www.w3.org/2000/svg">
<path d="M17.1847 0.933105H2.0888C1.54285 0.933105 1.01925 1.13843 0.633203 1.5039C0.247154 1.86937 0.0302734 2.36505 0.0302734 2.88191L0.0302734 17.1731C0.0302734 17.69 0.247154 18.1857 0.633203 18.5511C1.01925 18.9166 1.54285 19.1219 2.0888 19.1219H7.97491V12.9381H5.27309V10.0275H7.97491V7.80913C7.97491 5.28583 9.5617 3.89204 11.9921 3.89204C13.156 3.89204 14.3731 4.08854 14.3731 4.08854V6.56514H13.032C11.7107 6.56514 11.2986 7.34141 11.2986 8.13758V10.0275H14.2483L13.7765 12.9381H11.2986V19.1219H17.1847C17.7306 19.1219 18.2542 18.9166 18.6403 18.5511C19.0263 18.1857 19.2432 17.69 19.2432 17.1731V2.88191C19.2432 2.36505 19.0263 1.86937 18.6403 1.5039C18.2542 1.13843 17.7306 0.933105 17.1847 0.933105Z"
      fill="white" />
</svg>