<svg width="30" height="30" viewBox="0 0 30 30" fill="none" xmlns="http://www.w3.org/2000/svg">
<circle cx="15" cy="15" r="14.5" stroke="#4C88F8"/>
<g clip-path="url(#clip0)">
<mask id="path-2-outside-1" maskUnits="userSpaceOnUse" x="5" y="8.6875" width="20" height="12" fill="black">
<rect fill="white" x="5" y="8.6875" width="20" height="12"/>
<path d="M23.3848 13.3262H22.9453V11.5508C22.9453 11.134 22.6062 10.7949 22.1895 10.7949H21.0645C20.9848 10.7949 20.9081 10.8075 20.8359 10.8304V10.7246C20.8359 10.1528 20.3707 9.6875 19.7988 9.6875H18.3926C17.8207 9.6875 17.3555 10.1528 17.3555 10.7246V13.8286H12.6445V10.7246C12.6445 10.1528 12.1793 9.6875 11.6074 9.6875H10.2012C9.62932 9.6875 9.16406 10.1528 9.16406 10.7246V10.8304C9.09192 10.8075 9.01518 10.7949 8.93555 10.7949H7.81055C7.39377 10.7949 7.05469 11.134 7.05469 11.5508V11.8913C7.05469 12.037 7.17274 12.155 7.31836 12.155C7.46398 12.155 7.58203 12.037 7.58203 11.8913V11.5508C7.58203 11.4248 7.68455 11.3223 7.81055 11.3223H8.93555C9.06155 11.3223 9.16406 11.4248 9.16406 11.5508V18.4414C9.16406 18.5674 9.06155 18.6699 8.93555 18.6699H7.81055C7.68455 18.6699 7.58203 18.5674 7.58203 18.4414V13.0196C7.58203 12.874 7.46398 12.7559 7.31836 12.7559C7.17274 12.7559 7.05469 12.874 7.05469 13.0196V13.3262H6.61523C6.27601 13.3262 6 13.6022 6 13.9414V16.0508C6 16.39 6.27601 16.666 6.61523 16.666H7.05469V18.4414C7.05469 18.8582 7.39377 19.1973 7.81055 19.1973H8.93555C9.01518 19.1973 9.09192 19.1847 9.16406 19.1618V19.2676C9.16406 19.8394 9.62932 20.3047 10.2012 20.3047H11.6074C12.1793 20.3047 12.6445 19.8394 12.6445 19.2676V16.1636H13.0283C13.1739 16.1636 13.292 16.0455 13.292 15.8999C13.292 15.7543 13.1739 15.6363 13.0283 15.6363H12.6445V14.3559H17.3555V15.6363H14.1713C14.0257 15.6363 13.9076 15.7543 13.9076 15.8999C13.9076 16.0455 14.0257 16.1636 14.1713 16.1636H17.3555V19.2676C17.3555 19.8394 17.8207 20.3047 18.3926 20.3047H19.7988C20.3707 20.3047 20.8359 19.8394 20.8359 19.2676V19.1618C20.9081 19.1847 20.9848 19.1973 21.0645 19.1973H22.1895C22.6062 19.1973 22.9453 18.8582 22.9453 18.4414V18.0853C22.9453 17.9397 22.8273 17.8217 22.6816 17.8217C22.536 17.8217 22.418 17.9397 22.418 18.0853V18.4414C22.418 18.5674 22.3155 18.6699 22.1895 18.6699H21.0645C20.9385 18.6699 20.8359 18.5674 20.8359 18.4414V11.5508C20.8359 11.4248 20.9385 11.3223 21.0645 11.3223H22.1895C22.3155 11.3223 22.418 11.4248 22.418 11.5508V16.9473C22.418 17.0929 22.536 17.2109 22.6816 17.2109C22.8273 17.2109 22.9453 17.0929 22.9453 16.9473V16.666H23.3848C23.724 16.666 24 16.39 24 16.0508V13.9414C24 13.6022 23.724 13.3262 23.3848 13.3262ZM6.61523 16.1387C6.56679 16.1387 6.52734 16.0992 6.52734 16.0508V13.9414C6.52734 13.893 6.56679 13.8535 6.61523 13.8535H7.05469V16.1387H6.61523ZM12.1172 19.2676C12.1172 19.5487 11.8885 19.7773 11.6074 19.7773H10.2012C9.9201 19.7773 9.69141 19.5487 9.69141 19.2676V10.7246C9.69141 10.4435 9.9201 10.2148 10.2012 10.2148H11.6074C11.8885 10.2148 12.1172 10.4435 12.1172 10.7246V19.2676ZM20.3086 19.2676C20.3086 19.5487 20.0799 19.7773 19.7988 19.7773H18.3926C18.1115 19.7773 17.8828 19.5487 17.8828 19.2676V10.7246C17.8828 10.4435 18.1115 10.2148 18.3926 10.2148H19.7988C20.0799 10.2148 20.3086 10.4435 20.3086 10.7246V19.2676ZM23.4727 16.0508C23.4727 16.0992 23.4332 16.1387 23.3848 16.1387H22.9453V13.8535H23.3848C23.4332 13.8535 23.4727 13.893 23.4727 13.9414V16.0508Z"/>
</mask>
<path d="M23.3848 13.3262H22.9453V11.5508C22.9453 11.134 22.6062 10.7949 22.1895 10.7949H21.0645C20.9848 10.7949 20.9081 10.8075 20.8359 10.8304V10.7246C20.8359 10.1528 20.3707 9.6875 19.7988 9.6875H18.3926C17.8207 9.6875 17.3555 10.1528 17.3555 10.7246V13.8286H12.6445V10.7246C12.6445 10.1528 12.1793 9.6875 11.6074 9.6875H10.2012C9.62932 9.6875 9.16406 10.1528 9.16406 10.7246V10.8304C9.09192 10.8075 9.01518 10.7949 8.93555 10.7949H7.81055C7.39377 10.7949 7.05469 11.134 7.05469 11.5508V11.8913C7.05469 12.037 7.17274 12.155 7.31836 12.155C7.46398 12.155 7.58203 12.037 7.58203 11.8913V11.5508C7.58203 11.4248 7.68455 11.3223 7.81055 11.3223H8.93555C9.06155 11.3223 9.16406 11.4248 9.16406 11.5508V18.4414C9.16406 18.5674 9.06155 18.6699 8.93555 18.6699H7.81055C7.68455 18.6699 7.58203 18.5674 7.58203 18.4414V13.0196C7.58203 12.874 7.46398 12.7559 7.31836 12.7559C7.17274 12.7559 7.05469 12.874 7.05469 13.0196V13.3262H6.61523C6.27601 13.3262 6 13.6022 6 13.9414V16.0508C6 16.39 6.27601 16.666 6.61523 16.666H7.05469V18.4414C7.05469 18.8582 7.39377 19.1973 7.81055 19.1973H8.93555C9.01518 19.1973 9.09192 19.1847 9.16406 19.1618V19.2676C9.16406 19.8394 9.62932 20.3047 10.2012 20.3047H11.6074C12.1793 20.3047 12.6445 19.8394 12.6445 19.2676V16.1636H13.0283C13.1739 16.1636 13.292 16.0455 13.292 15.8999C13.292 15.7543 13.1739 15.6363 13.0283 15.6363H12.6445V14.3559H17.3555V15.6363H14.1713C14.0257 15.6363 13.9076 15.7543 13.9076 15.8999C13.9076 16.0455 14.0257 16.1636 14.1713 16.1636H17.3555V19.2676C17.3555 19.8394 17.8207 20.3047 18.3926 20.3047H19.7988C20.3707 20.3047 20.8359 19.8394 20.8359 19.2676V19.1618C20.9081 19.1847 20.9848 19.1973 21.0645 19.1973H22.1895C22.6062 19.1973 22.9453 18.8582 22.9453 18.4414V18.0853C22.9453 17.9397 22.8273 17.8217 22.6816 17.8217C22.536 17.8217 22.418 17.9397 22.418 18.0853V18.4414C22.418 18.5674 22.3155 18.6699 22.1895 18.6699H21.0645C20.9385 18.6699 20.8359 18.5674 20.8359 18.4414V11.5508C20.8359 11.4248 20.9385 11.3223 21.0645 11.3223H22.1895C22.3155 11.3223 22.418 11.4248 22.418 11.5508V16.9473C22.418 17.0929 22.536 17.2109 22.6816 17.2109C22.8273 17.2109 22.9453 17.0929 22.9453 16.9473V16.666H23.3848C23.724 16.666 24 16.39 24 16.0508V13.9414C24 13.6022 23.724 13.3262 23.3848 13.3262ZM6.61523 16.1387C6.56679 16.1387 6.52734 16.0992 6.52734 16.0508V13.9414C6.52734 13.893 6.56679 13.8535 6.61523 13.8535H7.05469V16.1387H6.61523ZM12.1172 19.2676C12.1172 19.5487 11.8885 19.7773 11.6074 19.7773H10.2012C9.9201 19.7773 9.69141 19.5487 9.69141 19.2676V10.7246C9.69141 10.4435 9.9201 10.2148 10.2012 10.2148H11.6074C11.8885 10.2148 12.1172 10.4435 12.1172 10.7246V19.2676ZM20.3086 19.2676C20.3086 19.5487 20.0799 19.7773 19.7988 19.7773H18.3926C18.1115 19.7773 17.8828 19.5487 17.8828 19.2676V10.7246C17.8828 10.4435 18.1115 10.2148 18.3926 10.2148H19.7988C20.0799 10.2148 20.3086 10.4435 20.3086 10.7246V19.2676ZM23.4727 16.0508C23.4727 16.0992 23.4332 16.1387 23.3848 16.1387H22.9453V13.8535H23.3848C23.4332 13.8535 23.4727 13.893 23.4727 13.9414V16.0508Z" fill="#4C88F8"/>
<path d="M23.3848 13.3262H22.9453V11.5508C22.9453 11.134 22.6062 10.7949 22.1895 10.7949H21.0645C20.9848 10.7949 20.9081 10.8075 20.8359 10.8304V10.7246C20.8359 10.1528 20.3707 9.6875 19.7988 9.6875H18.3926C17.8207 9.6875 17.3555 10.1528 17.3555 10.7246V13.8286H12.6445V10.7246C12.6445 10.1528 12.1793 9.6875 11.6074 9.6875H10.2012C9.62932 9.6875 9.16406 10.1528 9.16406 10.7246V10.8304C9.09192 10.8075 9.01518 10.7949 8.93555 10.7949H7.81055C7.39377 10.7949 7.05469 11.134 7.05469 11.5508V11.8913C7.05469 12.037 7.17274 12.155 7.31836 12.155C7.46398 12.155 7.58203 12.037 7.58203 11.8913V11.5508C7.58203 11.4248 7.68455 11.3223 7.81055 11.3223H8.93555C9.06155 11.3223 9.16406 11.4248 9.16406 11.5508V18.4414C9.16406 18.5674 9.06155 18.6699 8.93555 18.6699H7.81055C7.68455 18.6699 7.58203 18.5674 7.58203 18.4414V13.0196C7.58203 12.874 7.46398 12.7559 7.31836 12.7559C7.17274 12.7559 7.05469 12.874 7.05469 13.0196V13.3262H6.61523C6.27601 13.3262 6 13.6022 6 13.9414V16.0508C6 16.39 6.27601 16.666 6.61523 16.666H7.05469V18.4414C7.05469 18.8582 7.39377 19.1973 7.81055 19.1973H8.93555C9.01518 19.1973 9.09192 19.1847 9.16406 19.1618V19.2676C9.16406 19.8394 9.62932 20.3047 10.2012 20.3047H11.6074C12.1793 20.3047 12.6445 19.8394 12.6445 19.2676V16.1636H13.0283C13.1739 16.1636 13.292 16.0455 13.292 15.8999C13.292 15.7543 13.1739 15.6363 13.0283 15.6363H12.6445V14.3559H17.3555V15.6363H14.1713C14.0257 15.6363 13.9076 15.7543 13.9076 15.8999C13.9076 16.0455 14.0257 16.1636 14.1713 16.1636H17.3555V19.2676C17.3555 19.8394 17.8207 20.3047 18.3926 20.3047H19.7988C20.3707 20.3047 20.8359 19.8394 20.8359 19.2676V19.1618C20.9081 19.1847 20.9848 19.1973 21.0645 19.1973H22.1895C22.6062 19.1973 22.9453 18.8582 22.9453 18.4414V18.0853C22.9453 17.9397 22.8273 17.8217 22.6816 17.8217C22.536 17.8217 22.418 17.9397 22.418 18.0853V18.4414C22.418 18.5674 22.3155 18.6699 22.1895 18.6699H21.0645C20.9385 18.6699 20.8359 18.5674 20.8359 18.4414V11.5508C20.8359 11.4248 20.9385 11.3223 21.0645 11.3223H22.1895C22.3155 11.3223 22.418 11.4248 22.418 11.5508V16.9473C22.418 17.0929 22.536 17.2109 22.6816 17.2109C22.8273 17.2109 22.9453 17.0929 22.9453 16.9473V16.666H23.3848C23.724 16.666 24 16.39 24 16.0508V13.9414C24 13.6022 23.724 13.3262 23.3848 13.3262ZM6.61523 16.1387C6.56679 16.1387 6.52734 16.0992 6.52734 16.0508V13.9414C6.52734 13.893 6.56679 13.8535 6.61523 13.8535H7.05469V16.1387H6.61523ZM12.1172 19.2676C12.1172 19.5487 11.8885 19.7773 11.6074 19.7773H10.2012C9.9201 19.7773 9.69141 19.5487 9.69141 19.2676V10.7246C9.69141 10.4435 9.9201 10.2148 10.2012 10.2148H11.6074C11.8885 10.2148 12.1172 10.4435 12.1172 10.7246V19.2676ZM20.3086 19.2676C20.3086 19.5487 20.0799 19.7773 19.7988 19.7773H18.3926C18.1115 19.7773 17.8828 19.5487 17.8828 19.2676V10.7246C17.8828 10.4435 18.1115 10.2148 18.3926 10.2148H19.7988C20.0799 10.2148 20.3086 10.4435 20.3086 10.7246V19.2676ZM23.4727 16.0508C23.4727 16.0992 23.4332 16.1387 23.3848 16.1387H22.9453V13.8535H23.3848C23.4332 13.8535 23.4727 13.893 23.4727 13.9414V16.0508Z" stroke="#4C88F8" stroke-width="0.3" mask="url(#path-2-outside-1)"/>
</g>
<defs>
<clipPath id="clip0">
<rect width="18" height="18" fill="white" transform="translate(6 6)"/>
</clipPath>
</defs>
</svg>
