<svg width="25" height="26" viewBox="0 0 25 26" fill="none" xmlns="http://www.w3.org/2000/svg">
<path fill-rule="evenodd" clip-rule="evenodd" d="M12.6757 10.4257V15.5743C12.6757 15.5743 17.5457 15.5676 19.5286 15.5676C18.4548 18.9052 16.7852 20.7228 12.6757 20.7228C8.51695 20.7228 5.27108 17.2652 5.27108 13C5.27108 8.73484 8.51695 5.27723 12.6757 5.27723C14.8745 5.27723 16.2946 6.06986 17.5972 7.1746C18.6398 6.10525 18.5527 5.95283 21.2055 3.38359C18.9536 1.28145 15.9606 0 12.6757 0C5.67508 0 0 5.82027 0 13C0 20.1796 5.67508 26 12.6757 26C23.1397 26 25.6973 16.6554 24.8494 10.4257H12.6757Z" fill="#FF5050"/>
</svg>
