<svg width="73" height="73" viewBox="0 0 73 73" fill="none" xmlns="http://www.w3.org/2000/svg">
<g clip-path="url(#clip0)">
<path d="M29.2386 29.9746C27.9296 29.9746 26.8647 31.0395 26.8647 32.3484C26.8647 33.6573 27.9296 34.7222 29.2386 34.7222C30.5475 34.7222 31.6123 33.6573 31.6123 32.3484C31.6123 31.0395 30.5475 29.9746 29.2386 29.9746ZM29.2386 33.2379C28.7481 33.2379 28.3491 32.8389 28.3491 32.3484C28.3491 31.858 28.7481 31.459 29.2386 31.459C29.7289 31.459 30.1279 31.858 30.1279 32.3484C30.1279 32.8389 29.7289 33.2379 29.2386 33.2379Z" fill="#6A7FA4"/>
<path d="M55.9989 42.9469C55.9989 42.8015 55.9578 42.6566 55.8734 42.5316L51.9926 36.7824V23.4922H52.5323C52.7778 23.4922 53.0073 23.3708 53.1456 23.1679C53.2838 22.9651 53.3129 22.707 53.2231 22.4785L51.6483 18.4707C51.5366 18.1868 51.2626 18 50.9575 18H36.1059C35.8008 18 35.5267 18.1868 35.4151 18.4708L33.8403 22.4786C33.7506 22.7071 33.7796 22.9652 33.9178 23.168C34.0561 23.3708 34.2856 23.4923 34.5311 23.4923H35.0708V26.0384L30.6278 22.4936C29.8103 21.8413 28.6682 21.8412 27.8506 22.4936L18.2798 30.1296C18.1146 30.2613 18.0134 30.4572 18.0016 30.6682C17.9898 30.8791 18.0684 31.0851 18.2178 31.2345L20.1845 33.2012V40.7002C20.1845 41.1101 20.5168 41.4424 20.9267 41.4424C21.3365 41.4424 21.6689 41.1101 21.6689 40.7002V33.1224L29.2392 27.0824L36.8095 33.1224V54.5156H32.9501V45.4609C32.9501 45.051 32.6178 44.7188 32.2079 44.7188H26.2704C25.8606 44.7188 25.5282 45.051 25.5282 45.4609V54.5156H21.6689V47.3798C21.6689 46.9699 21.3365 46.6376 20.9267 46.6376C20.5168 46.6376 20.1845 46.9699 20.1845 47.3798V55.2578C20.1845 55.6677 20.5168 56 20.9267 56H55.2583C55.6681 56 56.0005 55.6677 56.0005 55.2578V42.9469H55.9989ZM40.4767 30.6683C40.4649 30.4573 40.3638 30.2614 40.1985 30.1296L39.5239 29.5914V27.8178H41.3051V30.7866H40.4729C40.4769 30.7474 40.4789 30.708 40.4767 30.6683ZM38.2939 37.7515H50.8561L53.8619 42.2047H38.2939V37.7515ZM36.6118 19.4844H50.4517L51.4432 22.0078H35.6202L36.6118 19.4844ZM36.5551 23.4922H50.5083V36.2578H38.2939V33.2012L39.2242 32.2709H42.0473C42.4572 32.2709 42.7895 31.9386 42.7895 31.5287V27.0755C42.7895 26.6656 42.4572 26.3334 42.0473 26.3334H38.7817C38.3719 26.3334 38.0395 26.6656 38.0395 27.0755V28.407L36.5551 27.2227V23.4922ZM29.2392 25.3907C29.0755 25.3907 28.9117 25.4447 28.7764 25.5527L20.9108 31.8283L19.8546 30.7721L28.7763 23.6539C29.0488 23.4364 29.4295 23.4365 29.7022 23.6539L38.6238 30.7722L37.5676 31.8284L29.7021 25.5528C29.5666 25.4447 29.4029 25.3907 29.2392 25.3907ZM27.0126 54.5156V46.2031H31.4657V54.5156H27.0126ZM38.2939 54.5156V43.689H54.5161V54.5156H38.2939Z" fill="#6A7FA4"/>
<path d="M23.1528 36.9863V41.7363C23.1528 42.1462 23.4852 42.4785 23.895 42.4785H27.4575C27.8674 42.4785 28.1997 42.1462 28.1997 41.7363V36.9863C28.1997 36.5764 27.8674 36.2441 27.4575 36.2441H23.895C23.4851 36.2441 23.1528 36.5764 23.1528 36.9863ZM24.6372 37.7285H26.7153V40.9941H24.6372V37.7285Z" fill="#6A7FA4"/>
<path d="M30.1294 36.9863V41.7363C30.1294 42.1462 30.4617 42.4785 30.8716 42.4785H34.4341C34.8439 42.4785 35.1763 42.1462 35.1763 41.7363V36.9863C35.1763 36.5764 34.8439 36.2441 34.4341 36.2441H30.8716C30.4617 36.2441 30.1294 36.5764 30.1294 36.9863ZM31.6138 37.7285H33.6919V40.9941H31.6138V37.7285Z" fill="#6A7FA4"/>
<path d="M44.6968 45.7578H41.1343C40.7244 45.7578 40.3921 46.0901 40.3921 46.5V51.25C40.3921 51.6599 40.7244 51.9922 41.1343 51.9922H44.6968C45.1066 51.9922 45.439 51.6599 45.439 51.25V46.5C45.439 46.0901 45.1066 45.7578 44.6968 45.7578ZM43.9546 50.5078H41.8765V47.2422H43.9546V50.5078Z" fill="#6A7FA4"/>
<path d="M51.6733 45.7578H48.1108C47.701 45.7578 47.3687 46.0901 47.3687 46.5V51.25C47.3687 51.6599 47.701 51.9922 48.1108 51.9922H51.6733C52.0832 51.9922 52.4155 51.6599 52.4155 51.25V46.5C52.4155 46.0901 52.0832 45.7578 51.6733 45.7578ZM50.9312 50.5078H48.853V47.2422H50.9312V50.5078Z" fill="#6A7FA4"/>
<path d="M45.0156 32.2715H48.2812C48.6911 32.2715 49.0234 31.9392 49.0234 31.5293V27.0762C49.0234 26.6663 48.6911 26.334 48.2812 26.334H45.0156C44.6058 26.334 44.2734 26.6663 44.2734 27.0762V31.5293C44.2734 31.9392 44.6058 32.2715 45.0156 32.2715ZM45.7578 27.8184H47.5391V30.7871H45.7578V27.8184Z" fill="#6A7FA4"/>
<path d="M20.9263 44.7793C21.3362 44.7793 21.6685 44.447 21.6685 44.0371C21.6685 43.6272 21.3362 43.2949 20.9263 43.2949C20.5164 43.2949 20.1841 43.6272 20.1841 44.0371C20.1841 44.447 20.5164 44.7793 20.9263 44.7793Z" fill="#6A7FA4"/>
</g>
<defs>
<clipPath id="clip0">
<rect width="38" height="38" fill="white" transform="translate(18 18)"/>
</clipPath>
</defs>
</svg>
