<svg width="19"
     height="20"
     viewBox="0 0 19 20"
     fill="none"
     xmlns="http://www.w3.org/2000/svg">
<path d="M4.30067 19.1219H0.516577V6.97818H4.30067V19.1219ZM2.40659 5.32166C1.19656 5.32166 0.215088 4.32288 0.215088 3.11703C0.215088 2.53782 0.445977 1.98233 0.856964 1.57276C1.26795 1.1632 1.82537 0.933105 2.40659 0.933105C2.98781 0.933105 3.54523 1.1632 3.95621 1.57276C4.3672 1.98233 4.59809 2.53782 4.59809 3.11703C4.59809 4.32288 3.61621 5.32166 2.40659 5.32166ZM18.4633 19.1219H14.6874V13.2104C14.6874 11.8016 14.6589 9.99483 12.72 9.99483C10.7525 9.99483 10.4511 11.5255 10.4511 13.1089V19.1219H6.67103V6.97818H10.3003V8.6347H10.3533C10.8585 7.68057 12.0925 6.67367 13.9337 6.67367C17.7634 6.67367 18.4674 9.18687 18.4674 12.4512V19.1219H18.4633Z"
      fill="white" />
</svg>