<svg width="20"
     height="20"
     viewBox="0 0 20 20"
     fill="none"
     xmlns="http://www.w3.org/2000/svg">
<path d="M9.93412 5.36413C7.34438 5.36413 5.25549 7.44621 5.25549 10.0275C5.25549 12.6088 7.34438 14.6909 9.93412 14.6909C12.5239 14.6909 14.6127 12.6088 14.6127 10.0275C14.6127 7.44621 12.5239 5.36413 9.93412 5.36413ZM9.93412 13.0593C8.26056 13.0593 6.8924 11.6997 6.8924 10.0275C6.8924 8.35535 8.25649 6.9957 9.93412 6.9957C11.6117 6.9957 12.9758 8.35535 12.9758 10.0275C12.9758 11.6997 11.6077 13.0593 9.93412 13.0593ZM15.8954 5.17337C15.8954 5.77811 15.4068 6.26109 14.8041 6.26109C14.1974 6.26109 13.7129 5.77405 13.7129 5.17337C13.7129 4.57269 14.2015 4.08566 14.8041 4.08566C15.4068 4.08566 15.8954 4.57269 15.8954 5.17337ZM18.9941 6.27732C18.9249 4.82027 18.591 3.52962 17.5201 2.46626C16.4533 1.40289 15.1584 1.07008 13.6966 0.997029C12.19 0.911798 7.67421 0.911798 6.1676 0.997029C4.70985 1.06603 3.41499 1.39883 2.34407 2.4622C1.27316 3.52556 0.943335 4.81621 0.870041 6.27327C0.784531 7.77496 0.784531 12.276 0.870041 13.7777C0.939263 15.2348 1.27316 16.5254 2.34407 17.5888C3.41499 18.6521 4.70578 18.9849 6.1676 19.058C7.67421 19.1432 12.19 19.1432 13.6966 19.058C15.1584 18.989 16.4533 18.6562 17.5201 17.5888C18.5869 16.5254 18.9208 15.2348 18.9941 13.7777C19.0796 12.276 19.0796 7.77902 18.9941 6.27732ZM17.0478 15.389C16.7301 16.1845 16.1153 16.7973 15.3131 17.118C14.1119 17.5928 11.2616 17.4832 9.93412 17.4832C8.60668 17.4832 5.75226 17.5888 4.55512 17.118C3.75703 16.8014 3.14217 16.1885 2.82049 15.389C2.34407 14.1917 2.45402 11.3506 2.45402 10.0275C2.45402 8.70439 2.34815 5.85928 2.82049 4.66604C3.1381 3.87055 3.75295 3.25769 4.55512 2.93706C5.75634 2.4622 8.60668 2.57178 9.93412 2.57178C11.2616 2.57178 14.116 2.46626 15.3131 2.93706C16.1112 3.25363 16.7261 3.86649 17.0478 4.66604C17.5242 5.86334 17.4142 8.70439 17.4142 10.0275C17.4142 11.3506 17.5242 14.1957 17.0478 15.389Z"
      fill="white" />
</svg>