<svg width="73" height="73" viewBox="0 0 73 73" fill="none" xmlns="http://www.w3.org/2000/svg">
<g clip-path="url(#clip0)">
<path d="M40.6066 31.4766C40.1869 31.4766 39.8462 31.8172 39.8462 32.237C39.8462 32.6567 40.1869 32.9974 40.6066 32.9974C41.0264 32.9974 41.367 32.6567 41.367 32.237C41.367 31.8172 41.0264 31.4766 40.6066 31.4766Z" fill="#6A7FA4"/>
<path d="M55.0764 50.7685L44.9263 40.6184C46.5799 38.1278 47.4508 35.2435 47.4508 32.2357C47.4508 23.8498 40.6284 17.0273 32.2425 17.0273C23.8566 17.0273 17.0342 23.8498 17.0342 32.2357C17.0342 40.6216 23.8566 47.444 32.2425 47.444C35.2504 47.444 38.1347 46.573 40.6253 44.9196L43.4308 47.7251C43.4312 47.7255 43.4316 47.7259 43.432 47.7264L50.7752 55.0695C51.35 55.6442 52.1136 55.9607 52.9258 55.9607C53.738 55.9607 54.5017 55.6442 55.0762 55.0698C55.651 54.4954 55.9675 53.7317 55.9675 52.919C55.9675 52.1064 55.6509 51.3426 55.0764 50.7685ZM40.2676 43.317C40.2676 43.3171 40.2676 43.3171 40.2675 43.3172C37.9203 45.022 35.1454 45.9232 32.2425 45.9232C24.6952 45.9232 18.555 39.783 18.555 32.2357C18.555 24.6884 24.6952 18.5482 32.2425 18.5482C39.7898 18.5482 45.93 24.6884 45.93 32.2357C45.93 35.1386 45.0288 37.9135 43.3239 40.2607C42.471 41.4358 41.4427 42.4641 40.2676 43.317ZM41.863 44.0064C42.65 43.3626 43.3695 42.6431 44.0132 41.8562L46.1706 44.0135C45.5145 44.7879 44.7947 45.5078 44.0204 46.1638L41.863 44.0064ZM54.001 53.9942C53.7136 54.2816 53.3318 54.4398 52.9258 54.4398C52.5199 54.4398 52.1381 54.2816 51.8507 53.9942L45.0986 47.242C45.8686 46.5812 46.588 45.8619 47.2488 45.0918L54.0011 51.8442C54.2884 52.1311 54.4467 52.5128 54.4467 52.919C54.4467 53.3252 54.2884 53.7069 54.001 53.9942Z" fill="#6A7FA4"/>
<path d="M32.2424 20.0703C25.5336 20.0703 20.0757 25.5282 20.0757 32.237C20.0757 38.9458 25.5336 44.4036 32.2424 44.4036C38.9511 44.4036 44.409 38.9458 44.409 32.237C44.409 25.5282 38.9511 20.0703 32.2424 20.0703ZM32.2424 42.8828C26.3722 42.8828 21.5965 38.1071 21.5965 32.237C21.5965 26.3669 26.3722 21.5911 32.2424 21.5911C38.1125 21.5911 42.8882 26.3669 42.8882 32.237C42.8882 38.1071 38.1125 42.8828 32.2424 42.8828Z" fill="#6A7FA4"/>
<path d="M40.764 28.974C40.1092 27.2698 38.9691 25.8127 37.4668 24.7603C35.9288 23.6828 34.1222 23.1133 32.2424 23.1133C31.8224 23.1133 31.4819 23.4538 31.4819 23.8737C31.4819 24.2936 31.8224 24.6341 32.2424 24.6341C35.3676 24.6341 38.2216 26.5974 39.3443 29.5196C39.4605 29.8219 39.7487 30.0074 40.0543 30.0074C40.145 30.0074 40.2372 29.9911 40.3269 29.9567C40.7189 29.806 40.9146 29.3661 40.764 28.974Z" fill="#6A7FA4"/>
</g>
<defs>
<clipPath id="clip0">
<rect width="38.9333" height="38.9333" fill="white" transform="translate(17.0337 17.0312)"/>
</clipPath>
</defs>
</svg>
