<svg width="60"
     height="51"
     viewBox="0 0 60 51"
     fill="none"
     xmlns="http://www.w3.org/2000/svg">
<path d="M26.7764 6.4071C27.2626 6.02121 27.5374 5.43974 27.5216 4.81598C27.5057 4.20808 27.2203 3.64775 26.7289 3.29358C22.8554 0.481378 14.9286 -3.07088 5.35841 4.76841C-1.26834 10.1867 -1.83378 21.8214 4.13769 29.6659C5.36898 31.2835 7.28196 33.2288 9.81852 35.4489C10.4579 36.0093 11.3405 36.1361 12.1173 35.782C12.9047 35.4278 13.3908 34.6719 13.3908 33.8103V20.299C13.3908 18.248 14.2998 16.3503 15.8798 15.0922L26.7764 6.4071Z"
      fill="white" />
<path d="M54.6418 4.76929C50.298 1.21174 46.2976 0.0012207 42.8574 0.0012207C38.7144 0.0012207 35.3904 1.75621 33.2714 3.29446C32.7799 3.65392 32.4892 4.20896 32.4787 4.81686C32.4628 5.44062 32.7376 6.0168 33.2238 6.40798L44.1204 15.093C45.7005 16.3511 46.6094 18.2488 46.6094 20.2999V33.8164C46.6094 34.6728 47.0956 35.4287 47.8829 35.7881C48.6598 36.1423 49.5423 36.0154 50.1817 35.4551C52.7183 33.2349 54.6312 31.2897 55.8625 29.6721C61.834 21.8223 61.2685 10.1875 54.6418 4.76929Z"
      fill="white" />
<path d="M31.4587 10.1395C31.0307 9.79587 30.5128 9.62671 30.0002 9.62671C29.4876 9.62671 28.9697 9.79587 28.5417 10.1395L18.3638 18.2538C17.7614 18.7349 17.3967 19.5014 17.3967 20.2996V32.9337C17.3967 34.3451 18.4853 35.4922 19.817 35.4922H40.1781C41.5151 35.4922 42.5984 34.3451 42.5984 32.9337V20.2996C42.5984 19.5014 42.2391 18.7349 41.6314 18.2538L31.4587 10.1395Z"
      fill="white" />
<path d="M44.0787 40.1274C43.9677 39.8366 43.6876 39.53 43.2279 39.53H30.0008H16.7737C16.314 39.53 16.0339 39.8366 15.9229 40.1274C15.812 40.4128 15.8173 40.8304 16.1502 41.1476C19.844 44.6682 26.0427 48.9924 28.1988 50.1183C28.7748 50.4197 29.3931 50.5994 30.0008 50.6152C30.6085 50.5941 31.2268 50.4144 31.8028 50.1183C33.9589 48.9924 40.1629 44.6682 43.8515 41.1476C44.1844 40.8304 44.1844 40.4128 44.0787 40.1274Z"
      fill="white" />
</svg>