<svg width="43" height="36" viewBox="0 0 43 36" fill="none" xmlns="http://www.w3.org/2000/svg">
<path d="M18.9368 4.54715C19.2806 4.27328 19.475 3.86061 19.4637 3.41792C19.4525 2.98649 19.2507 2.58883 18.9031 2.33747C16.1637 0.341636 10.5578 -2.17942 3.78956 3.38416C-0.896991 7.22952 -1.29688 15.4867 2.92625 21.0541C3.79704 22.202 5.14994 23.5826 6.94383 25.1583C7.39605 25.5559 8.02017 25.646 8.56955 25.3946C9.12641 25.1433 9.47024 24.6068 9.47024 23.9953V14.4063C9.47024 12.9507 10.1131 11.6039 11.2305 10.711L18.9368 4.54715Z" fill="#FFCD59"/>
<path d="M38.6434 3.38489C35.5713 0.860086 32.7422 0.000976562 30.3092 0.000976562C27.3792 0.000976562 25.0285 1.2465 23.5298 2.33821C23.1822 2.59331 22.9767 2.98723 22.9692 3.41866C22.958 3.86134 23.1523 4.27026 23.4962 4.54788L31.2025 10.7117C32.3199 11.6046 32.9627 12.9514 32.9627 14.407V23.9998C32.9627 24.6075 33.3065 25.144 33.8634 25.3991C34.4128 25.6505 35.0369 25.5604 35.4891 25.1628C37.283 23.5871 38.6359 22.2065 39.5067 21.0585C43.7298 15.4875 43.3299 7.23025 38.6434 3.38489Z" fill="#4C88F8"/>
<path d="M22.2481 7.19593C21.9454 6.95208 21.5792 6.83203 21.2166 6.83203C20.8541 6.83203 20.4879 6.95208 20.1852 7.19593L12.9871 12.9546C12.5611 13.296 12.3032 13.84 12.3032 14.4065V23.3727C12.3032 24.3744 13.0731 25.1885 14.0149 25.1885H28.4147C29.3602 25.1885 30.1263 24.3744 30.1263 23.3727V14.4065C30.1263 13.84 29.8722 13.296 29.4424 12.9546L22.2481 7.19593Z" fill="#F0695A"/>
<path d="M31.1729 28.4786C31.0944 28.2723 30.8964 28.0547 30.5712 28.0547H21.2168H11.8624C11.5372 28.0547 11.3391 28.2723 11.2607 28.4786C11.1822 28.6812 11.1859 28.9776 11.4214 29.2027C14.0337 31.7012 18.4176 34.77 19.9424 35.5691C20.3497 35.7829 20.787 35.9105 21.2168 35.9217C21.6466 35.9067 22.0838 35.7792 22.4912 35.5691C24.016 34.77 28.4036 31.7012 31.0122 29.2027C31.2477 28.9776 31.2477 28.6812 31.1729 28.4786Z" fill="#39C2AA"/>
</svg>
