<svg width="30" height="30" viewBox="0 0 30 30" fill="none" xmlns="http://www.w3.org/2000/svg">
<circle cx="15" cy="15" r="14.5" stroke="#39C2AA"/>
<g clip-path="url(#clip0)">
<mask id="path-2-outside-1" maskUnits="userSpaceOnUse" x="7" y="7.01562" width="16" height="16" fill="black">
<rect fill="white" x="7" y="7.01562" width="16" height="16"/>
<path d="M15 8.94768C14.5477 8.94768 14.1797 9.31567 14.1797 9.76799C14.1797 10.2203 14.5477 10.5883 15 10.5883C15.4523 10.5883 15.8203 10.2203 15.8203 9.76799C15.8203 9.31567 15.4523 8.94768 15 8.94768ZM15 10.1781C14.7739 10.1781 14.5899 9.99415 14.5899 9.76799C14.5899 9.54183 14.7739 9.35783 15 9.35783C15.2262 9.35783 15.4102 9.54183 15.4102 9.76799C15.4102 9.99415 15.2262 10.1781 15 10.1781ZM21.9998 11.1456C21.9983 11.073 21.9546 10.9916 21.874 10.9596L15.1913 8.05538C15.0697 8.00239 14.9303 8.00239 14.809 8.0553L8.12606 10.9596C8.05565 10.9897 7.99736 11.0642 8.00009 11.1517V11.8221C8.00009 12.2367 8.3374 12.574 8.75204 12.574H8.91353C8.85417 12.684 8.8204 12.8097 8.8204 12.9431C8.8204 13.3728 9.16999 13.7224 9.59969 13.7224C9.66064 13.7224 9.72003 13.7147 9.77742 13.7012V19.5478C9.5109 19.5106 9.2579 19.6966 9.2579 19.9716V20.3603H8.75204C8.3374 20.3603 8.00009 20.6976 8.00009 21.1122V21.6488C8.00009 21.8372 8.15341 21.9905 8.34189 21.9905H21.6582C21.8467 21.9905 22 21.8372 22 21.6488V21.1122C22 20.6976 21.6627 20.3603 21.248 20.3603H20.7422V19.9716C20.742 19.6839 20.488 19.5192 20.2227 19.5478V13.7012C20.28 13.7147 20.3394 13.7224 20.4004 13.7224C20.8301 13.7224 21.1797 13.3728 21.1797 12.9431C21.1797 12.8097 21.1459 12.684 21.0865 12.574H21.248C21.6627 12.574 22 12.2367 22 11.8221V11.1517C21.9999 11.15 22.0001 11.1503 21.9998 11.1456ZM9.59966 13.3123C9.39612 13.3123 9.23052 13.1467 9.23052 12.9431C9.23052 12.7398 9.39568 12.5745 9.59887 12.574H11.8153C12.0185 12.5744 12.1836 12.7398 12.1836 12.9431C12.1836 13.1467 12.018 13.3123 11.8145 13.3123C11.6387 13.3123 11.4866 13.1876 11.4527 13.0158C11.4308 12.9047 11.323 12.8323 11.2118 12.8543C11.1007 12.8762 11.0284 12.9841 11.0503 13.0952C11.0773 13.2319 11.1396 13.3545 11.2266 13.4543V16.9942C11.2266 17.1074 11.3184 17.1992 11.4317 17.1992C11.545 17.1992 11.6368 17.1074 11.6368 16.9942V13.7012C11.6941 13.7147 11.7535 13.7224 11.8145 13.7224C12.2442 13.7224 12.5938 13.3728 12.5938 12.9431C12.5938 12.8097 12.56 12.684 12.5006 12.574H13.2065C13.1471 12.684 13.1133 12.8097 13.1133 12.9431C13.1133 13.3728 13.4629 13.7224 13.8926 13.7224C13.9536 13.7224 14.013 13.7147 14.0704 13.7012V19.5478C13.8037 19.5104 13.5508 19.6967 13.5508 19.9716V20.3603H12.1563V19.9716C12.1561 19.684 11.9022 19.5192 11.6368 19.5478V17.9512C11.6368 17.8379 11.545 17.7461 11.4317 17.7461C11.3184 17.7461 11.2266 17.8379 11.2266 17.9512V19.5478H10.1876V13.4543C10.2746 13.3545 10.3369 13.2319 10.3639 13.0952C10.3858 12.9841 10.3135 12.8762 10.2024 12.8543C10.0912 12.8324 9.9834 12.9047 9.96147 13.0158C9.92759 13.1876 9.77543 13.3123 9.59966 13.3123ZM16.7936 12.574H17.4994C17.44 12.684 17.4063 12.8097 17.4063 12.9431C17.4063 13.3728 17.7559 13.7224 18.1856 13.7224C18.2465 13.7224 18.3059 13.7147 18.3633 13.7012V19.5478C18.0966 19.5103 17.8438 19.6968 17.8438 19.9716V20.3603H16.4492V19.9716C16.449 19.6839 16.1951 19.5192 15.9297 19.5478V13.7012C15.9871 13.7147 16.0465 13.7224 16.1075 13.7224C16.5372 13.7224 16.8867 13.3728 16.8867 12.9431C16.8867 12.8097 16.8529 12.684 16.7936 12.574ZM16.0391 19.9716V20.3603H13.961V19.9716C13.961 19.9641 13.9671 19.958 13.9746 19.958H16.0254C16.0329 19.958 16.0391 19.9641 16.0391 19.9716ZM16.1074 13.3123C15.9317 13.3123 15.7795 13.1876 15.7456 13.0158C15.7237 12.9047 15.6158 12.8323 15.5047 12.8543C15.3936 12.8762 15.3213 12.9841 15.3432 13.0952C15.3702 13.2319 15.4325 13.3545 15.5195 13.4543V19.5478H14.4805V13.4543C14.5675 13.3545 14.6298 13.2319 14.6568 13.0952C14.6787 12.9841 14.6064 12.8762 14.4953 12.8543C14.3842 12.8324 14.2763 12.9047 14.2544 13.0158C14.2205 13.1876 14.0683 13.3122 13.8926 13.3122C13.6891 13.3122 13.5235 13.1466 13.5235 12.9431C13.5235 12.7398 13.6886 12.5744 13.8918 12.574H16.1082C16.3114 12.5744 16.4766 12.7398 16.4766 12.9431C16.4766 13.1467 16.311 13.3123 16.1074 13.3123ZM9.66802 19.9716C9.66802 19.9641 9.67417 19.958 9.68169 19.958H11.7325C11.74 19.958 11.7461 19.9641 11.7461 19.9716V20.3603H9.66802V19.9716ZM21.248 20.7704C21.4365 20.7704 21.5898 20.9237 21.5898 21.1122V21.5804H8.41022V21.1122C8.41022 20.9237 8.56353 20.7704 8.75201 20.7704H21.248ZM20.3183 19.958C20.3258 19.958 20.332 19.9641 20.332 19.9716V20.3603H18.2539V19.9716C18.2539 19.9641 18.26 19.958 18.2676 19.958H20.3183ZM20.4004 13.3123C20.2246 13.3123 20.0725 13.1876 20.0386 13.0158C20.0166 12.9047 19.9088 12.8323 19.7977 12.8543C19.6866 12.8762 19.6142 12.9841 19.6362 13.0952C19.6631 13.2319 19.7255 13.3545 19.8125 13.4543V19.5478H18.7734V13.4543C18.8604 13.3545 18.9228 13.2319 18.9497 13.0952C18.9717 12.9841 18.8993 12.8762 18.7882 12.8543C18.6771 12.8324 18.5692 12.9047 18.5473 13.0158C18.5134 13.1876 18.3613 13.3122 18.1855 13.3122C17.982 13.3122 17.8164 13.1466 17.8164 12.9431C17.8164 12.7398 17.9815 12.5744 18.1847 12.574H20.4012C20.6043 12.5744 20.7695 12.7398 20.7695 12.9431C20.7695 13.1467 20.6039 13.3123 20.4004 13.3123ZM21.5898 11.8221C21.5898 12.0106 21.4365 12.1639 21.248 12.1639H8.75201C8.56353 12.1639 8.41022 12.0106 8.41022 11.8221V11.3539H17.9856C18.0989 11.3539 18.1907 11.2621 18.1907 11.1488C18.1907 11.0356 18.0989 10.9438 17.9856 10.9438H9.19156L14.9727 8.43135C14.9901 8.42378 15.01 8.42378 15.0275 8.43143L20.8085 10.9437H18.9426C18.8293 10.9437 18.7375 11.0356 18.7375 11.1488C18.7375 11.2621 18.8293 11.3539 18.9426 11.3539H21.5898V11.8221H21.5898Z"/>
</mask>
<path d="M15 8.94768C14.5477 8.94768 14.1797 9.31567 14.1797 9.76799C14.1797 10.2203 14.5477 10.5883 15 10.5883C15.4523 10.5883 15.8203 10.2203 15.8203 9.76799C15.8203 9.31567 15.4523 8.94768 15 8.94768ZM15 10.1781C14.7739 10.1781 14.5899 9.99415 14.5899 9.76799C14.5899 9.54183 14.7739 9.35783 15 9.35783C15.2262 9.35783 15.4102 9.54183 15.4102 9.76799C15.4102 9.99415 15.2262 10.1781 15 10.1781ZM21.9998 11.1456C21.9983 11.073 21.9546 10.9916 21.874 10.9596L15.1913 8.05538C15.0697 8.00239 14.9303 8.00239 14.809 8.0553L8.12606 10.9596C8.05565 10.9897 7.99736 11.0642 8.00009 11.1517V11.8221C8.00009 12.2367 8.3374 12.574 8.75204 12.574H8.91353C8.85417 12.684 8.8204 12.8097 8.8204 12.9431C8.8204 13.3728 9.16999 13.7224 9.59969 13.7224C9.66064 13.7224 9.72003 13.7147 9.77742 13.7012V19.5478C9.5109 19.5106 9.2579 19.6966 9.2579 19.9716V20.3603H8.75204C8.3374 20.3603 8.00009 20.6976 8.00009 21.1122V21.6488C8.00009 21.8372 8.15341 21.9905 8.34189 21.9905H21.6582C21.8467 21.9905 22 21.8372 22 21.6488V21.1122C22 20.6976 21.6627 20.3603 21.248 20.3603H20.7422V19.9716C20.742 19.6839 20.488 19.5192 20.2227 19.5478V13.7012C20.28 13.7147 20.3394 13.7224 20.4004 13.7224C20.8301 13.7224 21.1797 13.3728 21.1797 12.9431C21.1797 12.8097 21.1459 12.684 21.0865 12.574H21.248C21.6627 12.574 22 12.2367 22 11.8221V11.1517C21.9999 11.15 22.0001 11.1503 21.9998 11.1456ZM9.59966 13.3123C9.39612 13.3123 9.23052 13.1467 9.23052 12.9431C9.23052 12.7398 9.39568 12.5745 9.59887 12.574H11.8153C12.0185 12.5744 12.1836 12.7398 12.1836 12.9431C12.1836 13.1467 12.018 13.3123 11.8145 13.3123C11.6387 13.3123 11.4866 13.1876 11.4527 13.0158C11.4308 12.9047 11.323 12.8323 11.2118 12.8543C11.1007 12.8762 11.0284 12.9841 11.0503 13.0952C11.0773 13.2319 11.1396 13.3545 11.2266 13.4543V16.9942C11.2266 17.1074 11.3184 17.1992 11.4317 17.1992C11.545 17.1992 11.6368 17.1074 11.6368 16.9942V13.7012C11.6941 13.7147 11.7535 13.7224 11.8145 13.7224C12.2442 13.7224 12.5938 13.3728 12.5938 12.9431C12.5938 12.8097 12.56 12.684 12.5006 12.574H13.2065C13.1471 12.684 13.1133 12.8097 13.1133 12.9431C13.1133 13.3728 13.4629 13.7224 13.8926 13.7224C13.9536 13.7224 14.013 13.7147 14.0704 13.7012V19.5478C13.8037 19.5104 13.5508 19.6967 13.5508 19.9716V20.3603H12.1563V19.9716C12.1561 19.684 11.9022 19.5192 11.6368 19.5478V17.9512C11.6368 17.8379 11.545 17.7461 11.4317 17.7461C11.3184 17.7461 11.2266 17.8379 11.2266 17.9512V19.5478H10.1876V13.4543C10.2746 13.3545 10.3369 13.2319 10.3639 13.0952C10.3858 12.9841 10.3135 12.8762 10.2024 12.8543C10.0912 12.8324 9.9834 12.9047 9.96147 13.0158C9.92759 13.1876 9.77543 13.3123 9.59966 13.3123ZM16.7936 12.574H17.4994C17.44 12.684 17.4063 12.8097 17.4063 12.9431C17.4063 13.3728 17.7559 13.7224 18.1856 13.7224C18.2465 13.7224 18.3059 13.7147 18.3633 13.7012V19.5478C18.0966 19.5103 17.8438 19.6968 17.8438 19.9716V20.3603H16.4492V19.9716C16.449 19.6839 16.1951 19.5192 15.9297 19.5478V13.7012C15.9871 13.7147 16.0465 13.7224 16.1075 13.7224C16.5372 13.7224 16.8867 13.3728 16.8867 12.9431C16.8867 12.8097 16.8529 12.684 16.7936 12.574ZM16.0391 19.9716V20.3603H13.961V19.9716C13.961 19.9641 13.9671 19.958 13.9746 19.958H16.0254C16.0329 19.958 16.0391 19.9641 16.0391 19.9716ZM16.1074 13.3123C15.9317 13.3123 15.7795 13.1876 15.7456 13.0158C15.7237 12.9047 15.6158 12.8323 15.5047 12.8543C15.3936 12.8762 15.3213 12.9841 15.3432 13.0952C15.3702 13.2319 15.4325 13.3545 15.5195 13.4543V19.5478H14.4805V13.4543C14.5675 13.3545 14.6298 13.2319 14.6568 13.0952C14.6787 12.9841 14.6064 12.8762 14.4953 12.8543C14.3842 12.8324 14.2763 12.9047 14.2544 13.0158C14.2205 13.1876 14.0683 13.3122 13.8926 13.3122C13.6891 13.3122 13.5235 13.1466 13.5235 12.9431C13.5235 12.7398 13.6886 12.5744 13.8918 12.574H16.1082C16.3114 12.5744 16.4766 12.7398 16.4766 12.9431C16.4766 13.1467 16.311 13.3123 16.1074 13.3123ZM9.66802 19.9716C9.66802 19.9641 9.67417 19.958 9.68169 19.958H11.7325C11.74 19.958 11.7461 19.9641 11.7461 19.9716V20.3603H9.66802V19.9716ZM21.248 20.7704C21.4365 20.7704 21.5898 20.9237 21.5898 21.1122V21.5804H8.41022V21.1122C8.41022 20.9237 8.56353 20.7704 8.75201 20.7704H21.248ZM20.3183 19.958C20.3258 19.958 20.332 19.9641 20.332 19.9716V20.3603H18.2539V19.9716C18.2539 19.9641 18.26 19.958 18.2676 19.958H20.3183ZM20.4004 13.3123C20.2246 13.3123 20.0725 13.1876 20.0386 13.0158C20.0166 12.9047 19.9088 12.8323 19.7977 12.8543C19.6866 12.8762 19.6142 12.9841 19.6362 13.0952C19.6631 13.2319 19.7255 13.3545 19.8125 13.4543V19.5478H18.7734V13.4543C18.8604 13.3545 18.9228 13.2319 18.9497 13.0952C18.9717 12.9841 18.8993 12.8762 18.7882 12.8543C18.6771 12.8324 18.5692 12.9047 18.5473 13.0158C18.5134 13.1876 18.3613 13.3122 18.1855 13.3122C17.982 13.3122 17.8164 13.1466 17.8164 12.9431C17.8164 12.7398 17.9815 12.5744 18.1847 12.574H20.4012C20.6043 12.5744 20.7695 12.7398 20.7695 12.9431C20.7695 13.1467 20.6039 13.3123 20.4004 13.3123ZM21.5898 11.8221C21.5898 12.0106 21.4365 12.1639 21.248 12.1639H8.75201C8.56353 12.1639 8.41022 12.0106 8.41022 11.8221V11.3539H17.9856C18.0989 11.3539 18.1907 11.2621 18.1907 11.1488C18.1907 11.0356 18.0989 10.9438 17.9856 10.9438H9.19156L14.9727 8.43135C14.9901 8.42378 15.01 8.42378 15.0275 8.43143L20.8085 10.9437H18.9426C18.8293 10.9437 18.7375 11.0356 18.7375 11.1488C18.7375 11.2621 18.8293 11.3539 18.9426 11.3539H21.5898V11.8221H21.5898Z" fill="#39C2AA"/>
<path d="M15 8.94768C14.5477 8.94768 14.1797 9.31567 14.1797 9.76799C14.1797 10.2203 14.5477 10.5883 15 10.5883C15.4523 10.5883 15.8203 10.2203 15.8203 9.76799C15.8203 9.31567 15.4523 8.94768 15 8.94768ZM15 10.1781C14.7739 10.1781 14.5899 9.99415 14.5899 9.76799C14.5899 9.54183 14.7739 9.35783 15 9.35783C15.2262 9.35783 15.4102 9.54183 15.4102 9.76799C15.4102 9.99415 15.2262 10.1781 15 10.1781ZM21.9998 11.1456C21.9983 11.073 21.9546 10.9916 21.874 10.9596L15.1913 8.05538C15.0697 8.00239 14.9303 8.00239 14.809 8.0553L8.12606 10.9596C8.05565 10.9897 7.99736 11.0642 8.00009 11.1517V11.8221C8.00009 12.2367 8.3374 12.574 8.75204 12.574H8.91353C8.85417 12.684 8.8204 12.8097 8.8204 12.9431C8.8204 13.3728 9.16999 13.7224 9.59969 13.7224C9.66064 13.7224 9.72003 13.7147 9.77742 13.7012V19.5478C9.5109 19.5106 9.2579 19.6966 9.2579 19.9716V20.3603H8.75204C8.3374 20.3603 8.00009 20.6976 8.00009 21.1122V21.6488C8.00009 21.8372 8.15341 21.9905 8.34189 21.9905H21.6582C21.8467 21.9905 22 21.8372 22 21.6488V21.1122C22 20.6976 21.6627 20.3603 21.248 20.3603H20.7422V19.9716C20.742 19.6839 20.488 19.5192 20.2227 19.5478V13.7012C20.28 13.7147 20.3394 13.7224 20.4004 13.7224C20.8301 13.7224 21.1797 13.3728 21.1797 12.9431C21.1797 12.8097 21.1459 12.684 21.0865 12.574H21.248C21.6627 12.574 22 12.2367 22 11.8221V11.1517C21.9999 11.15 22.0001 11.1503 21.9998 11.1456ZM9.59966 13.3123C9.39612 13.3123 9.23052 13.1467 9.23052 12.9431C9.23052 12.7398 9.39568 12.5745 9.59887 12.574H11.8153C12.0185 12.5744 12.1836 12.7398 12.1836 12.9431C12.1836 13.1467 12.018 13.3123 11.8145 13.3123C11.6387 13.3123 11.4866 13.1876 11.4527 13.0158C11.4308 12.9047 11.323 12.8323 11.2118 12.8543C11.1007 12.8762 11.0284 12.9841 11.0503 13.0952C11.0773 13.2319 11.1396 13.3545 11.2266 13.4543V16.9942C11.2266 17.1074 11.3184 17.1992 11.4317 17.1992C11.545 17.1992 11.6368 17.1074 11.6368 16.9942V13.7012C11.6941 13.7147 11.7535 13.7224 11.8145 13.7224C12.2442 13.7224 12.5938 13.3728 12.5938 12.9431C12.5938 12.8097 12.56 12.684 12.5006 12.574H13.2065C13.1471 12.684 13.1133 12.8097 13.1133 12.9431C13.1133 13.3728 13.4629 13.7224 13.8926 13.7224C13.9536 13.7224 14.013 13.7147 14.0704 13.7012V19.5478C13.8037 19.5104 13.5508 19.6967 13.5508 19.9716V20.3603H12.1563V19.9716C12.1561 19.684 11.9022 19.5192 11.6368 19.5478V17.9512C11.6368 17.8379 11.545 17.7461 11.4317 17.7461C11.3184 17.7461 11.2266 17.8379 11.2266 17.9512V19.5478H10.1876V13.4543C10.2746 13.3545 10.3369 13.2319 10.3639 13.0952C10.3858 12.9841 10.3135 12.8762 10.2024 12.8543C10.0912 12.8324 9.9834 12.9047 9.96147 13.0158C9.92759 13.1876 9.77543 13.3123 9.59966 13.3123ZM16.7936 12.574H17.4994C17.44 12.684 17.4063 12.8097 17.4063 12.9431C17.4063 13.3728 17.7559 13.7224 18.1856 13.7224C18.2465 13.7224 18.3059 13.7147 18.3633 13.7012V19.5478C18.0966 19.5103 17.8438 19.6968 17.8438 19.9716V20.3603H16.4492V19.9716C16.449 19.6839 16.1951 19.5192 15.9297 19.5478V13.7012C15.9871 13.7147 16.0465 13.7224 16.1075 13.7224C16.5372 13.7224 16.8867 13.3728 16.8867 12.9431C16.8867 12.8097 16.8529 12.684 16.7936 12.574ZM16.0391 19.9716V20.3603H13.961V19.9716C13.961 19.9641 13.9671 19.958 13.9746 19.958H16.0254C16.0329 19.958 16.0391 19.9641 16.0391 19.9716ZM16.1074 13.3123C15.9317 13.3123 15.7795 13.1876 15.7456 13.0158C15.7237 12.9047 15.6158 12.8323 15.5047 12.8543C15.3936 12.8762 15.3213 12.9841 15.3432 13.0952C15.3702 13.2319 15.4325 13.3545 15.5195 13.4543V19.5478H14.4805V13.4543C14.5675 13.3545 14.6298 13.2319 14.6568 13.0952C14.6787 12.9841 14.6064 12.8762 14.4953 12.8543C14.3842 12.8324 14.2763 12.9047 14.2544 13.0158C14.2205 13.1876 14.0683 13.3122 13.8926 13.3122C13.6891 13.3122 13.5235 13.1466 13.5235 12.9431C13.5235 12.7398 13.6886 12.5744 13.8918 12.574H16.1082C16.3114 12.5744 16.4766 12.7398 16.4766 12.9431C16.4766 13.1467 16.311 13.3123 16.1074 13.3123ZM9.66802 19.9716C9.66802 19.9641 9.67417 19.958 9.68169 19.958H11.7325C11.74 19.958 11.7461 19.9641 11.7461 19.9716V20.3603H9.66802V19.9716ZM21.248 20.7704C21.4365 20.7704 21.5898 20.9237 21.5898 21.1122V21.5804H8.41022V21.1122C8.41022 20.9237 8.56353 20.7704 8.75201 20.7704H21.248ZM20.3183 19.958C20.3258 19.958 20.332 19.9641 20.332 19.9716V20.3603H18.2539V19.9716C18.2539 19.9641 18.26 19.958 18.2676 19.958H20.3183ZM20.4004 13.3123C20.2246 13.3123 20.0725 13.1876 20.0386 13.0158C20.0166 12.9047 19.9088 12.8323 19.7977 12.8543C19.6866 12.8762 19.6142 12.9841 19.6362 13.0952C19.6631 13.2319 19.7255 13.3545 19.8125 13.4543V19.5478H18.7734V13.4543C18.8604 13.3545 18.9228 13.2319 18.9497 13.0952C18.9717 12.9841 18.8993 12.8762 18.7882 12.8543C18.6771 12.8324 18.5692 12.9047 18.5473 13.0158C18.5134 13.1876 18.3613 13.3122 18.1855 13.3122C17.982 13.3122 17.8164 13.1466 17.8164 12.9431C17.8164 12.7398 17.9815 12.5744 18.1847 12.574H20.4012C20.6043 12.5744 20.7695 12.7398 20.7695 12.9431C20.7695 13.1467 20.6039 13.3123 20.4004 13.3123ZM21.5898 11.8221C21.5898 12.0106 21.4365 12.1639 21.248 12.1639H8.75201C8.56353 12.1639 8.41022 12.0106 8.41022 11.8221V11.3539H17.9856C18.0989 11.3539 18.1907 11.2621 18.1907 11.1488C18.1907 11.0356 18.0989 10.9438 17.9856 10.9438H9.19156L14.9727 8.43135C14.9901 8.42378 15.01 8.42378 15.0275 8.43143L20.8085 10.9437H18.9426C18.8293 10.9437 18.7375 11.0356 18.7375 11.1488C18.7375 11.2621 18.8293 11.3539 18.9426 11.3539H21.5898V11.8221H21.5898Z" stroke="#39C2AA" stroke-width="0.2" mask="url(#path-2-outside-1)"/>
</g>
<defs>
<clipPath id="clip0">
<rect width="14" height="14" fill="white" transform="translate(8 8)"/>
</clipPath>
</defs>
</svg>
