<svg width="14" height="20" viewBox="0 0 14 20" fill="none" xmlns="http://www.w3.org/2000/svg">
<path d="M13.8359 16.2989L11.3795 13.4665C10.7841 12.8292 10.1142 12.6168 9.29538 13.0417L8.4766 13.4665C8.03 13.6789 8.03 13.8206 7.88113 14.033C7.43453 14.6703 6.83906 14.5287 6.54132 14.2454C5.35037 13.0417 3.86169 10.3509 3.86169 10.3509C3.34066 9.43035 3.04292 8.50982 2.89405 7.51848C2.81962 7.16443 3.04292 6.59795 3.86169 6.66876C4.15943 6.66876 4.3083 6.73957 4.7549 6.52714L5.57368 6.10228C6.39245 5.74823 6.54132 5.04013 6.39245 4.26122L5.42481 0.720715C5.12707 0.0834251 4.23386 -0.199815 3.56396 0.154235L1.77754 1.00396C1.47981 1.14558 1.18207 1.42882 1.0332 1.78287C-0.455479 4.19041 -0.381045 8.01415 1.55424 11.5546C1.62867 11.6963 4.5316 18.494 10.4119 19.0605C10.7841 19.1313 11.2307 19.0605 11.5284 18.9189L13.3148 18.0692C13.9103 17.7151 14.208 16.9362 13.8359 16.2989Z" fill="#4C88F8"/>
</svg>
