<svg width="30" height="30" viewBox="0 0 30 30" fill="none" xmlns="http://www.w3.org/2000/svg">
<circle cx="15" cy="15" r="14.5" stroke="#794CF8"/>
<mask id="path-2-outside-1" maskUnits="userSpaceOnUse" x="8.49756" y="6" width="13" height="18" fill="black">
<rect fill="white" x="8.49756" y="6" width="13" height="18"/>
<path d="M20.3997 11.6897C20.3099 11.6156 20.219 11.551 20.1272 11.4956C20.263 11.2824 20.3359 11.035 20.3359 10.7754C20.3359 10.1409 19.8946 9.60354 19.2961 9.46429C19.2597 9.04951 18.9426 8.71401 18.5365 8.64935C18.3916 8.21359 17.9781 7.90458 17.5051 7.90458C17.166 7.90458 16.8592 8.06154 16.6588 8.30997C16.6215 8.15682 16.5632 8.00896 16.4851 7.87124C16.4214 7.75872 16.2784 7.71919 16.1659 7.78298C16.0534 7.84673 16.0139 7.98963 16.0777 8.10216C16.1834 8.28877 16.2393 8.50104 16.2393 8.71607C16.2393 8.76958 16.2355 8.82559 16.2279 8.88257C16.2189 8.95004 16.2397 9.01804 16.2849 9.06893C16.3301 9.11983 16.3954 9.1488 16.4632 9.14764L16.4735 9.1473C16.5093 9.1473 16.5458 9.14964 16.5822 9.15426C16.6549 9.16347 16.73 9.14305 16.7878 9.09806C16.8459 9.05292 16.8828 8.98791 16.8918 8.91495C16.9297 8.60595 17.1933 8.37294 17.5052 8.37294C17.8126 8.37294 18.0758 8.60223 18.1174 8.90627C18.1341 9.02794 18.2419 9.11592 18.3645 9.10815L18.3745 9.10749C18.3808 9.10706 18.3871 9.10643 18.3935 9.10643C18.6349 9.10643 18.8313 9.30282 18.8313 9.54422C18.8313 9.56907 18.8287 9.59499 18.8236 9.6234C18.8116 9.6894 18.8285 9.7574 18.87 9.81014C18.9115 9.86287 18.9736 9.89525 19.0406 9.89906C19.5043 9.92553 19.8675 10.3104 19.8675 10.7754C19.8675 10.9695 19.8052 11.1531 19.6899 11.3047C19.1888 11.1661 18.6616 11.2874 18.1139 11.6694C17.3939 11.114 16.6708 11.1108 16.0045 11.6595C15.4647 11.2542 14.7434 10.9973 14.0511 11.6422C13.5923 11.2731 13.107 11.165 12.6146 11.3174C12.5144 11.1768 12.4602 11.0091 12.4602 10.8328C12.4602 10.3708 12.8361 9.99487 13.2982 9.99487C13.4275 9.99487 13.5324 9.89003 13.5324 9.76071C13.5324 9.63139 13.4275 9.52655 13.2982 9.52655C12.5779 9.52655 11.9919 10.1125 11.9919 10.8328C11.9919 11.078 12.0592 11.3126 12.1846 11.5161C12.1107 11.5615 12.0367 11.6123 11.9628 11.6694C11.4252 11.2944 10.9073 11.1704 10.4146 11.2971C10.2336 11.1875 10.1201 10.9906 10.1201 10.7754C10.1201 10.439 10.3938 10.1653 10.7302 10.1653C10.7655 10.1653 10.8018 10.1686 10.838 10.175C10.9075 10.1874 10.9788 10.1678 11.0322 10.1217C11.0856 10.0756 11.1153 10.0079 11.1132 9.93733C11.1131 9.93377 11.1129 9.93021 11.1126 9.92637C11.1152 9.80099 11.218 9.69977 11.3439 9.69977C11.3749 9.69977 11.4049 9.70576 11.4331 9.71759C11.5221 9.75478 11.6247 9.73377 11.6918 9.66446C11.7588 9.59517 11.7766 9.49186 11.7365 9.40419C11.6796 9.27984 11.6541 9.14705 11.6607 9.00952C11.6814 8.57697 12.0363 8.2223 12.4686 8.20203C12.8265 8.18527 13.1586 8.39586 13.2955 8.72606C13.3374 8.82709 13.4436 8.8856 13.5514 8.86718C13.6592 8.84867 13.7399 8.758 13.7456 8.64878C13.7808 7.98682 14.328 7.46832 14.9916 7.46832C15.1442 7.46832 15.2937 7.49583 15.4359 7.55009C15.5567 7.59618 15.6921 7.53558 15.7381 7.41475C15.7842 7.29389 15.7236 7.15857 15.6028 7.11249C15.4071 7.03784 15.2014 7 14.9916 7C14.2719 7 13.6517 7.44357 13.398 8.07768C13.1441 7.84686 12.8037 7.71763 12.4468 7.73424C11.7758 7.76568 11.2251 8.31602 11.1929 8.98713C11.1887 9.07449 11.1929 9.16066 11.2054 9.24524C10.9629 9.29414 10.7654 9.46882 10.6842 9.69799C10.1108 9.72215 9.65185 10.1962 9.65185 10.7754C9.65185 11.0506 9.75701 11.3087 9.936 11.5039C9.8488 11.5575 9.76247 11.6193 9.67711 11.6898C9.54614 11.7978 9.48045 11.9625 9.5014 12.1301L10.8011 22.5279C10.8348 22.7971 11.0647 23 11.3359 23H18.7409C19.0121 23 19.242 22.7971 19.2757 22.5279L20.5754 12.1301C20.5964 11.9624 20.5307 11.7978 20.3997 11.6897ZM15.776 12.0747L15.5765 21.3753H14.5003L14.3003 12.0539C14.6031 11.7321 15.0424 11.4914 15.776 12.0747ZM9.97519 12.051C10.1025 11.9459 10.258 11.8392 10.4459 11.7763C10.4588 11.7732 10.4714 11.7692 10.4836 11.764C10.5773 11.7364 10.6788 11.7198 10.7886 11.7198C11.0557 11.7198 11.3723 11.8177 11.7456 12.0898L12.3056 19.1099C12.3154 19.2325 12.4179 19.3254 12.5388 19.3254C12.545 19.3254 12.5513 19.3252 12.5577 19.3247C12.6866 19.3144 12.7827 19.2016 12.7725 19.0727L12.2137 12.0681C12.7905 11.6047 13.309 11.6056 13.8322 12.0706L14.0319 21.3753H12.9562L12.8519 20.0684C12.8417 19.9395 12.7288 19.8433 12.5999 19.8536C12.471 19.8639 12.3748 19.9767 12.3851 20.1057L12.4864 21.3753H11.129L9.96613 12.072C9.96516 12.0643 9.96853 12.0565 9.97519 12.051ZM18.7409 22.5317H11.3359C11.3004 22.5317 11.2702 22.5051 11.2658 22.4698L11.1876 21.8436H12.7394H12.7397H12.74H17.3367H17.3371H17.3374H18.8892L18.8109 22.4698C18.8065 22.5051 18.7764 22.5317 18.7409 22.5317ZM18.9478 21.3753H17.5904L18.1127 14.8285C18.123 14.6996 18.0268 14.5867 17.8979 14.5764C17.7692 14.5659 17.6562 14.6623 17.6459 14.7912L17.1206 21.3753H16.0449L16.2446 12.0706C16.7679 11.6056 17.2864 11.6047 17.8631 12.0681L17.7253 13.7965C17.715 13.9254 17.8111 14.0382 17.9401 14.0485C17.9464 14.049 17.9527 14.0493 17.9589 14.0493C18.0798 14.0493 18.1823 13.9563 18.1921 13.8337L18.3312 12.0898C18.8929 11.6804 19.3258 11.6658 19.6557 11.7847C19.67 11.792 19.6849 11.7976 19.7001 11.8017C19.8574 11.8658 19.9903 11.9591 20.1016 12.051C20.1083 12.0565 20.1117 12.0643 20.1107 12.072L18.9478 21.3753Z"/>
</mask>
<path d="M20.3997 11.6897C20.3099 11.6156 20.219 11.551 20.1272 11.4956C20.263 11.2824 20.3359 11.035 20.3359 10.7754C20.3359 10.1409 19.8946 9.60354 19.2961 9.46429C19.2597 9.04951 18.9426 8.71401 18.5365 8.64935C18.3916 8.21359 17.9781 7.90458 17.5051 7.90458C17.166 7.90458 16.8592 8.06154 16.6588 8.30997C16.6215 8.15682 16.5632 8.00896 16.4851 7.87124C16.4214 7.75872 16.2784 7.71919 16.1659 7.78298C16.0534 7.84673 16.0139 7.98963 16.0777 8.10216C16.1834 8.28877 16.2393 8.50104 16.2393 8.71607C16.2393 8.76958 16.2355 8.82559 16.2279 8.88257C16.2189 8.95004 16.2397 9.01804 16.2849 9.06893C16.3301 9.11983 16.3954 9.1488 16.4632 9.14764L16.4735 9.1473C16.5093 9.1473 16.5458 9.14964 16.5822 9.15426C16.6549 9.16347 16.73 9.14305 16.7878 9.09806C16.8459 9.05292 16.8828 8.98791 16.8918 8.91495C16.9297 8.60595 17.1933 8.37294 17.5052 8.37294C17.8126 8.37294 18.0758 8.60223 18.1174 8.90627C18.1341 9.02794 18.2419 9.11592 18.3645 9.10815L18.3745 9.10749C18.3808 9.10706 18.3871 9.10643 18.3935 9.10643C18.6349 9.10643 18.8313 9.30282 18.8313 9.54422C18.8313 9.56907 18.8287 9.59499 18.8236 9.6234C18.8116 9.6894 18.8285 9.7574 18.87 9.81014C18.9115 9.86287 18.9736 9.89525 19.0406 9.89906C19.5043 9.92553 19.8675 10.3104 19.8675 10.7754C19.8675 10.9695 19.8052 11.1531 19.6899 11.3047C19.1888 11.1661 18.6616 11.2874 18.1139 11.6694C17.3939 11.114 16.6708 11.1108 16.0045 11.6595C15.4647 11.2542 14.7434 10.9973 14.0511 11.6422C13.5923 11.2731 13.107 11.165 12.6146 11.3174C12.5144 11.1768 12.4602 11.0091 12.4602 10.8328C12.4602 10.3708 12.8361 9.99487 13.2982 9.99487C13.4275 9.99487 13.5324 9.89003 13.5324 9.76071C13.5324 9.63139 13.4275 9.52655 13.2982 9.52655C12.5779 9.52655 11.9919 10.1125 11.9919 10.8328C11.9919 11.078 12.0592 11.3126 12.1846 11.5161C12.1107 11.5615 12.0367 11.6123 11.9628 11.6694C11.4252 11.2944 10.9073 11.1704 10.4146 11.2971C10.2336 11.1875 10.1201 10.9906 10.1201 10.7754C10.1201 10.439 10.3938 10.1653 10.7302 10.1653C10.7655 10.1653 10.8018 10.1686 10.838 10.175C10.9075 10.1874 10.9788 10.1678 11.0322 10.1217C11.0856 10.0756 11.1153 10.0079 11.1132 9.93733C11.1131 9.93377 11.1129 9.93021 11.1126 9.92637C11.1152 9.80099 11.218 9.69977 11.3439 9.69977C11.3749 9.69977 11.4049 9.70576 11.4331 9.71759C11.5221 9.75478 11.6247 9.73377 11.6918 9.66446C11.7588 9.59517 11.7766 9.49186 11.7365 9.40419C11.6796 9.27984 11.6541 9.14705 11.6607 9.00952C11.6814 8.57697 12.0363 8.2223 12.4686 8.20203C12.8265 8.18527 13.1586 8.39586 13.2955 8.72606C13.3374 8.82709 13.4436 8.8856 13.5514 8.86718C13.6592 8.84867 13.7399 8.758 13.7456 8.64878C13.7808 7.98682 14.328 7.46832 14.9916 7.46832C15.1442 7.46832 15.2937 7.49583 15.4359 7.55009C15.5567 7.59618 15.6921 7.53558 15.7381 7.41475C15.7842 7.29389 15.7236 7.15857 15.6028 7.11249C15.4071 7.03784 15.2014 7 14.9916 7C14.2719 7 13.6517 7.44357 13.398 8.07768C13.1441 7.84686 12.8037 7.71763 12.4468 7.73424C11.7758 7.76568 11.2251 8.31602 11.1929 8.98713C11.1887 9.07449 11.1929 9.16066 11.2054 9.24524C10.9629 9.29414 10.7654 9.46882 10.6842 9.69799C10.1108 9.72215 9.65185 10.1962 9.65185 10.7754C9.65185 11.0506 9.75701 11.3087 9.936 11.5039C9.8488 11.5575 9.76247 11.6193 9.67711 11.6898C9.54614 11.7978 9.48045 11.9625 9.5014 12.1301L10.8011 22.5279C10.8348 22.7971 11.0647 23 11.3359 23H18.7409C19.0121 23 19.242 22.7971 19.2757 22.5279L20.5754 12.1301C20.5964 11.9624 20.5307 11.7978 20.3997 11.6897ZM15.776 12.0747L15.5765 21.3753H14.5003L14.3003 12.0539C14.6031 11.7321 15.0424 11.4914 15.776 12.0747ZM9.97519 12.051C10.1025 11.9459 10.258 11.8392 10.4459 11.7763C10.4588 11.7732 10.4714 11.7692 10.4836 11.764C10.5773 11.7364 10.6788 11.7198 10.7886 11.7198C11.0557 11.7198 11.3723 11.8177 11.7456 12.0898L12.3056 19.1099C12.3154 19.2325 12.4179 19.3254 12.5388 19.3254C12.545 19.3254 12.5513 19.3252 12.5577 19.3247C12.6866 19.3144 12.7827 19.2016 12.7725 19.0727L12.2137 12.0681C12.7905 11.6047 13.309 11.6056 13.8322 12.0706L14.0319 21.3753H12.9562L12.8519 20.0684C12.8417 19.9395 12.7288 19.8433 12.5999 19.8536C12.471 19.8639 12.3748 19.9767 12.3851 20.1057L12.4864 21.3753H11.129L9.96613 12.072C9.96516 12.0643 9.96853 12.0565 9.97519 12.051ZM18.7409 22.5317H11.3359C11.3004 22.5317 11.2702 22.5051 11.2658 22.4698L11.1876 21.8436H12.7394H12.7397H12.74H17.3367H17.3371H17.3374H18.8892L18.8109 22.4698C18.8065 22.5051 18.7764 22.5317 18.7409 22.5317ZM18.9478 21.3753H17.5904L18.1127 14.8285C18.123 14.6996 18.0268 14.5867 17.8979 14.5764C17.7692 14.5659 17.6562 14.6623 17.6459 14.7912L17.1206 21.3753H16.0449L16.2446 12.0706C16.7679 11.6056 17.2864 11.6047 17.8631 12.0681L17.7253 13.7965C17.715 13.9254 17.8111 14.0382 17.9401 14.0485C17.9464 14.049 17.9527 14.0493 17.9589 14.0493C18.0798 14.0493 18.1823 13.9563 18.1921 13.8337L18.3312 12.0898C18.8929 11.6804 19.3258 11.6658 19.6557 11.7847C19.67 11.792 19.6849 11.7976 19.7001 11.8017C19.8574 11.8658 19.9903 11.9591 20.1016 12.051C20.1083 12.0565 20.1117 12.0643 20.1107 12.072L18.9478 21.3753Z" fill="#794CF8"/>
<path d="M20.3997 11.6897C20.3099 11.6156 20.219 11.551 20.1272 11.4956C20.263 11.2824 20.3359 11.035 20.3359 10.7754C20.3359 10.1409 19.8946 9.60354 19.2961 9.46429C19.2597 9.04951 18.9426 8.71401 18.5365 8.64935C18.3916 8.21359 17.9781 7.90458 17.5051 7.90458C17.166 7.90458 16.8592 8.06154 16.6588 8.30997C16.6215 8.15682 16.5632 8.00896 16.4851 7.87124C16.4214 7.75872 16.2784 7.71919 16.1659 7.78298C16.0534 7.84673 16.0139 7.98963 16.0777 8.10216C16.1834 8.28877 16.2393 8.50104 16.2393 8.71607C16.2393 8.76958 16.2355 8.82559 16.2279 8.88257C16.2189 8.95004 16.2397 9.01804 16.2849 9.06893C16.3301 9.11983 16.3954 9.1488 16.4632 9.14764L16.4735 9.1473C16.5093 9.1473 16.5458 9.14964 16.5822 9.15426C16.6549 9.16347 16.73 9.14305 16.7878 9.09806C16.8459 9.05292 16.8828 8.98791 16.8918 8.91495C16.9297 8.60595 17.1933 8.37294 17.5052 8.37294C17.8126 8.37294 18.0758 8.60223 18.1174 8.90627C18.1341 9.02794 18.2419 9.11592 18.3645 9.10815L18.3745 9.10749C18.3808 9.10706 18.3871 9.10643 18.3935 9.10643C18.6349 9.10643 18.8313 9.30282 18.8313 9.54422C18.8313 9.56907 18.8287 9.59499 18.8236 9.6234C18.8116 9.6894 18.8285 9.7574 18.87 9.81014C18.9115 9.86287 18.9736 9.89525 19.0406 9.89906C19.5043 9.92553 19.8675 10.3104 19.8675 10.7754C19.8675 10.9695 19.8052 11.1531 19.6899 11.3047C19.1888 11.1661 18.6616 11.2874 18.1139 11.6694C17.3939 11.114 16.6708 11.1108 16.0045 11.6595C15.4647 11.2542 14.7434 10.9973 14.0511 11.6422C13.5923 11.2731 13.107 11.165 12.6146 11.3174C12.5144 11.1768 12.4602 11.0091 12.4602 10.8328C12.4602 10.3708 12.8361 9.99487 13.2982 9.99487C13.4275 9.99487 13.5324 9.89003 13.5324 9.76071C13.5324 9.63139 13.4275 9.52655 13.2982 9.52655C12.5779 9.52655 11.9919 10.1125 11.9919 10.8328C11.9919 11.078 12.0592 11.3126 12.1846 11.5161C12.1107 11.5615 12.0367 11.6123 11.9628 11.6694C11.4252 11.2944 10.9073 11.1704 10.4146 11.2971C10.2336 11.1875 10.1201 10.9906 10.1201 10.7754C10.1201 10.439 10.3938 10.1653 10.7302 10.1653C10.7655 10.1653 10.8018 10.1686 10.838 10.175C10.9075 10.1874 10.9788 10.1678 11.0322 10.1217C11.0856 10.0756 11.1153 10.0079 11.1132 9.93733C11.1131 9.93377 11.1129 9.93021 11.1126 9.92637C11.1152 9.80099 11.218 9.69977 11.3439 9.69977C11.3749 9.69977 11.4049 9.70576 11.4331 9.71759C11.5221 9.75478 11.6247 9.73377 11.6918 9.66446C11.7588 9.59517 11.7766 9.49186 11.7365 9.40419C11.6796 9.27984 11.6541 9.14705 11.6607 9.00952C11.6814 8.57697 12.0363 8.2223 12.4686 8.20203C12.8265 8.18527 13.1586 8.39586 13.2955 8.72606C13.3374 8.82709 13.4436 8.8856 13.5514 8.86718C13.6592 8.84867 13.7399 8.758 13.7456 8.64878C13.7808 7.98682 14.328 7.46832 14.9916 7.46832C15.1442 7.46832 15.2937 7.49583 15.4359 7.55009C15.5567 7.59618 15.6921 7.53558 15.7381 7.41475C15.7842 7.29389 15.7236 7.15857 15.6028 7.11249C15.4071 7.03784 15.2014 7 14.9916 7C14.2719 7 13.6517 7.44357 13.398 8.07768C13.1441 7.84686 12.8037 7.71763 12.4468 7.73424C11.7758 7.76568 11.2251 8.31602 11.1929 8.98713C11.1887 9.07449 11.1929 9.16066 11.2054 9.24524C10.9629 9.29414 10.7654 9.46882 10.6842 9.69799C10.1108 9.72215 9.65185 10.1962 9.65185 10.7754C9.65185 11.0506 9.75701 11.3087 9.936 11.5039C9.8488 11.5575 9.76247 11.6193 9.67711 11.6898C9.54614 11.7978 9.48045 11.9625 9.5014 12.1301L10.8011 22.5279C10.8348 22.7971 11.0647 23 11.3359 23H18.7409C19.0121 23 19.242 22.7971 19.2757 22.5279L20.5754 12.1301C20.5964 11.9624 20.5307 11.7978 20.3997 11.6897ZM15.776 12.0747L15.5765 21.3753H14.5003L14.3003 12.0539C14.6031 11.7321 15.0424 11.4914 15.776 12.0747ZM9.97519 12.051C10.1025 11.9459 10.258 11.8392 10.4459 11.7763C10.4588 11.7732 10.4714 11.7692 10.4836 11.764C10.5773 11.7364 10.6788 11.7198 10.7886 11.7198C11.0557 11.7198 11.3723 11.8177 11.7456 12.0898L12.3056 19.1099C12.3154 19.2325 12.4179 19.3254 12.5388 19.3254C12.545 19.3254 12.5513 19.3252 12.5577 19.3247C12.6866 19.3144 12.7827 19.2016 12.7725 19.0727L12.2137 12.0681C12.7905 11.6047 13.309 11.6056 13.8322 12.0706L14.0319 21.3753H12.9562L12.8519 20.0684C12.8417 19.9395 12.7288 19.8433 12.5999 19.8536C12.471 19.8639 12.3748 19.9767 12.3851 20.1057L12.4864 21.3753H11.129L9.96613 12.072C9.96516 12.0643 9.96853 12.0565 9.97519 12.051ZM18.7409 22.5317H11.3359C11.3004 22.5317 11.2702 22.5051 11.2658 22.4698L11.1876 21.8436H12.7394H12.7397H12.74H17.3367H17.3371H17.3374H18.8892L18.8109 22.4698C18.8065 22.5051 18.7764 22.5317 18.7409 22.5317ZM18.9478 21.3753H17.5904L18.1127 14.8285C18.123 14.6996 18.0268 14.5867 17.8979 14.5764C17.7692 14.5659 17.6562 14.6623 17.6459 14.7912L17.1206 21.3753H16.0449L16.2446 12.0706C16.7679 11.6056 17.2864 11.6047 17.8631 12.0681L17.7253 13.7965C17.715 13.9254 17.8111 14.0382 17.9401 14.0485C17.9464 14.049 17.9527 14.0493 17.9589 14.0493C18.0798 14.0493 18.1823 13.9563 18.1921 13.8337L18.3312 12.0898C18.8929 11.6804 19.3258 11.6658 19.6557 11.7847C19.67 11.792 19.6849 11.7976 19.7001 11.8017C19.8574 11.8658 19.9903 11.9591 20.1016 12.051C20.1083 12.0565 20.1117 12.0643 20.1107 12.072L18.9478 21.3753Z" stroke="#794CF8" stroke-width="0.3" mask="url(#path-2-outside-1)"/>
<path d="M14.8452 8.8125C14.7159 8.8125 14.6111 8.91734 14.6111 9.04666C14.6111 9.17598 14.7159 9.28082 14.8452 9.28082C15.0034 9.28082 15.132 9.40949 15.132 9.56763C15.132 9.69695 15.2369 9.80179 15.3662 9.80179C15.4955 9.80179 15.6004 9.69695 15.6004 9.56763C15.6004 9.15122 15.2616 8.8125 14.8452 8.8125Z" fill="#794CF8"/>
<path d="M16.9149 10.5704C16.9149 10.3569 17.0885 10.1832 17.3021 10.1832C17.4314 10.1832 17.5362 10.0783 17.5362 9.94901C17.5362 9.81969 17.4314 9.71484 17.3021 9.71484C16.8303 9.71484 16.4465 10.0986 16.4465 10.5704C16.4465 10.6997 16.5514 10.8045 16.6807 10.8045C16.81 10.8045 16.9149 10.6997 16.9149 10.5704Z" fill="#794CF8"/>
</svg>
