<svg width="73" height="73" viewBox="0 0 73 73" fill="none" xmlns="http://www.w3.org/2000/svg">
<path d="M26.6094 23.2233L23.3612 22.7513L21.9086 19.808C21.7034 19.3556 21.0058 19.3557 20.8006 19.808L19.3479 22.7513L16.0998 23.2233C15.6062 23.2786 15.3907 23.9422 15.7574 24.2771L18.1078 26.5682L17.5529 29.8033C17.453 30.2898 18.0175 30.6999 18.4493 30.4545L21.3546 28.9271L24.2598 30.4545C24.6909 30.6999 25.2563 30.2898 25.1562 29.8033L24.6014 26.5682L26.9518 24.2771C27.3186 23.9422 27.103 23.2787 26.6094 23.2233ZM23.5064 25.9101C23.3607 26.0521 23.2944 26.2566 23.3287 26.457L23.7268 28.7784L21.6421 27.6823C21.4621 27.5878 21.2471 27.5878 21.0671 27.6823L18.9824 28.7784L19.3806 26.457C19.4149 26.2566 19.3485 26.0521 19.2029 25.9101L17.5163 24.2661L19.8471 23.9274C20.0483 23.8983 20.2223 23.7718 20.3122 23.5895L21.3546 21.4773L22.3969 23.5895C22.487 23.7718 22.6609 23.8982 22.8621 23.9274L25.1929 24.2661L23.5064 25.9101Z" fill="#6A7FA4"/>
<path d="M26.6094 34.8405L23.3612 34.3685L21.9086 31.4252C21.7034 30.9728 21.0058 30.9729 20.8006 31.4252L19.3479 34.3685L16.0998 34.8405C15.6062 34.8958 15.3907 35.5594 15.7574 35.8943L18.1078 38.1854L17.5529 41.4205C17.453 41.907 18.0175 42.317 18.4493 42.0717L21.3546 40.5443L24.2598 42.0717C24.6909 42.317 25.2563 41.907 25.1562 41.4205L24.6014 38.1854L26.9518 35.8943C27.3186 35.5594 27.103 34.8959 26.6094 34.8405ZM23.5064 37.5273C23.3607 37.6693 23.2944 37.8737 23.3287 38.0742L23.7268 40.3956L21.6421 39.2995C21.4621 39.2049 21.2471 39.2049 21.0671 39.2995L18.9824 40.3956L19.3806 38.0742C19.4149 37.8737 19.3485 37.6693 19.2029 37.5273L17.5163 35.8833L19.8471 35.5446C20.0483 35.5155 20.2223 35.389 20.3122 35.2066L21.3546 33.0945L22.3969 35.2066C22.487 35.389 22.6609 35.5154 22.8621 35.5446L25.1929 35.8833L23.5064 37.5273Z" fill="#6A7FA4"/>
<path d="M26.6094 46.4538L23.3612 45.9817L21.9086 43.0384C21.7034 42.5861 21.0058 42.5862 20.8006 43.0384L19.3479 45.9817L16.0998 46.4538C15.6062 46.5091 15.3907 47.1727 15.7574 47.5076L18.1078 49.7987L17.5529 53.0337C17.453 53.5203 18.0175 53.9303 18.4493 53.685L21.3546 52.1576L24.2598 53.685C24.6909 53.9303 25.2564 53.5203 25.1562 53.0337L24.6014 49.7987L26.9518 47.5076C27.3186 47.1727 27.103 46.5092 26.6094 46.4538ZM23.5064 49.1405C23.3607 49.2826 23.2944 49.487 23.3287 49.6874L23.7268 52.0089L21.6421 50.9128C21.4621 50.8182 21.2471 50.8182 21.0671 50.9128L18.9824 52.0089L19.3806 49.6874C19.4149 49.487 19.3485 49.2826 19.2029 49.1405L17.5163 47.4966L19.8471 47.1579C20.0483 47.1288 20.2223 47.0023 20.3122 46.8199L21.3546 44.7078L22.3969 46.8199C22.487 47.0023 22.6609 47.1287 22.8621 47.1579L25.1929 47.4966L23.5064 49.1405Z" fill="#6A7FA4"/>
<path d="M56.3235 21.6406H54.5436C54.2024 21.6406 53.9258 21.9172 53.9258 22.2584C53.9258 22.5997 54.2024 22.8763 54.5436 22.8763H56.3235C56.437 22.8763 56.5294 22.9686 56.5294 23.0822V26.8715C56.5294 26.9851 56.437 27.0775 56.3235 27.0775H31.6105C31.497 27.0775 31.4046 26.9851 31.4046 26.8715V23.0822C31.4046 22.9686 31.497 22.8763 31.6105 22.8763H51.6605C52.0017 22.8763 52.2783 22.5997 52.2783 22.2584C52.2783 21.9172 52.0017 21.6406 51.6605 21.6406H31.6105C30.8157 21.6406 30.1689 22.2874 30.1689 23.0822V26.8715C30.1689 27.6664 30.8157 28.3131 31.6105 28.3131H56.3235C57.1183 28.3131 57.765 27.6664 57.765 26.8715V23.0822C57.765 22.2874 57.1184 21.6406 56.3235 21.6406Z" fill="#6A7FA4"/>
<path d="M34.8966 24.3594C34.5554 24.3594 34.2788 24.6359 34.2788 24.9772C34.2788 25.3185 34.5554 25.595 34.8966 25.595H52.1957C52.5369 25.595 52.8135 25.3185 52.8135 24.9772C52.8135 24.6359 52.5369 24.3594 52.1957 24.3594H34.8966Z" fill="#6A7FA4"/>
<path d="M49.7333 33.2578H31.6105C30.8157 33.2578 30.1689 33.9045 30.1689 34.6994V38.4887C30.1689 39.2836 30.8157 39.9303 31.6105 39.9303H45.5646C45.9058 39.9303 46.1824 39.6538 46.1824 39.3125C46.1824 38.9712 45.9058 38.6947 45.5646 38.6947H31.6105C31.497 38.6947 31.4046 38.6023 31.4046 38.4887V34.6994C31.4046 34.5858 31.497 34.4935 31.6105 34.4935H49.7333C49.8469 34.4935 49.9393 34.5858 49.9393 34.6994V38.4887C49.9393 38.6023 49.8469 38.6947 49.7333 38.6947H48.4478C48.1066 38.6947 47.83 38.9712 47.83 39.3125C47.83 39.6538 48.1066 39.9303 48.4478 39.9303H49.7333C50.5282 39.9303 51.1749 39.2836 51.1749 38.4887V34.6994C51.1749 33.9045 50.5283 33.2578 49.7333 33.2578Z" fill="#6A7FA4"/>
<path d="M46.4293 35.9727H34.8966C34.5554 35.9727 34.2788 36.2492 34.2788 36.5905C34.2788 36.9318 34.5554 37.2083 34.8966 37.2083H46.4293C46.7705 37.2083 47.0472 36.9318 47.0472 36.5905C47.0472 36.2492 46.7705 35.9727 46.4293 35.9727Z" fill="#6A7FA4"/>
<path d="M41.4957 44.8711H35.7618C35.4206 44.8711 35.144 45.1476 35.144 45.4889C35.144 45.8302 35.4206 46.1067 35.7618 46.1067H41.4957C41.6092 46.1067 41.7016 46.1991 41.7016 46.3127V50.102C41.7016 50.2156 41.6092 50.3079 41.4957 50.3079H31.6105C31.497 50.3079 31.4046 50.2156 31.4046 50.102V46.3127C31.4046 46.1991 31.497 46.1067 31.6105 46.1067H32.8786C33.2198 46.1067 33.4965 45.8302 33.4965 45.4889C33.4965 45.1476 33.2198 44.8711 32.8786 44.8711H31.6105C30.8157 44.8711 30.1689 45.5178 30.1689 46.3127V50.102C30.1689 50.8968 30.8157 51.5436 31.6105 51.5436H41.4957C42.2906 51.5436 42.9373 50.8968 42.9373 50.102V46.3127C42.9373 45.5178 42.2906 44.8711 41.4957 44.8711Z" fill="#6A7FA4"/>
<path d="M38.6126 48.8255C38.9538 48.8255 39.2304 48.549 39.2304 48.2077C39.2304 47.8664 38.9538 47.5898 38.6126 47.5898H34.4938C34.1526 47.5898 33.876 47.8664 33.876 48.2077C33.876 48.549 34.1526 48.8255 34.4938 48.8255H38.6126Z" fill="#6A7FA4"/>
</svg>
