<svg width="60" height="60" viewBox="0 0 60 60" fill="none" xmlns="http://www.w3.org/2000/svg">
<path d="M60 8.46154V5.56031H9.29168V0H6.39034V5.5602H0V8.46154H6.39034V60H9.29168V8.46154H20.3846V14.2136H15.0478V40.3153H54.831V14.2134H50V8.46154H60ZM23.2173 8.46154H46.9272L46.7455 14.2136H23.2196L23.2173 8.46154ZM27.8296 29.5489C27.6669 29.8499 27.4523 30.0904 27.1862 30.2701C26.9198 30.4501 26.6189 30.5798 26.2835 30.6593C25.9479 30.7388 25.6106 30.7786 25.2717 30.7786C25.002 30.7786 24.7252 30.7579 24.4417 30.7164C24.1579 30.6749 23.8761 30.6162 23.5959 30.54C23.3157 30.4639 23.046 30.3739 22.7866 30.2702C22.5272 30.1665 22.2867 30.049 22.0655 29.9175L22.9371 28.143C23.1791 28.2953 23.4316 28.4302 23.6946 28.5478C23.916 28.6515 24.1668 28.7449 24.447 28.828C24.7271 28.911 25.0124 28.9526 25.303 28.9526C25.5244 28.9526 25.6782 28.9232 25.7648 28.8643C25.8512 28.8056 25.8945 28.7278 25.8945 28.6308C25.8945 28.5271 25.8512 28.4388 25.7648 28.3662C25.6784 28.2935 25.5589 28.2296 25.4068 28.1742C25.2546 28.1189 25.08 28.0637 24.8828 28.0082C24.6855 27.9529 24.4762 27.8872 24.255 27.8109C23.9299 27.7004 23.6496 27.5811 23.4145 27.4529C23.1792 27.3251 22.9855 27.1798 22.8335 27.0171C22.6812 26.8547 22.5688 26.6695 22.4963 26.462C22.4236 26.2545 22.3873 26.0157 22.3873 25.746C22.3873 25.3379 22.4616 24.9782 22.6103 24.6668C22.759 24.3555 22.9613 24.0961 23.2173 23.8886C23.4732 23.6811 23.7655 23.5238 24.0941 23.4164C24.4226 23.3092 24.7703 23.2556 25.1368 23.2556C25.4067 23.2556 25.6695 23.2815 25.9254 23.3334C26.1813 23.3852 26.4287 23.4511 26.6673 23.5305C26.906 23.6101 27.129 23.6966 27.3367 23.79C27.5442 23.8834 27.7309 23.9715 27.897 24.0546L27.0253 25.7252C26.8178 25.6007 26.6032 25.4902 26.382 25.3932C26.1952 25.3103 25.9859 25.2323 25.7542 25.1598C25.5223 25.0872 25.2959 25.0508 25.0745 25.0508C24.8946 25.0508 24.7511 25.0785 24.6439 25.1338C24.5366 25.1892 24.483 25.2826 24.483 25.414C24.483 25.5109 24.5142 25.5904 24.5764 25.6526C24.6387 25.7148 24.7286 25.7719 24.8463 25.8238C24.9639 25.8756 25.1074 25.926 25.277 25.9743C25.4463 26.0228 25.6383 26.0816 25.8529 26.1506C26.1918 26.2543 26.4979 26.3685 26.7711 26.493C27.0443 26.6176 27.2777 26.7646 27.4716 26.934C27.6652 27.1036 27.8141 27.3094 27.9178 27.5515C28.0216 27.7937 28.0734 28.0876 28.0734 28.4334C28.0733 28.8763 27.992 29.248 27.8296 29.5489ZM33.0333 30.6852L32.587 29.2429H30.6259L30.1901 30.6852H28.1251L30.6881 23.318H32.5351L35.0877 30.6852H33.0333ZM41.0646 30.6852H35.7V23.318H37.7234V28.9212H41.0646V30.6852ZM47.0207 30.6852H41.7701V23.318H46.9272V25.082H43.7936V26.1196H46.4707V27.759H43.7936V28.9212H47.0207V30.6852Z" fill="#072967"/>
<path d="M31.6116 25.6123L30.9268 27.8951H32.2653L31.6116 25.6123Z" fill="black"/>
<rect x="17.6924" y="16.9238" width="34.6154" height="20.7692" fill="white"/>
<path d="M34.2974 22.9409C34.4034 22.8565 34.4633 22.7293 34.4598 22.5929C34.4564 22.4599 34.3942 22.3374 34.2871 22.2599C33.4428 21.6448 31.7152 20.8679 29.6294 22.5825C28.1851 23.7675 28.0618 26.3123 29.3633 28.028C29.6317 28.3818 30.0486 28.8073 30.6014 29.2928C30.7408 29.4154 30.9331 29.4431 31.1025 29.3657C31.2741 29.2882 31.38 29.1229 31.38 28.9344V25.9793C31.38 25.5307 31.5781 25.1156 31.9225 24.8405L34.2974 22.9409Z" fill="#FFCD59"/>
<path d="M40.3705 22.5824C39.4238 21.8043 38.5519 21.5396 37.8021 21.5396C36.8991 21.5396 36.1747 21.9234 35.7128 22.2598C35.6057 22.3385 35.5424 22.4599 35.5401 22.5928C35.5366 22.7292 35.5965 22.8553 35.7025 22.9408L38.0774 24.8404C38.4218 25.1156 38.6199 25.5306 38.6199 25.9792V28.9355C38.6199 29.1228 38.7258 29.2881 38.8974 29.3667C39.0667 29.4442 39.2591 29.4165 39.3984 29.2939C39.9513 28.8083 40.3682 28.3829 40.6366 28.0291C41.9381 26.3122 41.8148 23.7675 40.3705 22.5824Z" fill="#4C88F8"/>
<path d="M35.3181 23.7567C35.2248 23.6815 35.1119 23.6445 35.0002 23.6445C34.8885 23.6445 34.7756 23.6815 34.6823 23.7567L32.464 25.5314C32.3327 25.6366 32.2532 25.8042 32.2532 25.9788V28.742C32.2532 29.0507 32.4905 29.3016 32.7807 29.3016H37.2185C37.5099 29.3016 37.746 29.0507 37.746 28.742V25.9788C37.746 25.8042 37.6676 25.6366 37.5352 25.5314L35.3181 23.7567Z" fill="#F0695A"/>
<path d="M38.0685 30.3162C38.0443 30.2526 37.9832 30.1855 37.883 30.1855H35.0002H32.1173C32.0171 30.1855 31.9561 30.2526 31.9319 30.3162C31.9077 30.3786 31.9089 30.47 31.9814 30.5393C32.7865 31.3093 34.1375 32.2551 34.6074 32.5013C34.733 32.5672 34.8677 32.6065 35.0002 32.61C35.1326 32.6054 35.2674 32.5661 35.3929 32.5013C35.8629 32.2551 37.215 31.3093 38.0189 30.5393C38.0915 30.47 38.0915 30.3786 38.0685 30.3162Z" fill="#39C2AA"/>
<rect y="57.3911" width="26.9565" height="2.60869" fill="#072967"/>
</svg>
