<svg width="73" height="73" viewBox="0 0 73 73" fill="none" xmlns="http://www.w3.org/2000/svg">
<path d="M27.9274 27.8317C27.7702 27.8318 27.6183 27.7755 27.4991 27.673C27.38 27.5705 27.3016 27.4287 27.2783 27.2733C27.2549 27.1179 27.2881 26.9592 27.3719 26.8262C27.4556 26.6933 27.5843 26.5948 27.7345 26.5487L31.6441 25.3417C31.7264 25.3163 31.813 25.3073 31.8988 25.3154C31.9846 25.3234 32.068 25.3483 32.1442 25.3885C32.2204 25.4288 32.2879 25.4837 32.3429 25.55C32.3979 25.6164 32.4393 25.6929 32.4647 25.7753C32.4901 25.8576 32.499 25.9442 32.491 26.03C32.483 26.1158 32.4581 26.1992 32.4178 26.2754C32.3776 26.3516 32.3227 26.4191 32.2563 26.4741C32.19 26.5291 32.1134 26.5705 32.0311 26.5959L28.1242 27.8055C28.0603 27.8244 27.9939 27.8332 27.9274 27.8317Z" fill="#6A7FA4"/>
<path d="M36.5862 40.9516C36.5031 40.9515 36.4208 40.9357 36.3435 40.9051L14.0407 32.0095C13.9149 31.9594 13.8077 31.8716 13.7338 31.7581C13.6598 31.6446 13.6229 31.5111 13.6279 31.3757C13.6329 31.2404 13.6797 31.1099 13.7619 31.0023C13.844 30.8946 13.9575 30.815 14.0866 30.7743L17.5567 29.6986C17.7217 29.6508 17.8989 29.6697 18.0502 29.7512C18.2014 29.8328 18.3147 29.9704 18.3655 30.1345C18.4164 30.2986 18.4009 30.4761 18.3222 30.6289C18.2436 30.7817 18.1082 30.8975 17.945 30.9515L16.2448 31.4762L36.5862 39.5892L53.5757 32.8164C53.6011 32.8022 53.6274 32.7897 53.6544 32.779L56.9211 31.4795L36.5862 25.1868L35.1661 25.6257C34.9997 25.677 34.8198 25.6602 34.666 25.5788C34.5121 25.4975 34.3968 25.3584 34.3454 25.1921C34.2941 25.0258 34.311 24.8459 34.3923 24.692C34.4736 24.5381 34.6127 24.4228 34.779 24.3715L36.3927 23.8729C36.5188 23.834 36.6537 23.834 36.7797 23.8729L59.0825 30.7737C59.2121 30.8138 59.326 30.8931 59.4087 31.0006C59.4913 31.1082 59.5386 31.2387 59.544 31.3742C59.5494 31.5097 59.5126 31.6436 59.4388 31.7574C59.365 31.8711 59.2577 31.9592 59.1317 32.0095L54.2185 33.9656C54.1932 33.9801 54.1669 33.9928 54.1398 34.0037L36.8289 40.9051C36.7517 40.9357 36.6693 40.9515 36.5862 40.9516Z" fill="#6A7FA4"/>
<path d="M20.8879 30.0121C20.7304 30.0131 20.5778 29.9575 20.4579 29.8553C20.3381 29.7531 20.259 29.6112 20.2351 29.4556C20.2112 29.2999 20.2442 29.1408 20.3279 29.0074C20.4116 28.874 20.5405 28.7752 20.6911 28.729L24.5948 27.5214C24.6771 27.496 24.7636 27.487 24.8493 27.495C24.9351 27.5031 25.0185 27.5279 25.0946 27.5681C25.1708 27.6084 25.2383 27.6632 25.2933 27.7295C25.3483 27.7958 25.3896 27.8723 25.415 27.9546C25.4405 28.037 25.4494 28.1235 25.4414 28.2092C25.4334 28.295 25.4085 28.3783 25.3683 28.4545C25.3281 28.5307 25.2732 28.5982 25.2069 28.6532C25.1406 28.7081 25.0641 28.7495 24.9818 28.7749L21.0788 29.9826C21.0169 30.0016 20.9526 30.0116 20.8879 30.0121Z" fill="#6A7FA4"/>
<path d="M23.3357 43.581C23.1617 43.581 22.9948 43.5118 22.8718 43.3888C22.7488 43.2658 22.6797 43.099 22.6797 42.925V35.0114C22.6797 34.8375 22.7488 34.6706 22.8718 34.5476C22.9948 34.4246 23.1617 34.3555 23.3357 34.3555C23.5096 34.3555 23.6765 34.4246 23.7995 34.5476C23.9225 34.6706 23.9916 34.8375 23.9916 35.0114V42.925C23.9916 43.099 23.9225 43.2658 23.7995 43.3888C23.6765 43.5118 23.5096 43.581 23.3357 43.581Z" fill="#6A7FA4"/>
<path d="M49.8288 43.581C49.6548 43.581 49.488 43.5118 49.365 43.3888C49.242 43.2658 49.1729 43.099 49.1729 42.925V35.0114C49.1729 34.8375 49.242 34.6706 49.365 34.5476C49.488 34.4246 49.6548 34.3555 49.8288 34.3555C50.0028 34.3555 50.1696 34.4246 50.2927 34.5476C50.4157 34.6706 50.4848 34.8375 50.4848 35.0114V42.925C50.4848 43.099 50.4157 43.2658 50.2927 43.3888C50.1696 43.5118 50.0028 43.581 49.8288 43.581Z" fill="#6A7FA4"/>
<path d="M36.5859 49.0863C28.7905 49.0863 22.6841 46.3817 22.6841 42.9294C22.6841 42.7554 22.7532 42.5886 22.8762 42.4656C22.9992 42.3425 23.1661 42.2734 23.34 42.2734C23.514 42.2734 23.6809 42.3425 23.8039 42.4656C23.9269 42.5886 23.996 42.7554 23.996 42.9294C23.996 45.2207 29.1663 47.7744 36.5859 47.7744C44.0056 47.7744 49.1759 45.2207 49.1759 42.9294C49.1759 42.7554 49.245 42.5886 49.368 42.4656C49.491 42.3425 49.6579 42.2734 49.8318 42.2734C50.0058 42.2734 50.1726 42.3425 50.2957 42.4656C50.4187 42.5886 50.4878 42.7554 50.4878 42.9294C50.4878 46.3817 44.3814 49.0863 36.5859 49.0863Z" fill="#6A7FA4"/>
<path d="M53.8992 41.3122C53.7252 41.3122 53.5584 41.2431 53.4354 41.12C53.3123 40.997 53.2432 40.8302 53.2432 40.6562V33.9654L36.4971 31.6695C36.4118 31.6578 36.3295 31.6294 36.2551 31.5859C36.1808 31.5424 36.1157 31.4847 36.0636 31.416C36.0115 31.3474 35.9735 31.2691 35.9516 31.1858C35.9298 31.1024 35.9246 31.0156 35.9363 30.9302C35.948 30.8449 35.9764 30.7626 36.0199 30.6882C36.0634 30.6139 36.1211 30.5488 36.1897 30.4967C36.2584 30.4446 36.3366 30.4066 36.42 30.3847C36.5033 30.3629 36.5902 30.3577 36.6755 30.3694L53.9884 32.7407C54.1455 32.7622 54.2894 32.84 54.3936 32.9595C54.4978 33.079 54.5552 33.2322 54.5552 33.3907V40.6562C54.5552 40.8302 54.4861 40.997 54.363 41.12C54.24 41.2431 54.0732 41.3122 53.8992 41.3122Z" fill="#6A7FA4"/>
<path d="M55.8751 44.667H52.1446C52.0467 44.667 51.95 44.6451 51.8616 44.6029C51.7732 44.5608 51.6954 44.4993 51.6339 44.4231C51.5724 44.347 51.5287 44.258 51.5061 44.1627C51.4834 44.0674 51.4824 43.9683 51.5031 43.8726L51.9858 41.6351C52.0854 41.1722 52.3405 40.7574 52.7089 40.4598C53.0772 40.1623 53.5363 40 54.0098 40C54.4833 40 54.9425 40.1623 55.3108 40.4598C55.6791 40.7574 55.9343 41.1722 56.0338 41.6351L56.5166 43.8726C56.5372 43.9683 56.5362 44.0674 56.5136 44.1627C56.4909 44.258 56.4472 44.347 56.3857 44.4231C56.3242 44.4993 56.2464 44.5608 56.158 44.6029C56.0697 44.6451 55.973 44.667 55.8751 44.667ZM52.9573 43.355H55.0623L54.7514 41.9119C54.7145 41.7426 54.6209 41.5911 54.486 41.4824C54.3511 41.3737 54.183 41.3145 54.0098 41.3145C53.8366 41.3145 53.6686 41.3737 53.5337 41.4824C53.3988 41.5911 53.3051 41.7426 53.2682 41.9119L52.9573 43.355Z" fill="#6A7FA4"/>
</svg>
