<svg width="73" height="73" viewBox="0 0 73 73" fill="none" xmlns="http://www.w3.org/2000/svg">
<path d="M55.5396 44.2923C54.7593 43.2632 53.6888 42.465 52.488 42.007C52.476 41.7829 52.4171 41.5608 52.3103 41.3568C51.8728 40.5213 51.0425 40.4635 50.097 40.4552C49.5331 38.7632 48.5854 35.8903 47.666 33.1036C47.5625 32.7896 47.2243 32.6189 46.9098 32.7226C46.5958 32.8263 46.4252 33.1648 46.5288 33.4788C47.3968 36.1101 48.2903 38.8185 48.8627 40.5388C47.6716 40.7113 46.531 41.1477 45.5277 41.8222C45.6649 40.9994 45.625 40.1886 45.4335 39.4255C42.9978 29.2552 43.1014 29.8291 43.0508 29.0903C43.2155 29.1047 43.1288 29.1008 45.0841 29.1008C45.3108 29.7869 45.5435 30.4923 45.7781 31.203C45.8817 31.5171 46.2201 31.6879 46.5344 31.584C46.8484 31.4804 47.019 31.1418 46.9154 30.8278C46.7232 30.2457 46.5327 29.6681 46.3453 29.1009H47.097C47.5665 29.1009 47.9702 28.8143 48.1425 28.4071H49.2613C49.8389 28.4071 50.3088 27.9373 50.3088 27.3597V25.3534C50.3088 24.7763 49.8389 24.3067 49.2613 24.3067H48.1426C47.9704 23.899 47.5666 23.6121 47.0969 23.6121H44.3054L42.7945 20.1964C42.6986 19.9796 42.4839 19.8399 42.2469 19.8399H40.713L41.0254 18.7707C41.1181 18.4533 40.9359 18.1208 40.6186 18.0281C40.3005 17.9353 39.9685 18.1175 39.8759 18.435L38.838 21.9877C38.7453 22.3052 38.9274 22.6376 39.2448 22.7303C39.5627 22.823 39.8949 22.6406 39.9875 22.3235L40.3631 21.0375H41.857L43.0028 23.6279C42.4741 23.6834 41.9781 23.8893 41.565 24.2253H39.17C38.7338 24.2253 38.3115 24.407 38.0117 24.7232L36.47 26.3471C36.2424 26.5869 36.2522 26.9659 36.492 27.1936C36.7317 27.4211 37.1107 27.4116 37.3386 27.1716L38.8805 25.5474C38.9555 25.4682 39.0611 25.4228 39.1701 25.4228H40.7121C40.2791 26.623 40.7291 27.9892 41.8387 28.6834C41.8444 29.8715 41.8391 29.5585 44.2705 39.7107C44.644 41.199 44.2651 42.7688 43.2723 43.9217C43.1066 44.1145 42.8674 44.2251 42.6158 44.2251C39.5842 44.2251 39.2884 44.2936 38.52 43.9873C38.213 43.8646 37.8645 44.0144 37.742 44.3217C37.6195 44.6289 37.7693 44.9772 38.0764 45.0997C39.1149 45.5137 39.6535 45.4227 42.6091 45.4227C42.3164 46.1521 42.1324 46.9267 42.0686 47.722H33.6347C33.9462 47.2871 34.1007 46.8046 34.1007 46.2624C34.1007 44.288 33.1932 42.5118 31.5452 41.2612C29.599 39.7842 26.9876 39.2641 24.5835 39.5596C24.2552 39.6 24.0218 39.8987 24.0622 40.227C24.1026 40.5552 24.4017 40.7886 24.7296 40.7483C28.6387 40.2679 32.9031 42.3252 32.9031 46.2964C32.9031 47.0511 32.1729 47.7181 31.2183 47.7221C17.5381 47.7221 18.3977 47.7237 18.3149 47.7194C17.5931 47.6756 17.1651 46.9634 17.2965 46.5514C18.0301 44.242 19.0555 43.7893 19.8392 42.9361C20.6321 42.2275 21.5442 41.6731 22.5511 41.2879C22.86 41.1698 23.0146 40.8236 22.8964 40.5147C22.7784 40.2059 22.4324 40.0512 22.1232 40.1694C20.969 40.6109 19.9235 41.249 19.0158 42.0659C18.9994 42.0807 18.9839 42.0963 18.9692 42.1128C18.9068 42.1828 18.807 42.2767 18.6893 42.385C19.4951 40.5733 20.4463 39.0681 21.5697 37.8243H34.3844C35.3937 42.1861 35.3795 42.501 35.9685 43.3881C36.1513 43.6636 36.5229 43.7387 36.7984 43.5558C37.074 43.3729 37.1489 43.0013 36.966 42.7258C36.5278 42.0656 36.5872 42.0319 35.4588 37.1558V35.6572C35.4588 34.5516 34.5593 33.6521 33.4536 33.6521H24.2297C22.4805 33.6521 20.9686 34.8387 20.5531 36.5376C20.504 36.7382 20.5161 36.9435 20.5832 37.1318C17.4953 40.6171 16.0605 45.902 16.0605 46.791C16.0605 47.9647 17.1036 48.9196 18.3857 48.9196H19.6243C19.8645 52.506 22.8565 55.3509 26.5023 55.3509C30.1487 55.3509 33.1412 52.5058 33.3812 48.9193C43.7852 48.9193 42.7763 48.9196 43.1531 48.9196C43.4034 52.3955 46.2673 55.3509 50.0404 55.3509C55.7469 55.3509 58.9532 48.7944 55.5396 44.2923ZM48.2313 25.5041H49.1112V27.2094H48.2313V25.5041ZM42.6816 27.7775C41.6711 27.3404 41.4337 26.0288 42.1996 25.2629C42.7256 24.738 43.2678 24.8095 43.9188 24.8095H47.0338V27.9032C42.9755 27.9032 43.0768 27.9484 42.6816 27.7775ZM24.2297 34.8493H33.4536C33.899 34.8493 34.2612 35.2117 34.2612 35.657V36.6261H21.7723C22.1192 35.5703 23.1024 34.8493 24.2297 34.8493ZM28.9806 48.9196C28.7617 50.0884 27.734 50.9758 26.5023 50.9758C25.2711 50.9758 24.2437 50.0883 24.0248 48.9196H28.9806ZM26.5023 54.1533C23.5172 54.1533 21.0625 51.845 20.825 48.9196H22.8136C23.0433 50.7513 24.6093 52.1733 26.5023 52.1733C28.3957 52.1733 29.9621 50.7513 30.1918 48.9196C31.8682 48.9196 30.548 48.9192 32.1805 48.9192C31.9431 51.8448 29.488 54.1533 26.5023 54.1533ZM50.9743 41.7172C51.2314 41.7526 51.3674 42.0375 51.252 42.2651L49.1691 46.3757C48.7482 47.2062 47.9083 47.7221 46.9772 47.7221C43.7167 47.7221 43.4996 47.7217 43.269 47.7217C43.6198 43.872 47.1752 41.1933 50.9743 41.7172ZM50.6931 46.0176C51.7823 46.3056 52.5625 47.2916 52.5625 48.4546C52.5625 49.8448 51.4311 50.9758 50.0404 50.9758C48.7927 50.9758 47.7544 50.0646 47.5545 48.8728C48.7023 48.6916 49.6997 47.9776 50.2373 46.917L50.6931 46.0176ZM50.0404 54.1533C46.9442 54.1533 44.5999 51.747 44.3532 48.9196H46.3517C46.5814 50.7513 48.1474 52.1733 50.0404 52.1733C52.0914 52.1733 53.76 50.5051 53.76 48.4545C53.76 46.8265 52.7227 45.4334 51.2427 44.9327L52.1424 43.1572C54.2829 44.0099 55.7391 46.1201 55.7391 48.4545C55.7391 51.5969 53.1828 54.1533 50.0404 54.1533Z" fill="#6A7FA4"/>
</svg>
