<svg width="24" height="24" viewBox="0 0 24 24" fill="none" xmlns="http://www.w3.org/2000/svg">
<path d="M11.9964 3.6001L3.59521 12.0001L11.9964 20.4001L20.3976 12.0001L11.9964 3.6001Z" stroke="#4F5F7A" stroke-width="1.5921"/>
<path d="M6.20102 11.9999C6.20102 13.4357 5.03687 14.5999 3.60051 14.5999C2.16415 14.5999 1 13.4357 1 11.9999C1 10.5641 2.16415 9.3999 3.60051 9.3999C5.03687 9.3999 6.20102 10.5641 6.20102 11.9999Z" fill="white" stroke="#4F5F7A" stroke-width="2"/>
<path d="M14.5985 3.59998C14.5985 5.03576 13.4343 6.19995 11.998 6.19995C10.5616 6.19995 9.39746 5.03576 9.39746 3.59998C9.39746 2.16419 10.5616 1 11.998 1C13.4343 1 14.5985 2.16419 14.5985 3.59998Z" fill="white" stroke="#4F5F7A" stroke-width="2"/>
<path d="M22.9998 11.9999C22.9998 13.4357 21.8357 14.5999 20.3993 14.5999C18.963 14.5999 17.7988 13.4357 17.7988 11.9999C17.7988 10.5641 18.963 9.3999 20.3993 9.3999C21.8357 9.3999 22.9998 10.5641 22.9998 11.9999Z" fill="white" stroke="#4F5F7A" stroke-width="2"/>
<path d="M14.5985 20.4002C14.5985 21.836 13.4343 23.0002 11.998 23.0002C10.5616 23.0002 9.39746 21.836 9.39746 20.4002C9.39746 18.9645 10.5616 17.8003 11.998 17.8003C13.4343 17.8003 14.5985 18.9645 14.5985 20.4002Z" fill="white" stroke="#4F5F7A" stroke-width="2"/>
</svg>
