<svg width="73" height="73" viewBox="0 0 73 73" fill="none" xmlns="http://www.w3.org/2000/svg">
<g clip-path="url(#clip0)">
<path d="M49.5027 29.5428C49.2864 29.3644 49.0676 29.2087 48.8464 29.0753C49.1734 28.5619 49.349 27.9663 49.349 27.341C49.349 25.8132 48.2863 24.5193 46.8452 24.184C46.7575 23.1852 45.9941 22.3773 45.0161 22.2216C44.6672 21.1723 43.6715 20.4282 42.5326 20.4282C41.7159 20.4282 40.9772 20.8062 40.4947 21.4044C40.4048 21.0356 40.2644 20.6796 40.0764 20.3479C39.9229 20.077 39.5787 19.9818 39.3079 20.1354C39.0369 20.2889 38.9417 20.633 39.0953 20.904C39.35 21.3533 39.4845 21.8645 39.4845 22.3823C39.4845 22.5111 39.4753 22.646 39.457 22.7832C39.4354 22.9457 39.4854 23.1094 39.5942 23.232C39.7031 23.3545 39.8604 23.4243 40.0236 23.4215L40.0485 23.4207C40.1345 23.4207 40.2226 23.4263 40.3102 23.4374C40.4852 23.4596 40.6661 23.4104 40.8053 23.3021C40.9452 23.1934 41.034 23.0369 41.0557 22.8612C41.1469 22.1171 41.7818 21.556 42.5327 21.556C43.2729 21.556 43.9067 22.1082 44.0071 22.8403C44.0472 23.1333 44.3068 23.3451 44.602 23.3264L44.626 23.3248C44.6411 23.3238 44.6563 23.3223 44.6717 23.3223C45.253 23.3223 45.7259 23.7951 45.7259 24.3764C45.7259 24.4363 45.7198 24.4987 45.7074 24.5671C45.6785 24.726 45.7192 24.8898 45.8192 25.0168C45.9191 25.1437 46.0687 25.2217 46.23 25.2309C47.3466 25.2946 48.2212 26.2215 48.2212 27.341C48.2212 27.8084 48.0711 28.2507 47.7934 28.6156C46.587 28.2818 45.3174 28.574 43.9986 29.4937C42.2649 28.1563 40.5236 28.1487 38.9191 29.47C37.6192 28.494 35.8823 27.8755 34.2154 29.4284C33.1106 28.5395 31.942 28.2792 30.7563 28.6463C30.5151 28.3076 30.3846 27.9038 30.3846 27.4794C30.3846 26.3668 31.2898 25.4616 32.4024 25.4616C32.7138 25.4616 32.9662 25.2092 32.9662 24.8978C32.9662 24.5864 32.7138 24.3339 32.4024 24.3339C30.6679 24.3339 29.2569 25.745 29.2569 27.4794C29.2569 28.0699 29.4188 28.6348 29.7207 29.1247C29.5428 29.234 29.3648 29.3565 29.1868 29.4937C27.8923 28.5909 26.6451 28.2922 25.4586 28.5973C25.0228 28.3335 24.7497 27.8592 24.7497 27.341C24.7497 26.531 25.4087 25.872 26.2187 25.872C26.3037 25.872 26.391 25.8798 26.4783 25.8954C26.6456 25.9253 26.8173 25.878 26.9459 25.767C27.0744 25.656 27.146 25.4929 27.1408 25.3231C27.1406 25.3145 27.1401 25.3059 27.1395 25.2967C27.1457 24.9947 27.3932 24.751 27.6966 24.751C27.771 24.751 27.8433 24.7654 27.9113 24.7939C28.1256 24.8835 28.3727 24.8329 28.5341 24.666C28.6956 24.4991 28.7383 24.2504 28.6418 24.0393C28.5048 23.7398 28.4434 23.4201 28.4593 23.0889C28.5092 22.0473 29.3638 21.1933 30.4048 21.1445C31.2665 21.1041 32.0663 21.6112 32.3959 22.4063C32.4967 22.6496 32.7526 22.7905 33.0122 22.7461C33.2718 22.7016 33.4659 22.4832 33.4798 22.2202C33.5644 20.6263 34.8822 19.3777 36.48 19.3777C36.8475 19.3777 37.2074 19.444 37.5499 19.5746C37.8409 19.6856 38.1667 19.5397 38.2777 19.2487C38.3887 18.9577 38.2428 18.6318 37.9518 18.5209C37.4805 18.3411 36.9853 18.25 36.48 18.25C34.7471 18.25 33.2537 19.3181 32.6427 20.845C32.0312 20.2892 31.2117 19.978 30.3521 20.018C28.7365 20.0937 27.4103 21.419 27.3329 23.035C27.3228 23.2453 27.3329 23.4528 27.363 23.6565C26.779 23.7742 26.3035 24.1949 26.1079 24.7467C24.7273 24.8049 23.622 25.9463 23.622 27.341C23.622 28.0037 23.8752 28.6252 24.3063 29.0954C24.0963 29.2244 23.8884 29.3732 23.6828 29.5429C23.3675 29.8031 23.2093 30.1995 23.2597 30.6033L26.3895 55.641C26.4705 56.2892 27.0241 56.7779 27.6772 56.7779H45.5083C46.1615 56.7779 46.715 56.2892 46.7961 55.641L49.9258 30.6033C49.9762 30.1995 49.818 29.8031 49.5027 29.5428ZM38.369 30.4697L37.8884 52.8655H35.2971L34.8155 30.4198C35.5445 29.6449 36.6025 29.0653 38.369 30.4697ZM24.4006 30.4127C24.7071 30.1597 25.0815 29.9027 25.534 29.7512C25.5651 29.7438 25.5955 29.7342 25.6249 29.7218C25.8504 29.6551 26.0948 29.6152 26.3593 29.6152C27.0026 29.6152 27.7648 29.851 28.6638 30.5061L30.0123 47.4104C30.0358 47.7056 30.2826 47.9295 30.5737 47.9295C30.5888 47.9295 30.604 47.9289 30.6192 47.9277C30.9296 47.9029 31.1611 47.6312 31.1364 47.3208L29.7909 30.454C31.1799 29.3381 32.4283 29.3403 33.6884 30.46L34.1691 52.8655H31.5788L31.3278 49.7186C31.3031 49.4081 31.0314 49.1766 30.7209 49.2014C30.4104 49.2261 30.1789 49.4978 30.2037 49.8083L30.4476 52.8656H27.1791L24.3788 30.4634C24.3765 30.4449 24.3846 30.4259 24.4006 30.4127ZM45.5083 55.6501H27.6772C27.5916 55.6501 27.5191 55.586 27.5085 55.5011L27.32 53.9932H31.0567H31.0575H31.0584H42.1271H42.128H42.1287H45.8655L45.677 55.5011C45.6664 55.586 45.5938 55.6501 45.5083 55.6501ZM46.0065 52.8655H42.738L43.9956 37.1009C44.0204 36.7905 43.7889 36.5187 43.4785 36.4939C43.1685 36.4686 42.8963 36.7007 42.8715 37.0112L41.6067 52.8655H39.0164L39.4972 30.46C40.7573 29.3403 42.0059 29.3381 43.3947 30.454L43.0627 34.6158C43.0379 34.9263 43.2695 35.198 43.58 35.2227C43.5952 35.224 43.6103 35.2245 43.6254 35.2245C43.9164 35.2245 44.1633 35.0006 44.1868 34.7055L44.5218 30.5061C45.8743 29.5204 46.9166 29.4851 47.7111 29.7715C47.7455 29.789 47.7814 29.8025 47.8181 29.8124C48.1969 29.9667 48.5168 30.1914 48.785 30.4127C48.801 30.4259 48.8091 30.4449 48.8069 30.4634L46.0065 52.8655Z" fill="#6A7FA4"/>
<path d="M36.1273 22.6133C35.8159 22.6133 35.5635 22.8657 35.5635 23.1771C35.5635 23.4885 35.8159 23.741 36.1273 23.741C36.5081 23.741 36.818 24.0508 36.818 24.4316C36.818 24.743 37.0704 24.9955 37.3818 24.9955C37.6932 24.9955 37.9457 24.743 37.9457 24.4316C37.9457 23.4289 37.13 22.6133 36.1273 22.6133Z" fill="#6A7FA4"/>
<path d="M41.1116 26.8453C41.1116 26.3311 41.5298 25.9129 42.044 25.9129C42.3554 25.9129 42.6079 25.6604 42.6079 25.349C42.6079 25.0376 42.3554 24.7852 42.044 24.7852C40.908 24.7852 39.9839 25.7093 39.9839 26.8453C39.9839 27.1567 40.2363 27.4091 40.5477 27.4091C40.8591 27.4091 41.1116 27.1567 41.1116 26.8453Z" fill="#6A7FA4"/>
</g>
<defs>
<clipPath id="clip0">
<rect width="38.5278" height="38.5278" fill="white" transform="translate(17.2363 18.25)"/>
</clipPath>
</defs>
</svg>
