<svg width="73" height="73" viewBox="0 0 73 73" fill="none" xmlns="http://www.w3.org/2000/svg">
<path d="M43.9434 15.582C43.4874 15.582 43.1177 15.9518 43.1177 16.4077V20.206C43.1177 20.662 43.4874 21.0317 43.9434 21.0317C44.3993 21.0317 44.7691 20.662 44.7691 20.206V16.4077C44.7691 15.9518 44.3993 15.582 43.9434 15.582Z" fill="#6A7FA4"/>
<path d="M24.9517 41.3398C24.4959 41.3398 24.126 41.7098 24.126 42.1656C24.126 42.6214 24.4959 42.9913 24.9517 42.9913C25.4075 42.9913 25.7774 42.6214 25.7774 42.1656C25.7774 41.7098 25.4075 41.3398 24.9517 41.3398Z" fill="#6A7FA4"/>
<path d="M55.5038 39.6903C55.5038 37.8691 54.0221 36.3874 52.201 36.3874H46.0368C46.9911 33.9431 47.3774 31.066 47.3029 28.5049C47.2887 28.0161 47.27 27.7335 47.2446 27.5555C47.2019 25.7714 45.7369 24.332 43.9438 24.332C42.1226 24.332 40.641 25.8137 40.641 27.6349V28.4606C40.641 33.6829 33.935 36.6171 28.8742 37.8753C28.4916 37.0005 27.6181 36.3874 26.6038 36.3874H18.3467C17.8908 36.3874 17.521 36.7572 17.521 37.2132V57.0303C17.521 57.4862 17.8908 57.856 18.3467 57.856H26.6038C27.6114 57.856 28.4798 57.251 28.8664 56.3855C29.2854 56.493 29.6744 56.5945 30.0335 56.6884C32.9165 57.4413 34.5046 57.856 38.367 57.856H47.2467C49.0679 57.856 50.5495 56.3743 50.5495 54.5531C50.5495 53.8741 50.3433 53.2424 49.9905 52.7169C51.2661 52.2708 52.201 51.052 52.201 49.5989C52.201 48.9223 51.9998 48.2885 51.6481 47.7607C52.918 47.3138 53.8524 46.0978 53.8524 44.6446C53.8524 43.9655 53.6462 43.3338 53.2934 42.8084C54.5689 42.3622 55.5038 41.1435 55.5038 39.6903ZM27.4296 55.3789C27.4296 55.8341 27.0591 56.2046 26.6038 56.2046H19.1724V38.0389H26.6038C27.0591 38.0389 27.4296 38.4093 27.4296 38.8646V55.3789ZM52.201 41.3417C50.4299 41.3417 50.0077 41.3417 48.0724 41.3417C47.6164 41.3417 47.2467 41.7115 47.2467 42.1674C47.2467 42.6234 47.6164 42.9932 48.0724 42.9932H50.5495C51.4601 42.9932 52.201 43.734 52.201 44.6446C52.201 45.5567 51.4616 46.296 50.5495 46.296H46.421C45.965 46.296 45.5952 46.6658 45.5952 47.1217C45.5952 47.5777 45.965 47.9474 46.421 47.9474H48.8981C49.7979 47.9474 50.5495 48.6662 50.5495 49.5989C50.5495 50.5109 49.8102 51.2503 48.8981 51.2503C47.127 51.2503 46.7048 51.2503 44.7695 51.2503C44.3136 51.2503 43.9438 51.62 43.9438 52.076C43.9438 52.532 44.3136 52.9017 44.7695 52.9017H47.2467C48.1573 52.9017 48.8981 53.6425 48.8981 54.5531C48.8981 55.4637 48.1573 56.2046 47.2467 56.2046H38.367C34.7167 56.2046 33.291 55.8322 30.4508 55.0905C30.0348 54.9818 29.5784 54.8627 29.081 54.7359V39.5272C35.0565 38.1039 42.2924 34.6296 42.2924 28.4606V27.6349C42.2924 26.7243 43.0332 25.9835 43.9438 25.9835C44.8528 25.9835 45.5935 26.7231 45.5952 27.6323V27.6349C45.5952 27.9937 46.0431 32.3978 44.2472 36.3874H41.4667C41.0107 36.3874 40.641 36.7572 40.641 37.2132C40.641 37.6691 41.0107 38.0389 41.4667 38.0389C42.0433 38.0389 51.2598 38.0389 52.201 38.0389C53.1115 38.0389 53.8524 38.7797 53.8524 39.6903C53.8524 40.6024 53.113 41.3417 52.201 41.3417Z" fill="#6A7FA4"/>
<path d="M24.9527 44.6484C24.4967 44.6484 24.127 45.0182 24.127 45.4742V52.0799C24.127 52.5358 24.4967 52.9056 24.9527 52.9056C25.4086 52.9056 25.7784 52.5358 25.7784 52.0799V45.4742C25.7784 45.0182 25.4086 44.6484 24.9527 44.6484Z" fill="#6A7FA4"/>
<path d="M37.338 25.9844H34.0352C33.5792 25.9844 33.2095 26.3541 33.2095 26.8101C33.2095 27.266 33.5792 27.6358 34.0352 27.6358H37.338C37.794 27.6358 38.1638 27.266 38.1638 26.8101C38.1638 26.3541 37.794 25.9844 37.338 25.9844Z" fill="#6A7FA4"/>
<path d="M53.8517 25.9844H50.5489C50.0929 25.9844 49.7231 26.3541 49.7231 26.8101C49.7231 27.266 50.0929 27.6358 50.5489 27.6358H53.8517C54.3077 27.6358 54.6774 27.266 54.6774 26.8101C54.6774 26.3541 54.3077 25.9844 53.8517 25.9844Z" fill="#6A7FA4"/>
<path d="M51.5337 19.2183C51.2112 18.896 50.6885 18.896 50.3659 19.2183L48.0309 21.5534C47.7085 21.8758 47.7085 22.3986 48.0309 22.7212C48.3535 23.0436 48.8761 23.0435 49.1987 22.7212L51.5337 20.3861C51.8562 20.0637 51.8562 19.5409 51.5337 19.2183Z" fill="#6A7FA4"/>
<path d="M39.8555 21.5534L37.5205 19.2183C37.198 18.896 36.6753 18.896 36.3527 19.2183C36.0302 19.5408 36.0302 20.0636 36.3527 20.3861L38.6877 22.7212C39.0104 23.0436 39.533 23.0435 39.8555 22.7212C40.178 22.3987 40.178 21.8759 39.8555 21.5534Z" fill="#6A7FA4"/>
</svg>
