<svg width="27" height="27" viewBox="0 0 27 27" fill="none" xmlns="http://www.w3.org/2000/svg">
<circle cx="13.5" cy="13.5" r="13.125" fill="white" stroke="#39C2AA" stroke-width="0.75"/>
<path d="M10.2123 10.5955C10.051 10.806 10.0565 11.0694 10.0075 11.2524C9.9784 11.3608 10.0428 11.4723 10.1513 11.5014C10.2599 11.5304 10.3713 11.466 10.4003 11.3576C10.4525 11.1627 10.4511 10.9525 10.5351 10.843C10.6145 10.7393 10.8184 10.683 10.9972 10.5797C11.1753 10.4769 11.327 10.3281 11.4563 10.3111C11.5449 10.2997 11.6534 10.3404 11.7684 10.3837C11.8328 10.4079 11.8994 10.433 11.9694 10.4517C12.0778 10.4808 12.1893 10.4164 12.2184 10.3079C12.2475 10.1994 12.1831 10.088 12.0746 10.0589C11.8917 10.0099 11.6661 9.87334 11.4034 9.90788C11.22 9.93195 11.0733 10.0359 10.9439 10.1276C10.8091 10.2231 10.7831 10.2382 10.6324 10.3074C10.4882 10.3737 10.3249 10.4487 10.2123 10.5955Z" fill="#39C2AA"/>
<path d="M14.7608 7.55552C14.6059 7.49132 14.4466 7.50615 14.3061 7.51927C14.1643 7.53247 14.1395 7.5325 13.9976 7.51927C13.857 7.50618 13.6977 7.49132 13.5428 7.55555C13.3221 7.6471 13.2096 7.85166 13.0937 7.96748C13.0143 8.0469 13.0143 8.17565 13.0937 8.25506C13.1731 8.33444 13.3019 8.33447 13.3813 8.25506C13.5054 8.13086 13.5957 7.97388 13.6986 7.93121C13.7603 7.90562 13.8573 7.91464 13.9599 7.92421C14.0817 7.93883 14.2219 7.93883 14.3438 7.92421C14.4465 7.91467 14.5434 7.90562 14.6051 7.93124C14.708 7.97388 14.7984 8.1311 14.9224 8.25506C15.0018 8.33447 15.1305 8.33444 15.2099 8.25506C15.2894 8.17565 15.2894 8.0469 15.2099 7.96748C15.0941 7.85166 14.9815 7.64702 14.7608 7.55552Z" fill="#39C2AA"/>
<path d="M16.5621 11.8274C16.5621 11.9397 16.6531 12.0308 16.7654 12.0308C16.8778 12.0308 16.9688 11.9397 16.9688 11.8274C16.9688 11.6636 17.0338 11.4393 16.9425 11.2186C16.8537 11.0039 16.6525 10.8914 16.5305 10.7693C16.4085 10.6473 16.2956 10.4461 16.0812 10.3573C15.8605 10.266 15.6359 10.331 15.4724 10.331C15.3601 10.331 15.269 10.4221 15.269 10.5344C15.269 10.6467 15.3601 10.7377 15.4724 10.7377C15.5368 10.7377 15.5991 10.7316 15.6594 10.7256C15.7625 10.7155 15.8599 10.7058 15.9257 10.7331C15.9875 10.7586 16.0496 10.8336 16.1155 10.9129C16.155 10.9605 16.1958 11.0098 16.2429 11.0569C16.3688 11.1828 16.5267 11.2773 16.5667 11.3741C16.6093 11.477 16.5621 11.6521 16.5621 11.8274Z" fill="#39C2AA"/>
<path d="M18.6468 11.6421L18.1278 11.1231C18.1124 11.1077 18.1039 11.0872 18.1039 11.0655V10.6595C18.1039 10.2611 17.9488 9.88661 17.6671 9.60486L17.5421 9.47988C17.4945 9.43224 17.4573 9.37655 17.4315 9.31436L17.1654 8.67184C16.5491 7.18402 15.1102 6.22266 13.4998 6.22266C12.5319 6.22266 11.5991 6.57563 10.8732 7.21655C10.789 7.29089 10.781 7.41937 10.8553 7.50356C10.9297 7.58771 11.0581 7.59574 11.1424 7.5214C11.7939 6.94614 12.6311 6.62933 13.4998 6.62933C14.9452 6.62933 16.2365 7.49217 16.7896 8.82748L17.0558 9.46998C17.1021 9.58176 17.1689 9.68183 17.2545 9.76745L17.3795 9.89244C17.5844 10.0974 17.6972 10.3697 17.6972 10.6595V11.0655C17.6972 11.1958 17.748 11.3184 17.8402 11.4107L18.3592 11.9297C18.6601 12.2305 18.7678 12.6696 18.6404 13.0755L18.4206 13.7759C18.298 14.1668 17.9402 14.4295 17.5305 14.4295C17.4617 14.4295 17.3971 14.4562 17.3483 14.5049L17.0739 14.7794C16.9342 14.919 16.7486 14.9959 16.5511 14.9959H15.8723C15.7611 14.9959 15.6565 15.0393 15.5779 15.1179L15.4542 15.2416C15.2473 15.4484 14.9723 15.5623 14.6798 15.5623H14.447V14.6521C14.5558 14.6457 14.6597 14.6303 14.7529 14.6303C14.8091 14.6303 14.8692 14.636 14.9328 14.6419C15.0003 14.6482 15.0718 14.6548 15.1448 14.6548C15.2423 14.6548 15.3427 14.643 15.4405 14.6024C15.6855 14.5008 15.8123 14.2699 15.9463 14.136C16.0257 14.0566 16.0257 13.9279 15.9463 13.8485C15.8669 13.7691 15.7381 13.7691 15.6587 13.8485C15.6075 13.8997 15.5624 13.9547 15.5188 14.0079C15.4408 14.1028 15.3672 14.1926 15.2847 14.2268C15.164 14.2768 14.9592 14.2237 14.7529 14.2237C14.6777 14.2237 14.6053 14.2304 14.5352 14.237C14.223 14.2661 14.1899 14.2551 13.987 14.0079C13.897 13.8982 13.8521 13.8466 13.7488 13.7592C13.766 13.7032 13.7845 13.6417 13.8065 13.5887C13.8772 13.4184 14.0431 13.2129 14.0431 12.9426C14.0431 12.8303 13.9521 12.7392 13.8397 12.7392C13.7274 12.7392 13.6364 12.8303 13.6364 12.9426C13.6364 13.0854 13.507 13.2493 13.4308 13.4329C13.3849 13.5438 13.3576 13.6571 13.3226 13.7552C13.3217 13.7575 13.3209 13.7598 13.3201 13.7622C13.2958 13.8288 13.268 13.8866 13.2294 13.9251C13.134 14.0205 12.9244 14.049 12.7372 14.1266C12.5528 14.203 12.39 14.3321 12.2469 14.3321C12.1038 14.3321 11.9407 14.2029 11.7565 14.1266C11.5686 14.0487 11.3598 14.0207 11.2643 13.9251C11.1689 13.8298 11.1405 13.6201 11.0629 13.4329C11.0199 13.3292 10.9009 13.28 10.7971 13.323C10.6934 13.366 10.6442 13.485 10.6872 13.5887C10.7614 13.7676 10.7916 14.0276 10.9767 14.2127C11.1615 14.3975 11.4221 14.4282 11.6008 14.5023C11.7713 14.573 11.9765 14.7388 12.2469 14.7388C12.3595 14.7388 12.4604 14.7102 12.5527 14.6715V15.5624H12.32C12.0274 15.5624 11.7524 15.4485 11.5456 15.2416L11.4219 15.1179C11.3432 15.0393 11.2387 14.996 11.1274 14.996H10.4486C10.2512 14.996 10.0655 14.9191 9.92587 14.7794L9.65139 14.5049C9.60275 14.4563 9.53809 14.4295 9.4693 14.4295C9.05956 14.4295 8.70182 14.1668 8.57914 13.7759L8.35934 13.0755C8.23194 12.6696 8.33969 12.2305 8.64055 11.9297L9.15958 11.4107C9.25179 11.3184 9.30257 11.1959 9.30257 11.0655V10.6595C9.30257 10.3697 9.41541 10.0973 9.62029 9.89244L9.7453 9.76743C9.83087 9.68189 9.89773 9.58182 9.94406 9.46998L10.2102 8.82746C10.3018 8.60636 10.4159 8.39402 10.5495 8.19632C10.6123 8.10327 10.5879 7.97688 10.4948 7.914C10.4017 7.85113 10.2753 7.87561 10.2125 7.96869C10.0637 8.18897 9.93647 8.42558 9.83445 8.67186L9.56832 9.31436C9.54253 9.37658 9.50534 9.43227 9.45773 9.47988L9.33271 9.60489C9.05102 9.88658 8.89589 10.2611 8.89589 10.6595V11.0655C8.89589 11.0873 8.88743 11.1077 8.87203 11.1231L8.353 11.6421C7.94467 12.0505 7.79843 12.6464 7.97135 13.1973L8.19114 13.8977C8.36097 14.4388 8.84443 14.8087 9.40608 14.8347L9.63832 15.0669C9.85475 15.2834 10.1425 15.4026 10.4486 15.4026H11.1274C11.13 15.4026 11.1325 15.4036 11.1343 15.4054L11.258 15.5291C11.5417 15.8128 11.9188 15.969 12.32 15.969H12.5527V17.9392C12.5527 18.5253 12.3245 19.0762 11.9101 19.4906L11.6854 19.7153C11.6201 19.7807 11.6007 19.878 11.6361 19.9634C11.6714 20.0488 11.754 20.1039 11.8463 20.1039H15.1534C15.2458 20.1039 15.3283 20.0488 15.3637 19.9634C15.3991 19.8781 15.3797 19.7808 15.3144 19.7154L15.0897 19.4906C14.6753 19.0763 14.4471 18.5253 14.4471 17.9392V17.253C14.4471 17.1407 14.3561 17.0497 14.2437 17.0497C14.1314 17.0497 14.0404 17.1407 14.0404 17.253V17.9392C14.0404 18.5964 14.2825 19.2164 14.7245 19.6972H12.2753C12.7173 19.2164 12.9594 18.5964 12.9594 17.9392V14.4775C12.991 14.4668 13.0243 14.4565 13.0587 14.446C13.2111 14.3991 13.3838 14.346 13.517 14.2127C13.5373 14.1925 13.5557 14.1713 13.5725 14.1494C13.6967 14.2796 13.8194 14.4887 14.0404 14.5915V16.3042C14.0404 16.4165 14.1314 16.5075 14.2437 16.5075C14.3561 16.5075 14.4471 16.4165 14.4471 16.3042V15.9691H14.6799C15.081 15.9691 15.4582 15.8129 15.7418 15.5292L15.8655 15.4055C15.8673 15.4037 15.8698 15.4027 15.8724 15.4027H16.5512C16.8573 15.4027 17.145 15.2834 17.3615 15.067L17.5938 14.8348C18.1554 14.8088 18.6389 14.4389 18.8087 13.8977L19.0285 13.1974C19.2014 12.6464 19.0551 12.0504 18.6468 11.6421Z" fill="#39C2AA"/>
<path d="M13.769 16.7002V14.8362C13.769 14.7239 13.678 14.6328 13.5656 14.6328C13.4533 14.6328 13.3623 14.7239 13.3623 14.8362V16.7002C13.3623 16.8125 13.4533 16.9035 13.5656 16.9035C13.6779 16.9035 13.769 16.8125 13.769 16.7002Z" fill="#39C2AA"/>
<path d="M13.2301 17.7033V17.9363C13.2301 18.3559 13.1425 18.7592 12.9698 19.1349C12.9229 19.237 12.9676 19.3577 13.0696 19.4046C13.1712 19.4513 13.2922 19.4072 13.3393 19.3048C13.5367 18.8754 13.6368 18.4149 13.6368 17.9363V17.7033C13.6368 17.591 13.5457 17.5 13.4334 17.5C13.3211 17.5 13.2301 17.591 13.2301 17.7033Z" fill="#39C2AA"/>
</svg>
