<svg width="73" height="73" viewBox="0 0 73 73" fill="none" xmlns="http://www.w3.org/2000/svg">
<path d="M25.0729 26.4018C24.5119 27.1334 24.5312 28.0492 24.3607 28.6851C24.2596 29.0622 24.4835 29.4498 24.8606 29.5508C25.2383 29.6518 25.6253 29.4277 25.7263 29.0509C25.9078 28.3734 25.9029 27.6426 26.1948 27.262C26.4709 26.9017 27.1795 26.7057 27.8012 26.3468C28.4202 25.9895 28.9477 25.4721 29.397 25.4131C29.705 25.3734 30.0823 25.5149 30.4821 25.6653C30.7059 25.7496 30.9374 25.8367 31.1806 25.9019C31.5576 26.003 31.9452 25.7792 32.0464 25.402C32.1474 25.0249 31.9235 24.6374 31.5465 24.5363C30.9106 24.366 30.1266 23.8914 29.2131 24.0114C28.5756 24.0951 28.0658 24.4564 27.6159 24.7751C27.1473 25.1071 27.0568 25.1597 26.533 25.4003C26.0319 25.6307 25.4641 25.8915 25.0729 26.4018Z" fill="#6A7FA4"/>
<path d="M40.8855 15.8612C40.3471 15.638 39.7933 15.6895 39.3046 15.7351C38.812 15.781 38.7255 15.7811 38.2323 15.7351C37.7434 15.6896 37.1897 15.638 36.6515 15.8612C35.884 16.1795 35.493 16.8906 35.0903 17.2932C34.8143 17.5693 34.8143 18.0168 35.0903 18.2929C35.3663 18.5688 35.8139 18.5689 36.09 18.2929C36.5215 17.8611 36.8354 17.3155 37.193 17.1671C37.4073 17.0781 37.7445 17.1095 38.1012 17.1428C38.5248 17.1936 39.0122 17.1936 39.4358 17.1428C39.7927 17.1096 40.1296 17.0781 40.344 17.1672C40.7017 17.3155 41.0162 17.862 41.4471 18.2929C41.7231 18.5689 42.1706 18.5688 42.4467 18.2929C42.7227 18.0168 42.7227 17.5693 42.4466 17.2932C42.0441 16.8906 41.6525 16.1792 40.8855 15.8612Z" fill="#6A7FA4"/>
<path d="M47.1458 30.6899C47.1458 31.0803 47.4621 31.3968 47.8526 31.3968C48.2431 31.3968 48.5594 31.0803 48.5594 30.6899C48.5594 30.1204 48.7855 29.3408 48.4681 28.5735C48.1593 27.8272 47.46 27.4361 47.036 27.0118C46.6118 26.5876 46.2195 25.888 45.4742 25.5795C44.7069 25.2621 43.9261 25.4882 43.3576 25.4882C42.9673 25.4882 42.6509 25.8047 42.6509 26.1951C42.6509 26.5854 42.9674 26.9019 43.3578 26.9019C43.5816 26.9019 43.7982 26.8805 44.0077 26.8599C44.3663 26.8246 44.705 26.7911 44.9337 26.8858C45.1484 26.9746 45.3644 27.2351 45.5932 27.5108C45.7306 27.6764 45.8726 27.8476 46.0363 28.0114C46.4738 28.449 47.0227 28.7774 47.1619 29.114C47.3099 29.4718 47.1458 30.0804 47.1458 30.6899Z" fill="#6A7FA4"/>
<path d="M54.3915 30.054L52.5873 28.2497C52.5337 28.1962 52.5042 28.125 52.5042 28.0495V26.6381C52.5042 25.2534 51.965 23.9514 50.9857 22.972L50.5513 22.5376C50.3858 22.372 50.2564 22.1784 50.1668 21.9622L49.2417 19.7287C47.0993 14.5567 42.0977 11.2148 36.4996 11.2148C33.1349 11.2148 29.8922 12.4418 27.3689 14.6698C27.0764 14.9282 27.0486 15.3749 27.3069 15.6675C27.5653 15.96 28.0118 15.9879 28.3046 15.7295C30.5694 13.7298 33.4798 12.6285 36.4996 12.6285C41.524 12.6285 46.0128 15.6279 47.9357 20.2697L48.8607 22.5032C49.0217 22.8917 49.2541 23.2396 49.5516 23.5372L49.9861 23.9717C50.6983 24.684 51.0905 25.6309 51.0905 26.6381V28.0495C51.0905 28.5026 51.2671 28.9288 51.5875 29.2493L53.3918 31.0535C54.4376 32.0993 54.8121 33.6256 54.3693 35.0368L53.6052 37.4713C53.1788 38.8303 51.9352 39.7433 50.5108 39.7433C50.2719 39.7433 50.0472 39.8363 49.8778 40.0055L48.9236 40.9597C48.4383 41.445 47.7929 41.7124 47.1065 41.7124H44.7469C44.3601 41.7124 43.9966 41.863 43.7234 42.1363L43.2933 42.5664C42.5743 43.2854 41.6183 43.6814 40.6014 43.6814H39.7922V40.5172C40.1705 40.495 40.5317 40.4416 40.8554 40.4416C41.0508 40.4416 41.2596 40.4611 41.4807 40.4816C41.7157 40.5035 41.9639 40.5267 42.2177 40.5267C42.5569 40.5267 42.9059 40.4854 43.2456 40.3445C44.0973 39.9914 44.5383 39.1887 45.004 38.7232C45.2801 38.4471 45.2801 37.9996 45.004 37.7236C44.7279 37.4476 44.2804 37.4476 44.0044 37.7236C43.8263 37.9017 43.6694 38.0929 43.5178 38.2777C43.2468 38.6078 42.9908 38.9198 42.7041 39.0386C42.2848 39.2125 41.5728 39.028 40.8554 39.028C40.5943 39.028 40.3424 39.0515 40.0989 39.0742C39.0135 39.1754 38.8986 39.1373 38.193 38.2778C37.8803 37.8967 37.7243 37.7171 37.3649 37.4133C37.4249 37.2187 37.4893 37.0047 37.5657 36.8206C37.8113 36.2285 38.3881 35.5144 38.3881 34.5746C38.3881 34.1842 38.0717 33.8677 37.6812 33.8677C37.2907 33.8677 36.9744 34.1842 36.9744 34.5746C36.9744 35.071 36.5245 35.6408 36.2598 36.279C36.0999 36.6645 36.0053 37.0583 35.8836 37.3992C35.8804 37.4073 35.8775 37.4155 35.8747 37.4238C35.7904 37.6552 35.6937 37.856 35.5596 37.9902C35.2281 38.3216 34.4992 38.4206 33.8485 38.6904C33.2076 38.9561 32.6416 39.405 32.1441 39.405C31.6466 39.405 31.0796 38.9558 30.4396 38.6905C29.7864 38.4195 29.0604 38.3223 28.7284 37.9902C28.3968 37.6587 28.298 36.9298 28.0282 36.2791C27.8788 35.9185 27.4651 35.7475 27.1045 35.8969C26.744 36.0463 26.5728 36.46 26.7223 36.8206C26.9802 37.4424 27.0851 38.3463 27.7287 38.9898C28.3712 39.6323 29.277 39.7389 29.8981 39.9964C30.4911 40.2423 31.2043 40.8187 32.1441 40.8187C32.5358 40.8187 32.8864 40.7193 33.2073 40.5846V43.6816H32.3982C31.3812 43.6816 30.4253 43.2856 29.7063 42.5665L29.2762 42.1365C29.0028 41.8631 28.6393 41.7125 28.2526 41.7125H25.893C25.2066 41.7125 24.5612 41.4452 24.0758 40.9597L23.1217 40.0056C22.9526 39.8365 22.7278 39.7434 22.4887 39.7434C21.0644 39.7434 19.8208 38.8304 19.3944 37.4713L18.6303 35.0368C18.1874 33.6256 18.562 32.0994 19.6078 31.0535L21.4121 29.2493C21.7326 28.9288 21.9091 28.5027 21.9091 28.0495V26.6381C21.9091 25.6308 22.3014 24.6839 23.0136 23.9717L23.4482 23.5371C23.7456 23.2398 23.978 22.8919 24.1391 22.5032L25.0642 20.2696C25.3826 19.5011 25.7793 18.7629 26.2436 18.0757C26.4622 17.7522 26.3771 17.3128 26.0535 17.0943C25.73 16.8757 25.2906 16.9608 25.0721 17.2844C24.5548 18.0501 24.1127 18.8726 23.758 19.7288L22.8329 21.9622C22.7433 22.1785 22.614 22.3721 22.4485 22.5376L22.0139 22.9721C21.0347 23.9514 20.4954 25.2534 20.4954 26.6381V28.0495C20.4954 28.1251 20.466 28.1962 20.4125 28.2497L18.6083 30.054C17.1888 31.4734 16.6805 33.5449 17.2816 35.4601L18.0456 37.8946C18.636 39.7756 20.3166 41.0617 22.269 41.1519L23.0763 41.9592C23.8286 42.7116 24.8291 43.126 25.8931 43.126H28.2527C28.2618 43.126 28.2704 43.1295 28.2767 43.1359L28.7067 43.5659C29.6927 44.5519 31.0038 45.0951 32.3982 45.0951H33.2073V51.9438C33.2073 53.9811 32.4141 55.8963 30.9735 57.3368L30.1923 58.118C29.9652 58.3451 29.8979 58.6835 30.0208 58.9803C30.1437 59.277 30.4307 59.4687 30.7518 59.4687H42.2478C42.5689 59.4687 42.8558 59.277 42.9788 58.9804C43.1018 58.6838 43.0346 58.3454 42.8073 58.1181L42.0262 57.3369C40.5857 55.8964 39.7924 53.9812 39.7924 51.9439V49.5585C39.7924 49.1681 39.476 48.8516 39.0856 48.8516C38.6951 48.8516 38.3787 49.1681 38.3787 49.5585V51.9439C38.3787 54.2284 39.2203 56.3835 40.7566 58.055H32.243C33.7794 56.3834 34.621 54.2283 34.621 51.9439V39.9103C34.7308 39.873 34.8466 39.8374 34.9662 39.8006C35.4958 39.6377 36.0962 39.453 36.5594 38.9898C36.6298 38.9194 36.6938 38.8457 36.7522 38.7698C37.1841 39.2222 37.6106 39.9492 38.3787 40.3065V46.2601C38.3787 46.6504 38.6951 46.9669 39.0856 46.9669C39.476 46.9669 39.7924 46.6504 39.7924 46.2601V45.0953H40.6016C41.9961 45.0953 43.3071 44.5522 44.293 43.5662L44.7232 43.1361C44.7295 43.1298 44.738 43.1263 44.7471 43.1263H47.1067C48.1707 43.1263 49.171 42.7119 49.9236 41.9595L50.7309 41.1522C52.6833 41.062 54.364 39.7759 54.9543 37.8949L55.7183 35.4603C56.3192 33.5448 55.8109 31.4733 54.3915 30.054Z" fill="#6A7FA4"/>
<path d="M37.4366 47.6592V41.1795C37.4366 40.7891 37.1203 40.4727 36.7298 40.4727C36.3394 40.4727 36.0229 40.7891 36.0229 41.1795V47.6592C36.0229 48.0496 36.3394 48.366 36.7298 48.366C37.1202 48.366 37.4366 48.0496 37.4366 47.6592Z" fill="#6A7FA4"/>
<path d="M35.5633 51.1326V51.9425C35.5633 53.401 35.2589 54.8029 34.6585 56.109C34.4955 56.4637 34.6508 56.8834 35.0055 57.0465C35.3586 57.2089 35.7792 57.0557 35.943 56.6995C36.6291 55.2068 36.977 53.6063 36.977 51.9425V51.1326C36.977 50.7423 36.6606 50.4258 36.2701 50.4258C35.8797 50.4258 35.5633 50.7423 35.5633 51.1326Z" fill="#6A7FA4"/>
</svg>
