<svg width="16" height="16" viewBox="0 0 16 16" fill="none" xmlns="http://www.w3.org/2000/svg">
<path fill-rule="evenodd" clip-rule="evenodd" d="M16 8C16 12.4183 12.4183 16 8 16C3.58172 16 0 12.4183 0 8C0 3.58172 3.58172 0 8 0C12.4183 0 16 3.58172 16 8ZM11.3741 4.62624C11.7646 5.01677 11.7646 5.64993 11.3741 6.04046L9.41453 8.00002L11.3741 9.95958C11.7646 10.3501 11.7646 10.9833 11.3741 11.3738C10.9836 11.7643 10.3504 11.7643 9.95988 11.3738L8.00032 9.41423L6.04076 11.3738C5.65024 11.7643 5.01707 11.7643 4.62655 11.3738C4.23602 10.9833 4.23602 10.3501 4.62654 9.95958L6.58611 8.00002L4.62654 6.04046C4.23602 5.64993 4.23602 5.01677 4.62655 4.62624C5.01707 4.23572 5.65024 4.23572 6.04076 4.62624L8.00032 6.5858L9.95988 4.62624C10.3504 4.23572 10.9836 4.23572 11.3741 4.62624Z" fill="white" fill-opacity="0.75"/>
</svg>
