<svg width="50" height="50" viewBox="0 0 50 50" fill="none" xmlns="http://www.w3.org/2000/svg">
<g clip-path="url(#clip0)">
<path d="M35.5209 26.6354C35.9127 26.6354 36.2812 26.4828 36.5581 26.2058C36.8353 25.9286 36.9879 25.5603 36.9879 25.1684C36.9879 24.7764 36.8353 24.4081 36.5581 24.131L31.3789 18.9517C32.2023 18.5838 32.7781 17.7574 32.7781 16.7987V16.3613C32.7781 15.0614 31.7206 14.0039 30.4207 14.0039C29.121 14.0039 28.0633 15.0614 28.0633 16.3613V16.7987C28.0633 17.3977 28.2886 17.945 28.658 18.3612C28.3795 18.476 28.1222 18.6426 27.8989 18.8565C27.8857 18.8672 27.8727 18.8789 27.8603 18.8911L26.8152 19.9364C26.7062 19.5647 26.5113 19.2296 26.2534 18.954C27.0796 18.587 27.6576 17.7593 27.6576 16.7987V16.3613C27.6576 15.0614 26.6 14.0039 25.3003 14.0039C24.0004 14.0039 22.9429 15.0614 22.9429 16.3613V16.7987C22.9429 17.3977 23.1679 17.945 23.5373 18.3612C23.2588 18.476 23.0017 18.6426 22.7782 18.8565C22.7651 18.8672 22.7523 18.8789 22.74 18.8911L21.6948 19.9364C21.5857 19.5647 21.3909 19.2296 21.133 18.954C21.9592 18.587 22.5372 17.7593 22.5372 16.7987V16.3613C22.5372 15.0614 21.4795 14.0039 20.1798 14.0039C18.8799 14.0039 17.8225 15.0614 17.8225 16.3613V16.7987C17.8225 17.3977 18.0475 17.945 18.4169 18.3612C18.1384 18.476 17.8813 18.6426 17.6578 18.8565C17.6446 18.8674 17.6318 18.8789 17.6196 18.8911L15.811 20.6997C15.62 20.8907 15.62 21.2003 15.811 21.3914C15.9065 21.4867 16.0317 21.5346 16.1568 21.5346C16.2819 21.5346 16.4072 21.4867 16.5027 21.3914L18.2788 19.6151C18.2903 19.6055 18.3015 19.5954 18.3122 19.5847C18.5894 19.3083 18.9573 19.1561 19.3485 19.1561C20.1575 19.1561 20.8155 19.8141 20.8155 20.6231V20.8156L17.8815 23.7497V22.5763C17.8815 22.3784 17.7623 22.2001 17.5797 22.1245C17.3969 22.0488 17.1866 22.0907 17.0467 22.2305L13.7629 25.5141C13.5723 25.7049 13.2621 25.7049 13.0712 25.5141C12.8806 25.3235 12.8806 25.0133 13.0712 24.8226L13.923 23.9709C14.114 23.7799 14.114 23.4702 13.923 23.2792C13.7322 23.0884 13.4223 23.0884 13.2315 23.2792L12.3798 24.131C11.8077 24.7031 11.8077 25.6337 12.3798 26.2058C12.9519 26.7777 13.8825 26.7777 14.4544 26.2058L16.9035 23.7567V25.0658C16.9035 25.1756 16.9077 25.2847 16.9142 25.3938L14.6745 34.9802C14.4724 35.8517 14.961 36.7187 15.8112 36.997C15.9868 37.0547 16.1671 37.0832 16.3466 37.0832C16.6122 37.0832 16.876 37.0207 17.1197 36.8971C17.5283 36.6902 17.8318 36.3365 17.9739 35.9029L19.6465 30.855L20.4663 32.1064L19.7949 34.9802C19.5928 35.8517 20.0814 36.7187 20.9317 36.997C21.1072 37.0545 21.2875 37.0832 21.4671 37.0832C21.7326 37.0832 21.9964 37.0207 22.2401 36.8971C22.6487 36.6902 22.9523 36.3365 23.0944 35.9029L24.7669 30.855L25.5868 32.1064L24.9154 34.9802C24.7133 35.8517 25.2019 36.7187 26.0521 36.997C26.2288 37.0551 26.4082 37.0824 26.5847 37.0824C27.306 37.0824 27.9787 36.6234 28.2148 35.9029L29.8874 30.855L33.3198 36.0935C33.6384 36.6345 34.2033 36.9399 34.7918 36.9399C35.0359 36.9399 35.284 36.8874 35.5203 36.7773C36.3774 36.3785 36.7505 35.3567 36.3516 34.4994C36.3467 34.4887 36.3413 34.4781 36.3354 34.4677L34.7091 31.5494C34.5777 31.3134 34.2799 31.229 34.0438 31.3602C33.8078 31.4919 33.7232 31.7897 33.8546 32.0256L35.4714 34.9262C35.6321 35.2916 35.4712 35.7216 35.1077 35.8906C34.7593 36.0526 34.3515 35.9241 34.1591 35.5913C34.1545 35.5835 34.15 35.5756 34.1448 35.568L28.841 27.4736C28.5229 26.9882 28.3067 26.4499 28.1999 25.8872H31.0583C31.0765 26.6532 31.2816 27.4088 31.6549 28.0787L32.1036 28.8837C32.235 29.1196 32.5328 29.2042 32.7689 29.0728C33.0048 28.9414 33.0894 28.6436 32.958 28.4077L32.5093 27.6025C32.2008 27.049 32.0365 26.4215 32.0346 25.7892V23.7567L34.4835 26.2058C34.7606 26.4828 35.1289 26.6354 35.5209 26.6354ZM18.8007 16.3613C18.8007 15.6006 19.4194 14.9819 20.1798 14.9819C20.9405 14.9819 21.5592 15.6006 21.5592 16.3613V16.7987C21.5592 17.5591 20.9405 18.1779 20.1798 18.1779C19.4194 18.1779 18.8007 17.5591 18.8007 16.7987V16.3613ZM29.0416 16.3613C29.0416 15.6006 29.6603 14.9819 30.4207 14.9819C31.1813 14.9819 31.8001 15.6006 31.8001 16.3613V16.7987C31.8001 17.5591 31.1813 18.1779 30.4207 18.1779C29.6603 18.1779 29.0416 17.5591 29.0416 16.7987V16.3613ZM28.5197 19.6151C28.5311 19.6055 28.5424 19.5954 28.5533 19.5845C28.8303 19.3083 29.1982 19.1559 29.5894 19.1559C30.3984 19.1559 31.0566 19.8141 31.0566 20.6231V24.9092H28.1224V22.5763C28.1224 22.3784 28.0032 22.2001 27.8206 22.1243C27.6378 22.0488 27.4274 22.0907 27.2876 22.2303L24.0038 25.5141C23.9114 25.6066 23.7887 25.6574 23.6581 25.6574C23.5274 25.6574 23.4046 25.6066 23.3123 25.5141C23.2199 25.4219 23.1691 25.299 23.1691 25.1684C23.1691 25.0377 23.2199 24.9149 23.3123 24.8226L28.5197 19.6151ZM23.9211 16.3613C23.9211 15.6006 24.5398 14.9819 25.3003 14.9819C26.0609 14.9819 26.6796 15.6006 26.6796 16.3613V16.7987C26.6796 17.5591 26.0609 18.1779 25.3003 18.1779C24.5398 18.1779 23.9211 17.5591 23.9211 16.7987V16.3613ZM18.1917 24.8226L23.3992 19.6151C23.4107 19.6055 23.422 19.5954 23.4327 19.5845C23.7098 19.3083 24.0777 19.1559 24.4689 19.1559C25.2779 19.1559 25.936 19.8141 25.936 20.6231V20.8154L23.0019 23.7497V22.5761C23.0019 22.3784 22.8827 22.2001 22.7001 22.1243C22.5173 22.0487 22.307 22.0905 22.1672 22.2303L18.8834 25.5141C18.6927 25.7048 18.3823 25.7048 18.1917 25.5141C18.0011 25.3235 18.0011 25.0133 18.1917 24.8226ZM18.9344 29.8946L17.0448 35.5968C16.9837 35.7839 16.8532 35.9359 16.6777 36.0247C16.5023 36.1136 16.3025 36.1288 16.1155 36.0675C15.7503 35.9481 15.5404 35.5755 15.6271 35.202L17.446 27.4167C17.5451 27.6201 17.6566 27.8184 17.782 28.0096L18.9674 29.8185C18.9546 29.8428 18.9432 29.8678 18.9344 29.8946ZM18.6001 27.4736C18.4161 27.193 18.2668 26.8946 18.1523 26.5842C18.2763 26.6176 18.4056 26.6354 18.5376 26.6354C18.9294 26.6354 19.2979 26.4828 19.5749 26.2058L22.0239 25.0658C22.0239 25.1754 22.0279 25.2847 22.0346 25.3936L20.7737 30.7908L18.6001 27.4736ZM24.0548 29.8946L22.1653 35.5968C22.1041 35.7839 21.9737 35.9359 21.7981 36.0247C21.6226 36.1136 21.423 36.1288 21.236 36.0675C20.8707 35.9481 20.6608 35.5755 20.7475 35.202L22.5662 27.4167C22.6655 27.6201 22.7771 27.8184 22.9024 28.0096L24.0877 29.8185C24.0749 29.8426 24.0636 29.8678 24.0548 29.8946ZM23.7205 27.4736C23.5366 27.193 23.3872 26.8946 23.2728 26.5842C23.3968 26.6176 23.5261 26.6354 23.6581 26.6354C24.0499 26.6354 24.4183 26.4828 24.6953 26.2058L27.1444 23.7567V25.0658C27.1444 25.151 27.147 25.2358 27.151 25.3206C27.147 25.3458 27.1444 25.3716 27.1444 25.3982C27.1444 25.4096 27.1453 25.4209 27.1461 25.4322L25.8941 30.7908L23.7205 27.4736ZM29.2083 29.8185C29.1953 29.8426 29.1841 29.8678 29.1751 29.8946L27.2857 35.5968C27.1593 35.9829 26.7423 36.1942 26.3564 36.0675C25.9912 35.9481 25.7812 35.5755 25.868 35.202L27.6868 27.4167C27.786 27.6201 27.8975 27.8184 28.0228 28.0096L29.2083 29.8185ZM32.0344 20.9904L35.8666 24.8226C36.0573 25.0133 36.0573 25.3235 35.8666 25.5141C35.676 25.7048 35.3658 25.7048 35.1752 25.5141L32.0344 22.3736V20.9904Z" fill="#6A7FA4"/>
<path d="M33.0935 29.9245C33.0025 30.0154 32.9502 30.1415 32.9502 30.2703C32.9502 30.3988 33.0025 30.5249 33.0935 30.616C33.1844 30.7069 33.3106 30.7593 33.4392 30.7593C33.5683 30.7593 33.6944 30.7069 33.7853 30.616C33.8764 30.5249 33.9282 30.3988 33.9282 30.2703C33.9282 30.1415 33.8764 30.0154 33.7853 29.9245C33.694 29.833 33.5683 29.7812 33.4392 29.7812C33.3106 29.7812 33.185 29.833 33.0935 29.9245Z" fill="#6A7FA4"/>
<path d="M14.9109 22.8253C15.0394 22.8253 15.1657 22.7733 15.2566 22.6824C15.3476 22.5911 15.3999 22.4654 15.3999 22.3367C15.3999 22.2075 15.3476 22.082 15.2566 21.9911C15.1657 21.8996 15.0394 21.8477 14.9109 21.8477C14.7818 21.8477 14.6557 21.8996 14.5651 21.9911C14.4736 22.0815 14.4219 22.2077 14.4219 22.3367C14.4219 22.4654 14.4736 22.5915 14.5651 22.6824C14.6557 22.7733 14.7818 22.8253 14.9109 22.8253Z" fill="#6A7FA4"/>
</g>
<defs>
<clipPath id="clip0">
<rect width="25.0372" height="24.9883" fill="white" transform="translate(12 13)"/>
</clipPath>
</defs>
</svg>
