<svg width="24"
     height="17"
     viewBox="0 0 24 17"
     fill="none"
     xmlns="http://www.w3.org/2000/svg">
<path d="M23.013 3.20151C22.7478 2.25816 21.9666 1.51521 20.9746 1.26308C19.1767 0.804932 11.967 0.804932 11.967 0.804932C11.967 0.804932 4.75735 0.804932 2.95933 1.26308C1.96738 1.51525 1.18613 2.25816 0.920977 3.20151C0.439209 4.91138 0.439209 8.47886 0.439209 8.47886C0.439209 8.47886 0.439209 12.0463 0.920977 13.7562C1.18613 14.6996 1.96738 15.4116 2.95933 15.6637C4.75735 16.1218 11.967 16.1218 11.967 16.1218C11.967 16.1218 19.1766 16.1218 20.9746 15.6637C21.9666 15.4116 22.7478 14.6996 23.013 13.7562C23.4948 12.0463 23.4947 8.47886 23.4947 8.47886C23.4947 8.47886 23.4948 4.91138 23.013 3.20151ZM9.60901 11.7179V5.23985L15.6349 8.47894L9.60901 11.7179Z"
      fill="white" />
</svg>